<svg xmlns="http://www.w3.org/2000/svg" width="488.787" height="68.06" viewBox="0 0 488.787 68.06">
  <path id="パス_558" data-name="パス 558" d="M35.441-42.994H48.97v-8.964H35.441V-56.44H26.477v4.482H12.948v8.964H26.477V-28.8c-9.794,0-13.363,6.557-13.363,11.869,0,4.9,2.988,10.458,11.2,10.458,10.292,0,11.122-8.549,11.122-13.363C45.484-19.5,46.9-3.486,33.449-3.486V5.478c25.813,0,23.738-31.789,1.992-34.113ZM46.978-28.552h8.964v-12.2H46.978ZM24.319-15.106a2.305,2.305,0,0,1-2.573-2.407c0-1.909,1.66-2.822,5.229-2.822C26.975-17.1,26.809-15.106,24.319-15.106Zm98.106-8.134V-32.2H66.815v8.964Zm30.793-37.682c0,34.611-7.968,47.559-23.323,60.009l6.225,6.391c9.96-7.47,17.264-15.936,21.58-29.548,4.233,13.612,11.537,22.078,21.5,29.548l6.308-6.391c-15.355-12.45-23.323-25.4-23.323-60.009Zm77.688,41.666V-38.512h9.379v-8.964h-9.379V-56.44h-8.964v8.964H203.35v8.964h18.592v19.256ZM228.25-3.32c-7.221-1.494-14.94-3.237-16.6-17.928l-8.964.747C204.346-1.66,215.8,3.32,226.424,5.478Zm48.638-53.12v4.482h-14.11v8.964h14.11v8.715h-14.11v8.964h14.11v8.466c-9.711,0-13.28,6.64-13.28,11.869,0,4.98,2.9,10.458,11.122,10.458,10.292,0,11.122-8.466,11.122-13.363h8.383v-8.964h-8.383v-8.466h14.11v-8.964h-14.11v-8.715h14.11v-8.964h-14.11V-56.44ZM274.73-3.154a2.288,2.288,0,0,1-2.573-2.324c0-1.909,1.66-2.822,5.229-2.822C277.386-5.146,277.22-3.154,274.73-3.154ZM336.9-51.128c20.335,0,32.038-2.49,32.038-2.49v-8.964s-12.118,2.49-32.038,2.49Zm-2.49,8.134v-8.964h-3.32V-58.1h-8.964v6.142h-6.308v8.964h6.308v19.339a38.11,38.11,0,0,1-6.308.5v8.964a48.26,48.26,0,0,0,6.308-.415V-9.13c0,4.316-1.577,5.644-4.648,5.644V5.478c9.13,0,13.612-4.233,13.612-14.608V-16.6a18.922,18.922,0,0,0,3.32-1.66v-9.047a27.658,27.658,0,0,1-3.32,1.411v-17.1Zm26.975-6.723-1.577,6.723h-2.822l-1.577-6.723h-7.553l1.577,6.723h-3.4l-1.577-6.723H336.9l1.577,6.723h-4.067v15.272h4.15v6.972h19.007a33.184,33.184,0,0,1-6.142,8.3,32.2,32.2,0,0,1-4.814-6.391l-7.3,5.229a41.39,41.39,0,0,0,4.9,6.972,41.7,41.7,0,0,1-8.881,4.482l4.814,7.636A47.087,47.087,0,0,0,351.671-.415a40.3,40.3,0,0,0,14.774,5.893l3.071-8.466a34.03,34.03,0,0,1-10.458-3.735,36.937,36.937,0,0,0,8.217-14.027v-6.972h4.15V-42.994h-4.067l1.577-6.723Zm-18.011,20V-34.03h19.09v4.316ZM434.505-56.44h-3.818l1.328-6.142H422.8l-1.328,6.142h-3.32v-6.142H409.19v6.142h-4.98v-6.142h-8.964v6.142h-3.237L390.6-62.582h-9.213L382.8-56.44h-3.9v8.964h8.3v7.055h-8.3v8.964h23.323v3.569H381.385v6.723h20.833V-17.6H379.725v8.964h14.11a32.445,32.445,0,0,1-14.94,5.395l2.158,8.715s12.118,0,21.165-9.213V5.478h8.964V-3.735a32.526,32.526,0,0,0,21.165,9.213l2.158-8.715a32.271,32.271,0,0,1-14.857-5.395h14.027V-17.6H411.182v-3.569h20.833v-6.723H411.182v-3.569h23.323v-8.964h-8.3v-7.055h8.3ZM396.159-40.421v-7.055h21.082v7.055Zm59.345-20.5H444.88l.83,47.227h8.964Zm-9.794,66.4h8.964V-5.312H445.71Zm32.038-49.053c0-5.893,3.4-8.383,7.47-8.383,4.15,0,7.553,2.49,7.553,8.383,0,10.126-12.035,9.877-12.035,29.88H489.7c0-18.509,12.035-15.687,12.035-29.88,0-12.2-8.217-17.347-16.517-17.347-8.217,0-16.434,5.146-16.434,17.347v2.988h8.964ZM489.7,5.478V-5.312h-8.964V5.478Z" transform="translate(-12.948 62.582)" fill="#fff"/>
</svg>
