<svg xmlns="http://www.w3.org/2000/svg" width="429.169" height="33.264" viewBox="0 0 429.169 33.264">
  <g id="配下1_2_素材" transform="translate(-2.232 -0.032)">
    <path id="パス_826" data-name="パス 826" d="M12.96-17.1l10.152-.432a19.69,19.69,0,0,1-.36,4.14,1.557,1.557,0,0,1-1.62,1.188,4.538,4.538,0,0,1-1.008-.144,4.643,4.643,0,0,0-1.26-.252,1.959,1.959,0,0,0-1.908,1.98A2.03,2.03,0,0,0,18-8.784a8.437,8.437,0,0,0,3.78.72c3.24,0,4.428-1.98,4.824-4.9.216-1.584.324-3.132.432-4.716l3.888-.144c1.332-.072,2.808-.468,2.808-2.052,0-1.512-1.044-2.016-2.376-2.016h-.54l-3.672.144c.036-1.368.036-2.736.036-4.068,0-1.512-.036-3.2-2.016-3.2A1.747,1.747,0,0,0,23.256-27.5c-.108,1.512-.144,4-.144,5.9l-10.044.4.072-4.14c.036-1.476-.252-2.916-2.052-2.916-1.872,0-2.16,1.332-2.16,2.88v4.32l-3.888.144c-1.368.036-2.808.432-2.808,2.124,0,1.764,1.548,2.052,2.952,1.98l3.744-.144v10.44c0,2.124.216,4.1,2.088,5.4C12.924.216,16.308.612,21.42.612a53.345,53.345,0,0,0,7.308-.5c1.116-.288,2.124-.864,2.124-2.16A2.034,2.034,0,0,0,28.62-4.1a7.871,7.871,0,0,0-1.3.108,72.218,72.218,0,0,1-8.352.5,16.363,16.363,0,0,1-4-.36c-1.656-.432-2.088-1.4-2.088-3.024v-6.372Zm38.016,1.512c.5-1.188,1.836-4.212,2.988-6.7a21.818,21.818,0,0,0,1.944-5.256,1.987,1.987,0,0,0-2.16-1.8c-1.224,0-1.728,1.044-2.124,2.052C48.816-20.52,46.044-13.68,43.056-7.02c-1.62,3.6-2.376,5.58-2.376,6.3A2.083,2.083,0,0,0,42.8,1.3a1.712,1.712,0,0,0,1.332-.5,26.178,26.178,0,0,0,1.908-4A36.753,36.753,0,0,1,49.5-10.152c.972-1.44,2.664-3.1,4.572-3.1,1.764,0,2.016.9,2.016,2.7v5.292a8.348,8.348,0,0,0,.54,3.528C57.456.288,59.832,1.3,61.884,1.3c3.24,0,6.12-2.268,7.812-4.86.936-1.4,2.232-4,2.232-5.724A1.981,1.981,0,0,0,69.8-11.232c-1.3,0-1.548.792-2.124,2.664C66.924-6.12,64.908-2.88,61.956-2.88c-1.8,0-1.98-1.152-1.98-3.132v-5.04c0-1.872-.036-3.06-.864-4.176a4.929,4.929,0,0,0-4-1.908A6.762,6.762,0,0,0,50.976-15.588ZM88.56-17.1l10.152-.432a19.69,19.69,0,0,1-.36,4.14,1.557,1.557,0,0,1-1.62,1.188,4.538,4.538,0,0,1-1.008-.144,4.643,4.643,0,0,0-1.26-.252,1.959,1.959,0,0,0-1.908,1.98A2.03,2.03,0,0,0,93.6-8.784a8.437,8.437,0,0,0,3.78.72c3.24,0,4.428-1.98,4.824-4.9.216-1.584.324-3.132.432-4.716l3.888-.144c1.332-.072,2.808-.468,2.808-2.052,0-1.512-1.044-2.016-2.376-2.016h-.54l-3.672.144c.036-1.368.036-2.736.036-4.068,0-1.512-.036-3.2-2.016-3.2A1.747,1.747,0,0,0,98.856-27.5c-.108,1.512-.144,4-.144,5.9l-10.044.4.072-4.14c.036-1.476-.252-2.916-2.052-2.916-1.872,0-2.16,1.332-2.16,2.88v4.32l-3.888.144c-1.368.036-2.808.432-2.808,2.124,0,1.764,1.548,2.052,2.952,1.98l3.744-.144v10.44c0,2.124.216,4.1,2.088,5.4C88.524.216,91.908.612,97.02.612a53.345,53.345,0,0,0,7.308-.5c1.116-.288,2.124-.864,2.124-2.16A2.034,2.034,0,0,0,104.22-4.1a7.871,7.871,0,0,0-1.3.108,72.218,72.218,0,0,1-8.352.5,16.363,16.363,0,0,1-4-.36c-1.656-.432-2.088-1.4-2.088-3.024v-6.372Zm28.728,2.664c0,4.032.828,8.424,3.2,11.772A6.2,6.2,0,0,0,125.424.252a6.352,6.352,0,0,0,4.356-2.088c.936-.936,1.98-2.268,1.98-3.456a1.859,1.859,0,0,0-1.872-1.872,1.661,1.661,0,0,0-1.4.72c-.936,1.3-1.8,2.3-2.952,2.3a1.735,1.735,0,0,1-1.3-.5c-2.412-2.3-3.024-6.012-3.024-9.216a27.882,27.882,0,0,1,1.62-9.108,8.2,8.2,0,0,0,.612-2.412,2.067,2.067,0,0,0-2.124-2.052,2.19,2.19,0,0,0-1.908,1.26,7.028,7.028,0,0,0-.648,1.908A37.756,37.756,0,0,0,117.288-14.436ZM141.264-9.18c0,1.008-.108,2.016-.108,3.06,0,1.26.432,2.232,1.836,2.232,2.52,0,2.556-2.808,2.556-4.644a21.127,21.127,0,0,0-4.14-13c-1.368-1.764-2.664-2.772-3.744-2.772a2.086,2.086,0,0,0-1.98,2.052,3.339,3.339,0,0,0,1.3,2.232A15.386,15.386,0,0,1,141.264-9.18Z" transform="translate(0 32)" fill="#fff"/>
    <g id="グループ_3" data-name="グループ 3" transform="translate(172.084 11.564)">
      <line id="線_1" data-name="線 1" x2="13.408" y2="13.408" fill="none" stroke="#fff" stroke-linecap="round" stroke-width="2"/>
      <line id="線_2" data-name="線 2" x1="13.408" y2="13.408" fill="none" stroke="#fff" stroke-linecap="round" stroke-width="2"/>
    </g>
    <path id="パス_825" data-name="パス 825" d="M27.9-23.828c1.628,0,3-.074,3-2.072,0-1.961-1.443-2.072-3-2.072H9.065c-1.517,0-3,.111-3,2.072,0,2,1.48,2.072,3,2.072Zm3.737,9.25c1.591,0,2.405-.592,2.405-2.072,0-1.591-1.036-2.035-2.405-2.035H5.55c-1.85,0-2.368.925-2.368,2.035,0,1.3.592,2.072,2.627,2.072H17.2a12.405,12.405,0,0,1-1.961,7.03C13.579-5.18,10.952-3.959,8.177-3.256c-1.147.333-1.961.74-1.961,2.072A1.982,1.982,0,0,0,8.288.962,6.115,6.115,0,0,0,9.768.7a16.384,16.384,0,0,0,7.511-4.144c3.145-3.145,4.144-6.808,4.329-11.137Zm24.531-8.769a13.463,13.463,0,0,0,1.332-4,2.074,2.074,0,0,0-2.22-2.035c-1.221,0-1.7.851-2.109,1.85-2.035,5.254-4,9.065-8.732,12.321-.666.444-1.295.925-1.295,1.813a1.94,1.94,0,0,0,1.887,2.072c1.11,0,2.516-1,3.737-2.035a26.08,26.08,0,0,0,5.254-5.957H65.194c.814,0,1.258,0,1.258.888a14.893,14.893,0,0,1-1.776,5.55c-3.293,6.327-8.658,8.991-15.318,9.953-1.147.148-2.035.518-2.035,1.887A1.988,1.988,0,0,0,49.58,1.073,13.977,13.977,0,0,0,52.651.629a25.38,25.38,0,0,0,10.4-5,22.108,22.108,0,0,0,5.069-6.179,19.786,19.786,0,0,0,2.738-8.991c0-2.368-1.258-3.811-3.7-3.811Zm47.73-4.07a2.175,2.175,0,0,0-2.109-2.294c-1.665,0-1.887,1.11-2.368,3.774a31.71,31.71,0,0,1-5.513,12.95C90.724-8.658,86.58-6.031,81.955-3.441c-.851.481-1.665,1-1.665,2.072A2.054,2.054,0,0,0,82.325.851,4.405,4.405,0,0,0,84.138.37,36.518,36.518,0,0,0,95.571-8.325,32.893,32.893,0,0,0,101.935-19.2C102.786-21.534,103.9-24.975,103.9-27.417Zm19.869.444c-1.369,0-2.775.074-3.774,1.11a4.744,4.744,0,0,0-1.184,3.4v16.8a4.744,4.744,0,0,0,1.184,3.4,4.946,4.946,0,0,0,3.774,1.11h17.39a4.946,4.946,0,0,0,3.774-1.11,4.744,4.744,0,0,0,1.184-3.4v-16.8a4.744,4.744,0,0,0-1.184-3.4,4.946,4.946,0,0,0-3.774-1.11Zm-1,5.513c.037-1.3.185-1.554,1.517-1.554h16.169c1.258,0,1.517.3,1.517,1.554V-6.549c0,1.3-.222,1.554-1.517,1.554H124.283c-1.258,0-1.517-.3-1.517-1.554Zm62.123-9.805a.835.835,0,0,0,.3.592,17.05,17.05,0,0,1,2.553,3.293c.444.74.851,1.332,1.369,1.332a1.06,1.06,0,0,0,1.073-1.11c0-1.517-3.293-4.81-4.551-4.81A.711.711,0,0,0,184.889-31.265Zm-2.812,1.739c0,.3.148.518.592,1.073a14.32,14.32,0,0,1,1.369,1.961c1.147,2.109,1.406,2.368,2.035,2.368a1.073,1.073,0,0,0,1.036-1.184,5.4,5.4,0,0,0-1.369-2.664c-.962-1.221-1.813-2.22-2.7-2.22C182.632-30.192,182.077-30.007,182.077-29.526Zm-18.389.555a2.191,2.191,0,0,0-2.072,2.183,2.362,2.362,0,0,0,1.406,1.924,54.509,54.509,0,0,1,5.18,3.219c2.109,1.517,2.516,1.813,3.182,1.813A2.108,2.108,0,0,0,173.53-21.9a1.884,1.884,0,0,0-.555-1.3,19.47,19.47,0,0,0-2.923-2.294C168.35-26.677,164.946-28.971,163.688-28.971Zm4.81,14.1a1.661,1.661,0,0,0-.37-1,24.461,24.461,0,0,0-3.848-3.182c-1.406-1.036-4.033-3-5.328-3a2.181,2.181,0,0,0-2.109,2.22c0,.925.74,1.48,1.443,1.961,2.146,1.443,4.366,2.886,6.438,4.4a3.08,3.08,0,0,0,1.813.777A2.175,2.175,0,0,0,168.5-14.874Zm19.018-5.143a2.065,2.065,0,0,0-2.183-2.035c-1.073,0-1.665.851-2,1.776a27.394,27.394,0,0,1-8.251,11.655A22.713,22.713,0,0,1,161.246-3.7h-.185a2.952,2.952,0,0,0-2.035.555,2.1,2.1,0,0,0-.592,1.591A2.243,2.243,0,0,0,160.654.74a34.854,34.854,0,0,0,8.7-1.517,26.185,26.185,0,0,0,11.47-7.548,30.91,30.91,0,0,0,6.438-10.323A4.476,4.476,0,0,0,187.516-20.017Zm36.741,8.029c1.517,0,3-.111,3-2.072,0-2-1.48-2.109-3-2.109H197.543c-1.554,0-3,.111-3,2.109,0,1.961,1.443,2.072,3,2.072Z" transform="translate(204.147 32)" fill="#fff"/>
  </g>
</svg>
