<svg xmlns="http://www.w3.org/2000/svg" xmlns:xlink="http://www.w3.org/1999/xlink" width="290" height="56.45" viewBox="0 0 290 56.45">
  <defs>
    <clipPath id="clip-path">
      <rect id="長方形_13" data-name="長方形 13" width="289.406" height="8.855" transform="translate(0)" fill="none"/>
    </clipPath>
    <clipPath id="clip-path-2">
      <rect id="長方形_12" data-name="長方形 12" width="289.476" height="44.908" fill="none"/>
    </clipPath>
  </defs>
  <g id="グループ_55" data-name="グループ 55" transform="translate(-205.547 -181.423)">
    <g id="グループ_15" data-name="グループ 15" transform="translate(206.141 229.019)" opacity="0.9">
      <g id="グループ_14" data-name="グループ 14" transform="translate(0)" clip-path="url(#clip-path)">
        <path id="パス_144" data-name="パス 144" d="M32.719,1.818,33.462,2c-.013-.084-.2-.156-.743-.183" transform="translate(8.823 -0.019)" fill="#e1536f"/>
        <path id="パス_145" data-name="パス 145" d="M179.606,1.757c.058-.015.126-.023.177-.041-.126.015-.165.027-.177.041" transform="translate(50.146 -0.024)" fill="#e1536f"/>
        <path id="パス_146" data-name="パス 146" d="M55.325,7.7h-.04c-.061.019-.136.027-.192.046Z" transform="translate(15.118 0.273)" fill="#e1536f"/>
        <path id="パス_147" data-name="パス 147" d="M32.893,7.582c9.953.221,12.594,1.076,22.91.729,4.92.07,10.171-.127,14.981-.23,2.282-.666,6.316-.009,9.017-.568l1.048.377a7.5,7.5,0,0,1,2.959-.115l-.059.109c1.39-.286,2.959-.114,3.651-.258l-.059.11,1.69-.048-.291.156a39,39,0,0,1,7.127-.184L95.683,7.2c4.709.511,6.431-.437,10.681.17l-.058.11c5.371-1.205,8.491.821,14.029-.323-.691.143.3.235.24.346,2.55-.13,5.274-.2,5.314-1.1,1.858.012,1.513.28,1.755.627-.012-.394,1.6-.556,3.053-.58l-.668.151,4.158-.133-.816-.742c2.2.213.56.9,2.672.725l-.027-.615c3.048.122,4.837,1.053,7.789,1.507,12.269.262,25.451-1.306,36.866-.224l.5.463c.219.675,3.148-1,3.584-.375l1.328-.309c.373.121,1.16.25.5.4a5.678,5.678,0,0,0,2.142-.289l1.317.42c4.845.325,8.963-.485,14.06-.32,6.123.857,17.65.069,24.291-.389,9.335-1.009,20.191,1.68,29.748.526a1.851,1.851,0,0,0,1.11-.2l8.748.1s42.411.259,10.19-5.336l.215-.146c-4.787-.358-7.8-.437-11.1.3-.523-.907-3.934-.093-5.054-.387l.106-.073c-2.922.7-6.016-.58-8.831.045a.913.913,0,0,1,.818-.337c-2.051.115-4.856.317-5.01-.211-4.9.139-11.736-.106-14.875.737l.215-.147c-1.789.569-2.315.085-4.314.374-.109-.069-.251-.1-.228-.133-1.949.562-5.687.088-7.263.328l-.1-.351-3.88.082,1.451.075c-.5.965-2.936-.6-5.749.02-2.633-.121-5.341,2-8.076,1.533-1.3.45,1.149-.734-.8-.386-.063-.5.911-.316.409-.717-1.914.238-3.139-.513-5.5-.173l-.1-.393c-3.08.716-5.812-.515-7.862.168-3.176.323-2.131-1.163-5.438-.4l-1.286-.53c-1.416-.085-1.013.65-2.583.394.1-.334-1.983-.267-1.065-.584-3.552-.522-7.21.741-11.888-.142-1.016.65-3.371.263-4.13.751-.126-.282-4.719-.045-2.074-.659.227-.05.628-.041.6.069l.316-.385c-2.668-.726-4.849.4-7.488.288.782.128,1.823.094,1.128.359L156.3,1.138l.51-.324L153.158.625l.5.4c-1.789-.206-2.418-.889-4.435-.319-.912.318,1.694.541-.193.667-2.39-.273-5.972-.685-9.023-.805.284.451-.537.435-1.381.527l-.1-.393c-3.239.545-1.188-.862-4.4-.428L134.413,0l-.849.82c-2.9.777-1.563-.814-4.786.248,1.274-.067.6.864-.969.693l.4-.378a7.6,7.6,0,0,1-1.735.16c.516-.2.273-.55-1-.486l.856-.473-2.413.7c-1.863-.406-4.815.1-5.58-.43,0,0-4-.261-4.923.323.8-.363-1.4-.5-.775-.928a11.23,11.23,0,0,1-5.329.31L107.536.5C103,.058,99.775,1.117,95.7.574c.186.455-1.966.207-1.434.788-4.214.575-7.683-1.182-9.205.615-1.917.1-2.272-.422-3.262-.513l.457-.1c-3.592.147-4.633.165-7.3.123-1.331.175-1.54,1.01-3.926.808.771-.332-.2-.27-1.1-.27.57-.052.747-.174-.424-.4a2.272,2.272,0,0,1-.659.218c-.01-.026-.058-.046-.033-.082-1.49.118-1.23.22-.538.266-.035.051.023.117.237.208-1.547-.428-4.31.029-4.5-.541-4.48.132-7.682.721-11.409.943-.419-.294.452-.554,1.535-.668L51.5,2.085c.022-.422,1.518-.242,2.333-.326-3.15-.683-6.491.68-10.184.055l-.765.334-.22-.056c.012.177-.817.417-1.365.473-.521-.367.037-.847-1.791-.825-1.445-.354-4.107.178-6,.376,1.02.062.691.267.252.4-.915.013-1.44-.355-2.146-.2l-.088-.5c.36.468-2.387.5-2.725.708-.52-.367,1.418-.316,1.646-.593L24.953,2c-1.955.374.355.469-.58.9a24.144,24.144,0,0,1-5.392.145l.627.44a22.277,22.277,0,0,1-7.369-.155c-24.162,3.587-5.091,4.9-5.091,4.9,9.513.974,14.423-.309,25.746-.652" transform="translate(-0.381 -0.11)" fill="#e1536f"/>
      </g>
    </g>
    <g id="グループ_13" data-name="グループ 13" transform="translate(205.547 181.423)">
      <g id="グループ_12" data-name="グループ 12" clip-path="url(#clip-path-2)">
        <path id="パス_136" data-name="パス 136" d="M24.224,1.749V7.86h3.952v6.112H24.224v5.32c0,8.488-.452,11.714-7.906,11.714V24.894c1.807,0,1.807-1.132,1.807-6.451V13.972H9.486V33.156c0,4.245,1.186,4.7,6.494,4.7a27.448,27.448,0,0,0,9.656-1.472l1.186,6s-3.049,1.585-11.746,1.585c-8.47,0-11.688-1.981-11.688-10.809V13.972H0V7.86H3.388V4.805h6.1V7.86h8.64V1.749Z" transform="translate(0 -0.153)" fill="#fff"/>
        <path id="パス_137" data-name="パス 137" d="M63.738,42.494c-6.832,3.17-12.14,1.358-15.3-6.394-2.2-5.433-6.1-3.339-6.437-1.641l-1.751,9.507H34.038L41.66,1.749h6.211l-4.4,24.617c3.783-.566,8.3,1.471,10.446,7.074,1.581,4.13,3.388,5.49,8.132,3.169Z" transform="translate(-3.036 -0.153)" fill="#fff"/>
        <path id="パス_138" data-name="パス 138" d="M91.184,1.749V7.86h3.953v6.112H91.184v5.32c0,8.488-.452,11.714-7.906,11.714V24.894c1.808,0,1.808-1.132,1.808-6.451V13.972h-8.64V33.156c0,4.245,1.186,4.7,6.493,4.7A27.442,27.442,0,0,0,92.6,36.382l1.186,6s-3.049,1.585-11.745,1.585c-8.47,0-11.689-1.981-11.689-10.809V13.972H66.96V7.86h3.388V4.805h6.1V7.86h8.64V1.749Z" transform="translate(-5.973 -0.153)" fill="#fff"/>
        <path id="パス_139" data-name="パス 139" d="M109.905,31.314c0,5.491.466,6.717,4.9,6.717V44.34c-9.151,0-11.191-3.388-11.191-12.092V9.818h6.294Zm14.863-17.7c9.092,0,11.133,3.329,11.133,12.092V44.34h-6.294V26.582c0-5.491-.466-6.66-4.838-6.66Z" transform="translate(-9.243 -4.064)" fill="#fff"/>
        <path id="パス_140" data-name="パス 140" d="M173.047,28.372c0,11.136-7.377,16.066-13.572,16.066v-4.93c4.145,0,8.471-3.651,8.471-11.091,0-2.784-1.23-6.482-4.737-7.577-.911,10-5.465,13.419-9.336,13.419-3.551,0-6.831-1.186-7.7-5.2-1.594-7.439,5.375-13.51,14.756-13.51,8.79,0,12.114,7.805,12.114,12.826m-14.756-7.713c-8.652,1.323-9.29,8.992-5.237,8.992,2,0,4.554-2.237,5.237-8.992" transform="translate(-13.02 -1.356)" fill="#fff"/>
        <path id="パス_141" data-name="パス 141" d="M203.656,11.008v9.036h15.355v5.915H207.48c2.3,9.53,11.531,13.636,11.531,13.636l-2.568,5.313s-8.524-3.4-12.787-11.775V44.908h-5.9V33.133c-4.262,8.38-12.787,11.775-12.787,11.775L182.4,39.595s9.235-4.107,11.476-13.636H182.4V20.043h15.356V11.008H184.585V5.093h13.169V0h5.9V5.093h13.169v5.914Z" transform="translate(-16.272 0)" fill="#fff"/>
        <path id="パス_142" data-name="パス 142" d="M246.91,9.968V21.194h15.3v5.915h-11.2c2.732,8.707,11.2,12.486,11.2,12.486l-2.568,5.313s-8.47-3.395-12.733-11.72v11.72h-5.9V33.024c-4.263,8.489-12.842,11.884-12.842,11.884L225.6,39.6s8.525-3.779,11.2-12.486H225.6V21.194h15.411V9.968h-13.77V4.053h13.77V0h5.9V4.053H260.57V9.968Zm-10.874,2.519,1.312,6.188h-6.066l-1.312-6.188Zm20.492,6.188h-6.066l1.312-6.188h6.066Z" transform="translate(-20.125 0)" fill="#fff"/>
        <path id="パス_143" data-name="パス 143" d="M287.006,30.45c-.346,5.063-.658,7.283-1.523,10.232L283.026,39.5a34.581,34.581,0,0,0,1.488-9.469ZM283.13,25.6a10.824,10.824,0,0,0,1.487.068h.9c.761-1.109,1.383-2.011,1.833-2.669a39.872,39.872,0,0,0-4.152-5.2l1.454-2.393c.345.416.726.832,1.107,1.284a23.189,23.189,0,0,0,2.734-6.035l2.873,1.214a12.524,12.524,0,0,0-.762,1.353,48.256,48.256,0,0,1-3.149,5.48c.691.867,1,1.283,1.453,1.942a34.129,34.129,0,0,0,3.288-6.07l2.733,1.423c-.277.381-.414.623-1.073,1.733-1.176,1.976-3.771,5.826-5.294,7.838,2.007-.1,2.8-.173,4.119-.347a27.956,27.956,0,0,0-1.108-2.844l2.041-.763a37.288,37.288,0,0,1,2.319,6.832l-2.18.868c-.174-.832-.243-1.145-.381-1.7-1.316.174-1.316.174-2.493.278V38.531a23.35,23.35,0,0,0,.209,4.127h-3.011a24.1,24.1,0,0,0,.208-4.127v-10.4l-1.35.1c-1.7.139-2.595.208-2.664.244a4.185,4.185,0,0,0-.831.138Zm15.815-1.353c-.035,1.421-.035,1.421-.069,2.012.831.069,1.523.069,3.079.069h9.067a25.958,25.958,0,0,0,3.356-.139,28.741,28.741,0,0,0-.139,3.469V39.4c0,2.116-.727,2.775-3.183,2.775h-.589a5.756,5.756,0,0,0-.518-2.635,9.1,9.1,0,0,0,.968.069c.658,0,.832-.14.832-.728V34.993h-2.215v3.5c0,1.8.035,2.567.1,3.4h-2.423c.069-.867.1-1.665.1-3.4v-3.5h-2.076v3.5c0,1.908.034,2.6.1,3.4h-2.422c.069-.867.1-1.595.1-3.4v-3.5H301.02v4.4a24.894,24.894,0,0,0,.139,3.191h-2.7A28.461,28.461,0,0,0,298.6,39.4V29.548c0-.763,0-1.145-.035-1.8a45.576,45.576,0,0,1-.692,6.277,32.057,32.057,0,0,1-2.734,8.115,7.122,7.122,0,0,0-2.319-2.219,17.612,17.612,0,0,0,1.765-3.746l-1.765.486a39.386,39.386,0,0,0-.968-6.312l2.006-.451a34.652,34.652,0,0,1,.969,5.549,34.322,34.322,0,0,0,1.246-7.387c.035-.693.173-7.664.173-8.705,0-1.213-.035-1.872-.1-2.7.761.07,1.661.1,3.15.1h11.142c1.592,0,2.388-.034,3.184-.1a27.481,27.481,0,0,0-.1,2.775V21.5c0,1.387.035,2.08.1,2.843-.519-.069-1.73-.1-2.941-.1ZM294.9,11.965a23.8,23.8,0,0,0,3.6.208h12.631a23.82,23.82,0,0,0,3.6-.208v3.052a20.628,20.628,0,0,0-3.356-.173H297.8a20.318,20.318,0,0,0-2.906.138Zm4.221,8.254c0,.346,0,.867-.035,1.525h11.559V19.214H299.117Zm3.911,8.671H301.02V32.5h2.007Zm4.291,0h-2.076V32.5h2.076Zm4.43,0h-2.215V32.5h2.215Z" transform="translate(-25.248 0.355)" fill="#fff"/>
      </g>
    </g>
  </g>
</svg>
