<svg xmlns="http://www.w3.org/2000/svg" xmlns:xlink="http://www.w3.org/1999/xlink" width="26" height="26" viewBox="0 0 26 26">
  <defs>
    <clipPath id="clip-path">
      <rect width="26" height="26">
    </clipPath>
  </defs>
  <g clip-path="url(#clip-path)">
    <path d="M16.194,22.816H4.789A4.8,4.8,0,0,1,0,18.027V6.622A4.8,4.8,0,0,1,4.789,1.833H9.579a1.368,1.368,0,0,1,0,2.737H4.789A2.055,2.055,0,0,0,2.737,6.622v11.4A2.055,2.055,0,0,0,4.789,20.08h11.4a2.055,2.055,0,0,0,2.053-2.053v-5.7a1.368,1.368,0,0,1,2.737,0v5.7a4.8,4.8,0,0,1-4.789,4.789" transform="translate(0 3.184)"/>
    <path d="M4.7,16.879a1.37,1.37,0,0,1-.966-2.337L17.875.4A1.369,1.369,0,1,1,19.81,2.338L5.671,16.476a1.366,1.366,0,0,1-.969.4" transform="translate(5.791 0)" />
    <path d="M17.394,14.6a1.369,1.369,0,0,1-1.368-1.368V2.737H5.535A1.368,1.368,0,1,1,5.535,0H17.394a1.369,1.369,0,0,1,1.368,1.368V13.227A1.369,1.369,0,0,1,17.394,14.6" transform="translate(7.237)"/>
  </g>
</svg>
