<svg id="グループ_54" data-name="グループ 54" xmlns="http://www.w3.org/2000/svg" xmlns:xlink="http://www.w3.org/1999/xlink" width="26.237" height="22" viewBox="0 0 26.237 22">
  <defs>
    <clipPath id="clip-path">
      <rect id="長方形_65" data-name="長方形 65" width="26.237" height="22" fill="none"/>
    </clipPath>
  </defs>
  <g id="グループ_53" data-name="グループ 53" clip-path="url(#clip-path)">
    <path id="パス_417" data-name="パス 417" d="M0,15.853v-.466c.17-.122.334-.253.511-.366q4.361-2.786,8.726-5.566c.2-.127.4-.373.671-.171a.83.83,0,0,1,.346.743c-.028.931.01,1.865-.019,2.8-.013.414.069.568.532.562,2.117-.028,4.234-.005,6.351-.017a4.693,4.693,0,0,0,1.7-.27,4.452,4.452,0,0,0,2.733-5.379,4.553,4.553,0,0,0-4.4-3.176q-7.167-.014-14.335,0c-.775,0-.964-.189-.966-.954q0-1.282,0-2.564C1.846.177,2.02,0,2.862,0H16.905A9.333,9.333,0,0,1,18.81.187a9.182,9.182,0,0,1,5.045,2.85,9.434,9.434,0,0,1,2.108,3.738c.1.341.053.722.274,1.031v2.216c-.034.041-.093.079-.1.123a8.92,8.92,0,0,1-9.091,7.726c-2.115-.057-4.234,0-6.35-.017-.352,0-.47.089-.462.452.023,1.009.019,2.02,0,3.03-.01.639-.366.837-.905.505-.776-.477-1.542-.97-2.308-1.463Q3.512,18.118,0,15.853" transform="translate(0 0.001)" fill="#0d3993"/>
  </g>
</svg>
