<svg xmlns="http://www.w3.org/2000/svg" xmlns:xlink="http://www.w3.org/1999/xlink" width="341.016" height="54.088" viewBox="0 0 341.016 54.088">
  <defs>
    <clipPath id="clip-path">
      <rect id="長方形_14" data-name="長方形 14" width="339.899" height="44.473" fill="none"/>
    </clipPath>
    <clipPath id="clip-path-2">
      <rect id="長方形_13" data-name="長方形 13" width="338.202" height="6.01" fill="none"/>
    </clipPath>
  </defs>
  <g id="せんせいっていいなへん" transform="translate(-146.071 -2334)">
    <g id="グループ_17" data-name="グループ 17" transform="translate(147.187 2334)">
      <g id="グループ_16" data-name="グループ 16" clip-path="url(#clip-path)">
        <path id="パス_148" data-name="パス 148" d="M25.015,0V6.3H29.1v6.3H25.015v5.485c0,8.752-.467,12.079-8.164,12.079v-6.3c1.866,0,1.866-1.167,1.866-6.652V12.6H9.8V32.386c0,4.377,1.225,4.844,6.706,4.844a28.4,28.4,0,0,0,9.972-1.517L27.7,41.9s-3.149,1.635-12.129,1.635c-8.747,0-12.07-2.042-12.07-11.146V12.6H0V6.3H3.5V3.151H9.8V6.3h8.922V0Z" transform="translate(0 0)" fill="#fff"/>
        <path id="パス_149" data-name="パス 149" d="M64.708,42.013c-7.055,3.269-12.536,1.4-15.8-6.593-2.274-5.6-6.3-3.443-6.647-1.692l-1.808,9.8H34.038L41.909,0h6.413L43.775,25.383c3.906-.584,8.571,1.517,10.787,7.294,1.633,4.259,3.5,5.661,8.4,3.268Z" transform="translate(-2.024 0)" fill="#fff"/>
        <path id="パス_150" data-name="パス 150" d="M91.975,0V6.3h4.082v6.3H91.975v5.485c0,8.752-.466,12.079-8.164,12.079v-6.3c1.867,0,1.867-1.167,1.867-6.652V12.6H76.757V32.386c0,4.377,1.225,4.844,6.705,4.844a28.39,28.39,0,0,0,9.972-1.517L94.658,41.9s-3.149,1.635-12.128,1.635c-8.747,0-12.071-2.042-12.071-11.146V12.6h-3.5V6.3h3.5V3.151h6.3V6.3h8.922V0Z" transform="translate(-3.982 0)" fill="#fff"/>
        <path id="パス_151" data-name="パス 151" d="M110.111,27.235c0,5.661.482,6.926,5.056,6.926v6.506c-9.45,0-11.556-3.494-11.556-12.468V5.069h6.5ZM125.46,8.984c9.389,0,11.5,3.433,11.5,12.468V40.667h-6.5V22.356c0-5.662-.482-6.867-5-6.867Z" transform="translate(-6.162 -0.298)" fill="#fff"/>
        <path id="パス_152" data-name="パス 152" d="M145.071,32.454c22.915-10.161,24.1,10.043,9.206,11.782l-.79-4.191c9.244-.87,9.363-11.782-7.032-3.519Z" transform="translate(-8.627 -1.741)" fill="#fff"/>
        <path id="パス_153" data-name="パス 153" d="M182.906,18.181l.2,4.27c-9.877,11.665-7.98,16.646-1.264,19.256l-1.9,3.835c-8.574-3.044-11.538-11.109-2.569-22.813l-10.391.435-.2-4.269Z" transform="translate(-9.919 -1.069)" fill="#fff"/>
        <path id="パス_154" data-name="パス 154" d="M198.53,27.053c0,5.485.467,6.711,4.9,6.711v6.3c-9.154,0-11.2-3.384-11.2-12.079V5.58h6.3ZM213.4,9.373c9.1,0,11.137,3.325,11.137,12.079V40.065h-6.3V22.327c0-5.485-.467-6.653-4.84-6.653Z" transform="translate(-11.432 -0.328)" fill="#fff"/>
        <path id="パス_155" data-name="パス 155" d="M238.211,27.053c0,5.485.467,6.711,4.9,6.711v6.3c-9.154,0-11.2-3.384-11.2-12.079V5.58h6.3Zm14.87-17.68c9.1,0,11.137,3.325,11.137,12.079V40.065h-6.3V22.327c0-5.485-.467-6.653-4.84-6.653Z" transform="translate(-13.792 -0.328)" fill="#fff"/>
        <path id="パス_156" data-name="パス 156" d="M280.35,25.5h-6.3L275.16,9.454h-4.372v-6.3h4.782L275.8,0h6.3l-.233,3.151h13.47v6.3H281.459Zm14.986-12.312V27.835h5.83v6.3h-5.83c0,3.443-.641,9.394-7.871,9.394-5.773,0-7.814-3.851-7.814-7.353,0-3.676,2.507-8.344,9.387-8.344V13.188Zm-6.006,20.657c-2.507,0-3.615.642-3.615,1.983a1.589,1.589,0,0,0,1.75,1.635c1.748,0,1.865-1.4,1.865-3.618m9.621-27.66h6.3v14h-6.3Z" transform="translate(-16.104 -0.001)" fill="#fff"/>
        <path id="パス_157" data-name="パス 157" d="M330.7,32.319c-.357,5.222-.679,7.51-1.573,10.55l-2.537-1.216a35.675,35.675,0,0,0,1.537-9.762Zm-4-5.006a11.06,11.06,0,0,0,1.537.072h.929c.786-1.145,1.43-2.074,1.894-2.753a41.2,41.2,0,0,0-4.289-5.364l1.5-2.468c.357.429.75.858,1.144,1.323a23.958,23.958,0,0,0,2.823-6.223l2.965,1.253a12.959,12.959,0,0,0-.786,1.394,49.594,49.594,0,0,1-3.251,5.65c.715.894,1.036,1.323,1.5,2a35.219,35.219,0,0,0,3.394-6.259l2.822,1.467c-.285.392-.428.644-1.108,1.787-1.214,2.038-3.894,6.008-5.466,8.082,2.072-.107,2.894-.179,4.252-.358a28.858,28.858,0,0,0-1.143-2.933l2.108-.787a38.388,38.388,0,0,1,2.395,7.046l-2.252.894c-.179-.858-.25-1.18-.393-1.753-1.358.179-1.358.179-2.573.285V40.651a24.155,24.155,0,0,0,.214,4.255h-3.108a24.935,24.935,0,0,0,.213-4.255V29.923l-1.393.106c-1.75.143-2.681.216-2.752.251a4.317,4.317,0,0,0-.857.142Zm16.331-1.395c-.036,1.466-.036,1.466-.072,2.074.858.072,1.573.072,3.18.072H355.5a26.859,26.859,0,0,0,3.467-.143,29.389,29.389,0,0,0-.144,3.577V41.546c0,2.181-.75,2.861-3.287,2.861h-.608a5.927,5.927,0,0,0-.536-2.718,9.412,9.412,0,0,0,1,.072c.679,0,.858-.143.858-.751V37H353.96v3.612c0,1.86.036,2.647.108,3.5h-2.5c.071-.893.107-1.716.107-3.5V37h-2.144v3.612c0,1.967.036,2.682.107,3.5h-2.5c.072-.893.107-1.644.107-3.5V37H345.17v4.542a25.883,25.883,0,0,0,.143,3.291h-2.788a29.312,29.312,0,0,0,.144-3.291V31.389c0-.786,0-1.179-.037-1.859A46.616,46.616,0,0,1,341.918,36,33.02,33.02,0,0,1,339.1,44.37a7.368,7.368,0,0,0-2.395-2.288,18.093,18.093,0,0,0,1.822-3.863l-1.822.5a40.532,40.532,0,0,0-1-6.51l2.072-.465a35.731,35.731,0,0,1,1,5.722,35.286,35.286,0,0,0,1.286-7.616c.036-.715.18-7.9.18-8.976,0-1.252-.037-1.931-.108-2.789.786.072,1.717.106,3.252.106h11.506c1.644,0,2.466-.035,3.288-.106a28.277,28.277,0,0,0-.107,2.86v2.146c0,1.431.036,2.145.107,2.932-.537-.072-1.787-.107-3.038-.107Zm-4.181-12.659a24.616,24.616,0,0,0,3.716.215H355.6a24.646,24.646,0,0,0,3.717-.215v3.147a21.222,21.222,0,0,0-3.467-.179H341.847a21.027,21.027,0,0,0-3,.142ZM343.2,21.77c0,.358,0,.894-.036,1.574H355.1V20.732H343.2Zm4.039,8.941H345.17v3.719h2.073Zm4.431,0H349.53v3.719h2.143Zm4.574,0H353.96v3.719h2.287Z" transform="translate(-19.422 -0.7)" fill="#fff"/>
      </g>
    </g>
    <g id="グループ_18" data-name="グループ 18" transform="translate(146.071 2382.079)">
      <g id="グループ_14" data-name="グループ 14" transform="translate(0)" clip-path="url(#clip-path-2)">
        <path id="パス_144" data-name="パス 144" d="M32.719,1.818l.867.128c-.015-.059-.233-.109-.867-.128" transform="translate(15.974 -0.483)" fill="#e1536f"/>
        <path id="パス_145" data-name="パス 145" d="M179.606,1.745c.067-.01.146-.016.206-.029a.643.643,0,0,0-.206.029" transform="translate(88.634 -0.456)" fill="#e1536f"/>
        <path id="パス_146" data-name="パス 146" d="M55.364,7.7h-.046c-.072.013-.158.019-.224.032Z" transform="translate(27.042 -2.046)" fill="#e1536f"/>
        <path id="パス_147" data-name="パス 147" d="M38.37,5.3c11.611.155,14.691.753,26.725.51,5.74.049,11.865-.089,17.476-.161,2.662-.466,7.367-.007,10.518-.4l1.223.264a14.475,14.475,0,0,1,3.451-.081l-.069.076c1.622-.2,3.451-.08,4.258-.181l-.069.077,1.971-.034-.339.109a75.73,75.73,0,0,1,8.313-.128l-.214-.32c5.493.358,7.5-.305,12.46.119l-.067.077c6.266-.843,9.905.574,16.365-.226-.806.1.345.164.28.242,2.974-.091,6.152-.139,6.2-.767,2.167.008,1.765.2,2.048.438-.013-.275,1.871-.389,3.562-.406l-.779.106,4.85-.093-.952-.519c2.571.149.653.633,3.116.507l-.031-.43c3.556.085,5.642.736,9.086,1.054,14.311.184,29.689-.913,43-.156l.587.324c.256.472,3.672-.7,4.181-.262l1.548-.216c.435.084,1.353.175.581.281a10.775,10.775,0,0,0,2.5-.2l1.537.294c5.651.228,10.455-.339,16.4-.224,7.143.6,20.589.048,28.336-.272,10.889-.706,23.553,1.175,34.7.368a3.419,3.419,0,0,0,1.294-.138l10.2.067s49.472.181,11.887-3.732l.251-.1a69.6,69.6,0,0,0-12.95.213c-.61-.634-4.589-.065-5.895-.271l.124-.051c-3.408.488-7.017-.406-10.3.032a1.4,1.4,0,0,1,.954-.236c-2.393.081-5.665.222-5.844-.148-5.714.1-13.69-.074-17.352.515l.251-.1c-2.087.4-2.7.059-5.033.261-.127-.048-.293-.073-.266-.093-2.273.393-6.633.062-8.472.229l-.12-.245-4.526.057,1.692.052c-.586.675-3.424-.423-6.707.014-3.072-.084-6.23,1.4-9.421,1.072-1.522.315,1.341-.513-.934-.27-.073-.352,1.063-.221.477-.5-2.233.167-3.662-.359-6.417-.121l-.112-.275c-3.593.5-6.78-.361-9.171.117-3.705.226-2.486-.814-6.343-.278L216.9.769c-1.652-.059-1.182.455-3.013.275C214,.811,211.57.858,212.642.637c-4.143-.365-8.41.518-13.867-.1-1.185.455-3.933.184-4.817.525-.146-.2-5.5-.032-2.42-.461.264-.035.732-.029.7.048l.369-.269c-3.112-.508-5.656.28-8.735.2.912.09,2.127.066,1.315.251L182.327.8l.595-.227L178.659.437l.587.28C177.16.573,176.426.1,174.074.494c-1.064.222,1.976.378-.226.466C171.06.769,166.881.481,163.322.4c.332.316-.626.3-1.611.369L161.6.491c-3.779.381-1.386-.6-5.134-.3l.33-.192L155.8.573c-3.382.543-1.823-.569-5.583.173,1.486-.047.7.6-1.13.485l.463-.264a14.645,14.645,0,0,1-2.024.112c.6-.142.318-.385-1.17-.34l1-.331L144.543.9c-2.173-.284-5.617.072-6.509-.3,0,0-4.671-.183-5.742.226.939-.254-1.638-.351-.9-.649a21.572,21.572,0,0,1-6.216.217l.271-.035c-5.294-.313-9.053.428-13.8.048.217.318-2.293.145-1.673.551-4.916.4-8.962-.827-10.738.43a20.094,20.094,0,0,1-3.805-.359l.534-.067c-4.19.1-5.4.115-8.518.086-1.553.123-1.8.706-4.58.565.9-.232-.238-.189-1.279-.189.665-.037.871-.122-.495-.278a3.984,3.984,0,0,1-.768.153c-.012-.018-.067-.032-.039-.057-1.738.082-1.435.154-.628.186-.04.036.027.082.277.145-1.8-.3-5.028.021-5.246-.378-5.225.093-8.961.5-13.309.659-.489-.206.528-.388,1.791-.467l-3.085.075c.025-.3,1.771-.17,2.722-.228-3.674-.478-7.572.476-11.88.038l-.892.233-.257-.039c.013.124-.954.291-1.592.331-.608-.257.043-.593-2.09-.577a44.631,44.631,0,0,0-7,.263c1.19.043.806.186.294.277a23.547,23.547,0,0,0-2.5-.137l-.1-.348c.42.327-2.785.353-3.179.495-.607-.257,1.655-.221,1.921-.415L29.107,1.4c-2.281.261.414.328-.677.632a46.839,46.839,0,0,1-6.29.1l.731.308a43.115,43.115,0,0,1-8.6-.109C-13.909,4.841,8.337,5.759,8.337,5.759c11.1.681,16.824-.216,30.032-.456" transform="translate(-0.211 0)" fill="#e1536f"/>
      </g>
    </g>
  </g>
</svg>
