<svg xmlns="http://www.w3.org/2000/svg" xmlns:xlink="http://www.w3.org/1999/xlink" width="303" height="445" viewBox="0 0 303 445">
  <defs>
    <clipPath id="clip-path">
      <rect id="長方形_616" data-name="長方形 616" width="445" height="303" transform="translate(0 0)" fill="#171717"/>
    </clipPath>
  </defs>
  <g id="背景ロゴ" opacity="0.25" style="mix-blend-mode: exclusion;isolation: isolate">
    <g id="グループ_22" data-name="グループ 22" transform="translate(303) rotate(90)" clip-path="url(#clip-path)">
      <path id="パス_34" data-name="パス 34" d="M364.894,204.51c34.952,0,63.39-27.808,63.39-61.989,0-36.176-27.845-64.513-63.39-64.513a71.171,71.171,0,0,0-19.813,3.137,57.232,57.232,0,0,0-7.506,2.887c15.693-27.493,36.92-55.809,49.186-68.774l2.065-2.185L376.625,0l-2.306,2.607c-3,3.4-73.571,83.78-73.571,139.915,0,34.181,28.775,61.989,64.146,61.989m0-17.986c-25.232,0-45.758-19.739-45.758-44,0-27.251,19.032-47.03,45.255-47.03,13.144,0,24.5,4.886,32.845,14.128a48.828,48.828,0,0,1,12.161,32.9,44.068,44.068,0,0,1-12.218,30.747c-8.221,8.548-19.687,13.256-32.284,13.256" transform="translate(17.126 -0.192)" fill="#171717"/>
      <rect id="長方形_615" data-name="長方形 615" width="110.478" height="15.54" transform="translate(0.001 287.46)" fill="#171717"/>
      <path id="パス_35" data-name="パス 35" d="M110.476,249.5V177.379H95.607V233.96H61.362V185.734H46.493V233.96H14.868V177.38H0V249.5Z" transform="translate(0 10.987)" fill="#171717"/>
      <path id="パス_36" data-name="パス 36" d="M14.868,133.01h95.61V117.47H14.868V84.63H0v81.216H14.868Z" transform="translate(0 5.142)" fill="#171717"/>
      <path id="パス_37" data-name="パス 37" d="M62.677,8.878H47.8V57.1H14.868V.522H0V72.645H110.481V57.1h-47.8Z" transform="translate(0 -0.159)" fill="#171717"/>
      <path id="パス_38" data-name="パス 38" d="M146.545,27.217V203.451h17.883V.4L111.335,25.781l6.053,15.856Z" transform="translate(6.34 -0.167)" fill="#171717"/>
      <path id="パス_39" data-name="パス 39" d="M238.9,27.218V203.45l17.891-.005V.391l-52.659,25.18-.442.21,6.053,15.856Z" transform="translate(11.599 -0.167)" fill="#171717"/>
      <path id="パス_40" data-name="パス 40" d="M131.327,223.168l-7.735-12.68h-7.641l11.836,18.86v12.778h6.759V229.35l12.044-18.862h-7.568Z" transform="translate(6.603 13.074)" fill="#171717"/>
      <path id="パス_41" data-name="パス 41" d="M167.907,209.843c-9.5,0-17.234,7.412-17.234,16.525,0,9.089,7.73,16.484,17.234,16.484,9.275,0,17.112-7.493,17.112-16.363,0-9.334-7.517-16.646-17.112-16.646m0,6.233a10.3,10.3,0,0,1-.282,20.584c-5.237,0-9.832-4.885-9.832-10.454a10.133,10.133,0,0,1,10.114-10.131" transform="translate(8.58 13.033)" fill="#171717"/>
      <path id="パス_42" data-name="パス 42" d="M220.756,210.488h-8.887l-10.2,10.979V210.488H194.9v31.638h6.76V231.078l12.158,11.048h9.988L205.6,225.858Z" transform="translate(11.099 13.074)" fill="#171717"/>
      <path id="パス_43" data-name="パス 43" d="M243.868,209.843c-9.5,0-17.235,7.412-17.235,16.525,0,9.089,7.732,16.484,17.235,16.484,9.276,0,17.113-7.493,17.113-16.363,0-9.334-7.517-16.646-17.113-16.646m0,6.233a10.3,10.3,0,0,1-.281,20.584c-5.238,0-9.832-4.885-9.832-10.454a10.133,10.133,0,0,1,10.113-10.131" transform="translate(12.905 13.033)" fill="#171717"/>
      <path id="パス_44" data-name="パス 44" d="M290.343,222.847H277.626V210.488h-6.759v31.638h6.759V229.12h12.717v13.006h6.76V210.488h-6.76Z" transform="translate(15.424 13.074)" fill="#171717"/>
      <path id="パス_45" data-name="パス 45" d="M305.023,242.244h7.535l2.651-5.615h13.106l2.649,5.615h7.576l-16.758-33.625Zm20.5-11.484h-7.484l3.71-7.923Z" transform="translate(17.369 12.956)" fill="#171717"/>
      <path id="パス_46" data-name="パス 46" d="M363.264,231.456l-14.228-22.661-4.406,33.438h7.227l1.381-14.281,9.986,15.96,10.03-16.124,1.458,14.444H381.9l-4.45-33.4Z" transform="translate(19.625 12.967)" fill="#171717"/>
      <path id="パス_47" data-name="パス 47" d="M387.786,242.244h7.535l2.651-5.615h13.106l2.65,5.615H421.3l-16.758-33.625Zm20.5-11.484H400.8l3.709-7.923Z" transform="translate(22.082 12.956)" fill="#171717"/>
      <path id="パス_48" data-name="パス 48" d="M119.436,285.192v-2.3c4.469-2.232,12.175-8.865,12.175-14.765a3.77,3.77,0,0,0-3.678-4.017,6.865,6.865,0,0,0-5.01,2.615l-1.9-2.552a10.44,10.44,0,0,1,7.26-3.316,7.138,7.138,0,0,1,7.421,7.27c0,5.262-5.71,10.876-9.736,13.937l10.558-.192v3.317Z" transform="translate(6.801 16.248)" fill="#171717"/>
      <path id="パス_49" data-name="パス 49" d="M144.135,280.413a8.348,8.348,0,0,0,5.168,1.882,4.741,4.741,0,0,0,5.136-4.911c0-2.456-1.459-4.847-5.549-4.847a13.829,13.829,0,0,0-4.281.766l3.171-11.992h10.21l-.983,3.222h-6.5l-1.49,5.42a9.789,9.789,0,0,1,1.554-.127c4.471,0,8.054,3.061,8.054,7.717,0,4.05-2.727,8.132-8.624,8.132a13.52,13.52,0,0,1-7.166-2.073Z" transform="translate(8.134 16.276)" fill="#171717"/>
      <path id="パス_50" data-name="パス 50" d="M166.115,274.056l.412-3.124h9l-.411,3.124Z" transform="translate(9.459 16.883)" fill="#171717"/>
      <path id="パス_51" data-name="パス 51" d="M184.2,280.313a7.759,7.759,0,0,0,5.358,2.137c3.171,0,4.661-2.1,4.661-4.24,0-2.744-2.5-5.072-6.087-5.072-.412,0-.507.032-.73.032v-2.3a5.357,5.357,0,0,0,.7.032c3.044,0,5.073-1.818,5.073-3.921,0-1.595-1.172-2.743-3.233-2.743a7.86,7.86,0,0,0-3.932,1.148l-1.173-2.775a10.79,10.79,0,0,1,5.676-1.754c4.059,0,6.531,2.965,6.531,5.9a5.712,5.712,0,0,1-3.425,5.1v.031a7.228,7.228,0,0,1,4.407,6.7c0,3.763-3.139,7.112-8.433,7.112a9.889,9.889,0,0,1-7.039-2.615Z" transform="translate(10.395 16.248)" fill="#171717"/>
      <path id="パス_52" data-name="パス 52" d="M209.321,285.337V265.565l-3.742,1.69-1.394-3,9.068-3.667v24.746Z" transform="translate(11.627 16.231)" fill="#171717"/>
      <path id="パス_53" data-name="パス 53" d="M257.725,285.219l-1.2-12.023a3.834,3.834,0,0,1,0-1.338,9.1,9.1,0,0,1-.7,1.306l-7.831,12.979-7.832-12.979a9.1,9.1,0,0,1-.7-1.306,3.783,3.783,0,0,1,0,1.338l-1.2,12.023h-4.344l3.139-24.778,10.526,17.475a2.4,2.4,0,0,1,.382.925h.032a2.058,2.058,0,0,1,.412-.925l10.527-17.475,3.138,24.778Z" transform="translate(13.32 16.222)" fill="#171717"/>
      <path id="パス_54" data-name="パス 54" d="M286.442,285.241l-2.189-4.72H273.124l-2.156,4.72h-4.534l12.3-25.129,12.239,25.129Zm-7.325-15.913a4.624,4.624,0,0,1-.413-1.148,7.957,7.957,0,0,1-.475,1.148l-3.425,7.494h7.769Z" transform="translate(15.172 16.201)" fill="#171717"/>
      <path id="パス_55" data-name="パス 55" d="M309.485,285.181l-8.149-8.928H300.7v8.928h-4.058V261.042h5.073c4.438,0,10.178,1.148,10.178,7.461a7.494,7.494,0,0,1-6.279,7.144l9.481,9.534Zm-7.2-12.468c3.583,0,5.358-1.85,5.358-3.986,0-2.583-1.616-3.954-5.072-3.954H300.7v7.941Z" transform="translate(16.892 16.259)" fill="#171717"/>
      <path id="パス_56" data-name="パス 56" d="M330.753,285.192v-2.3c4.47-2.232,12.176-8.865,12.176-14.765a3.77,3.77,0,0,0-3.678-4.017,6.865,6.865,0,0,0-5.01,2.615l-1.9-2.552a10.445,10.445,0,0,1,7.261-3.316,7.137,7.137,0,0,1,7.42,7.27c0,5.262-5.709,10.876-9.734,13.937l10.558-.192v3.317Z" transform="translate(18.834 16.248)" fill="#171717"/>
      <path id="パス_57" data-name="パス 57" d="M355.112,273.266c0-5.007,1.269-12.4,8.783-12.4,7.578,0,8.91,7.047,8.91,12.4,0,5.262-1.4,12.437-8.878,12.437-7.514,0-8.815-7.3-8.815-12.437m13.666,0c0-3.285-.539-9.152-4.883-9.152-4.249,0-4.787,5.676-4.787,9.152,0,3.03.571,9.152,4.819,9.152,4.439,0,4.851-6.122,4.851-9.152" transform="translate(20.221 16.248)" fill="#171717"/>
      <path id="パス_58" data-name="パス 58" d="M379.442,285.192v-2.3c4.47-2.232,12.176-8.865,12.176-14.765a3.77,3.77,0,0,0-3.678-4.017,6.866,6.866,0,0,0-5.01,2.615l-1.9-2.552a10.445,10.445,0,0,1,7.261-3.316,7.137,7.137,0,0,1,7.42,7.27c0,5.262-5.708,10.876-9.734,13.937l10.558-.192v3.317Z" transform="translate(21.607 16.248)" fill="#171717"/>
      <path id="パス_59" data-name="パス 59" d="M404.341,280.313a7.759,7.759,0,0,0,5.358,2.137c3.171,0,4.661-2.1,4.661-4.24,0-2.744-2.5-5.072-6.087-5.072-.412,0-.507.032-.73.032v-2.3a5.357,5.357,0,0,0,.7.032c3.044,0,5.073-1.818,5.073-3.921,0-1.595-1.172-2.743-3.233-2.743a7.86,7.86,0,0,0-3.932,1.148l-1.173-2.775a10.791,10.791,0,0,1,5.676-1.754c4.059,0,6.531,2.965,6.531,5.9a5.712,5.712,0,0,1-3.425,5.1v.031a7.228,7.228,0,0,1,4.407,6.7c0,3.763-3.139,7.112-8.433,7.112a9.889,9.889,0,0,1-7.039-2.615Z" transform="translate(22.931 16.248)" fill="#171717"/>
    </g>
  </g>
</svg>
