<svg id="scroll_down" data-name="scroll down" xmlns="http://www.w3.org/2000/svg" width="8.25" height="203" viewBox="0 0 8.25 203">
  <line id="線_69" data-name="線 69" y2="80" transform="translate(4.37 122)" fill="none" stroke="#fff" stroke-linecap="round" stroke-width="2"/>
  <path id="パス_60" data-name="パス 60" d="M-50.245-.9A3.827,3.827,0,0,0-47.715.17C-45.995.17-45-.88-45-2.02c0-2.67-3.41-2.32-3.41-3.75,0-.58.57-.83,1.12-.83a2.042,2.042,0,0,1,1.42.66l.62-.95a2.931,2.931,0,0,0-2.05-.85,2.21,2.21,0,0,0-2.45,2.03c0,1.18.96,1.7,1.93,2.2.76.39,1.46.64,1.46,1.51,0,.62-.46,1.01-1.26,1.01a2.856,2.856,0,0,1-1.94-.83Zm14.66-.77a3.071,3.071,0,0,1-2.02.69,2.805,2.805,0,0,1-2.9-2.85,2.643,2.643,0,0,1,2.7-2.75,2.986,2.986,0,0,1,2.08.8l.68-.89a3.755,3.755,0,0,0-2.76-1.07,3.938,3.938,0,0,0-4.06,3.94,4.023,4.023,0,0,0,4.2,3.97,3.734,3.734,0,0,0,2.67-1.01ZM-25.695,0l-2.99-2.99A2.354,2.354,0,0,0-26.7-5.23c0-1.98-1.81-2.34-3.21-2.34h-1.6V0h1.28V-2.8h.2l2.57,2.8Zm-4.54-3.91V-6.4h.59c1.09,0,1.6.43,1.6,1.24,0,.67-.56,1.25-1.69,1.25Zm15.11.16a3.988,3.988,0,0,0-4.1-3.99,4.047,4.047,0,0,0-4.13,3.96A4.045,4.045,0,0,0-19.225.17,4.052,4.052,0,0,0-15.125-3.75Zm-1.36-.01A2.768,2.768,0,0,1-19.3-.98a2.838,2.838,0,0,1-2.7-2.84,2.749,2.749,0,0,1,2.77-2.76A2.756,2.756,0,0,1-16.485-3.76ZM-7.1-.01V-1.17h-3.17v-6.4h-1.28V-.01Zm7.76,0V-1.17h-3.17v-6.4H-3.8V-.01ZM10.665,0c2.58,0,4.29-1.38,4.29-3.78,0-2.48-1.84-3.79-4.1-3.79H8.665V0Zm-.72-1.16V-6.41h1.04a2.48,2.48,0,0,1,2.61,2.6,2.47,2.47,0,0,1-2.76,2.65Zm16.42-2.59a3.988,3.988,0,0,0-4.1-3.99,4.047,4.047,0,0,0-4.13,3.96A4.045,4.045,0,0,0,22.265.17,4.052,4.052,0,0,0,26.365-3.75Zm-1.36-.01a2.768,2.768,0,0,1-2.81,2.78,2.838,2.838,0,0,1-2.7-2.84,2.749,2.749,0,0,1,2.77-2.76A2.756,2.756,0,0,1,25.005-3.76ZM36.7.37l2.97-7.94h-1.4l-1.68,4.63a1.228,1.228,0,0,0-.06.36,1.148,1.148,0,0,0-.07-.36l-2.18-4.94L32.1-2.94a1.047,1.047,0,0,0-.07.39,1.331,1.331,0,0,0-.06-.39l-1.72-4.63h-1.42L31.865.35l2.4-5.16ZM49.645.28l.01-7.85h-1.28L48.4-2.6l-5.62-5.18L42.765,0h1.28l-.02-4.79Z" transform="translate(0.37 62) rotate(90)" fill="#fff"/>
  <circle id="楕円形_2" data-name="楕円形 2" cx="3" cy="3" r="3" transform="translate(1.37)" fill="#0d92a3"/>
</svg>
