<svg xmlns="http://www.w3.org/2000/svg" width="634.55" height="79.204" viewBox="0 0 634.55 79.204">
  <path id="パス_790" data-name="パス 790" d="M45.276-66.64v10.584H30.282v-5.292H19.7v5.292h-5.88v10.584H19.7V-12.25c0,15.288,5.586,18.718,20.286,18.718,15.092,0,20.384-2.744,20.384-2.744L58.31-6.664S52.136-4.116,41.552-4.116c-9.212,0-11.27-.784-11.27-8.134V-45.472H45.276v7.742c0,9.212,0,11.172-3.136,11.172v10.584c12.936,0,13.72-5.586,13.72-20.286v-9.212h6.86V-56.056H55.86V-66.64ZM120.148-6.272c-8.232,4.018-11.368,1.666-14.112-5.488-3.724-9.7-11.564-13.23-18.13-12.25L95.55-66.64H84.77L71.54,6.468H82.32L85.358-10c.588-2.94,7.35-6.566,11.172,2.842,5.488,13.426,14.7,16.562,26.558,11.074ZM158.956-66.64v10.584H143.962v-5.292H133.378v5.292H127.5v10.584h5.88V-12.25c0,15.288,5.586,18.718,20.286,18.718,15.092,0,20.384-2.744,20.384-2.744L171.99-6.664s-6.174,2.548-16.758,2.548c-9.212,0-11.27-.784-11.27-8.134V-45.472h14.994v7.742c0,9.212,0,11.172-3.136,11.172v10.584c12.936,0,13.72-5.586,13.72-20.286v-9.212h6.86V-56.056h-6.86V-66.64Zm34.692,8.82H183.064v37.632C183.064-5.586,186.494.1,201.88.1V-10.486c-7.448,0-8.232-2.058-8.232-11.27Zm24.99,16.954c7.35,0,8.134,1.96,8.134,11.172V.1h10.584V-31.164c0-14.7-3.43-20.286-18.718-20.286ZM260.19-66.64v10.584H243.628v10.584H260.19v12.74H243.628v10.584h16.66C261.66,6.468,284.2,6.468,284.2,6.468l1.666-10.486s-13.622-.1-14.994-18.13h16.562V-32.732h-16.66v-12.74h16.66V-56.056h-16.66V-66.64Zm40.768,5.292V6.468h42.924V-61.348ZM311.542-4.116V-50.764H333.3V-4.116Zm80.948-68.6v12.544h6.076V-72.716Zm8.918,0v12.544h6.076V-72.716Zm-25.48,57.232c0,9.212,0,11.172-4.312,11.172V6.272c14.112,0,14.9-5.586,14.9-20.286V-45.57h16.954V-56.252H386.512V-66.836H375.928v10.584H358.974V-45.57h16.954ZM358.974-30.968c0,10-1.862,16.072-8.232,24.794l9.212,5.1c7.35-9.408,9.6-16.366,9.6-29.89ZM398.076-.98l10.29-2.156L402.78-30.968,392.392-28.91ZM420.42-53.41v19.5H431v-19.5Zm25.186,0H435.022v19.5h10.584ZM437.178,6.468c17.248-15.19,24.5-32.34,24.5-48.118H451.192c-.784,11.662-3.724,25.284-21.462,40.572Zm39.4,0h10.584V-30.184l19.7,5.1,2.646-10.29L487.158-41.16V-66.64H476.574Zm69.482-78.4v61.25c0,12.152,5.292,17.15,16.072,17.15h23.52V-4.116h-23.52c-3.626,0-5.488-1.47-5.488-6.566V-35.77l29.008-9.9v-11.27l-29.008,10v-24.99ZM528.71,6.468h10.584v-44.2h-3.332c4.018-7.938,6.076-17.444,6.076-28.518H531.454c0,14.6-4.214,26.656-11.466,31.556v14.5a44.573,44.573,0,0,0,8.722-7.252Zm73.892-78.4H590.058l.98,55.762h10.584Zm-11.564,78.4h10.584V-6.272H591.038ZM620.046-51.45c0-6.958,4.018-9.9,8.82-9.9,4.9,0,8.918,2.94,8.918,9.9,0,11.956-14.21,11.662-14.21,35.28h10.584c0-21.854,14.21-18.522,14.21-35.28,0-14.406-9.7-20.482-19.5-20.482-9.7,0-19.4,6.076-19.4,20.482v3.528h10.584ZM634.158,6.468V-6.272H623.574V6.468Z" transform="translate(-13.818 72.716)" fill="#fff"/>
</svg>
