<svg xmlns="http://www.w3.org/2000/svg" xmlns:xlink="http://www.w3.org/1999/xlink" width="51.692" height="191.594" viewBox="0 0 51.692 191.594">
  <defs>
    <filter id="パス_21" x="0" y="95.56" width="51.692" height="96.033" filterUnits="userSpaceOnUse">
      <feOffset input="SourceAlpha"/>
      <feGaussianBlur stdDeviation="5" result="blur"/>
      <feFlood flood-color="#fff" flood-opacity="0.635"/>
      <feComposite operator="in" in2="blur"/>
      <feComposite in="SourceGraphic"/>
    </filter>
    <filter id="線_57" x="10.993" y="14.893" width="32" height="101.135" filterUnits="userSpaceOnUse">
      <feOffset input="SourceAlpha"/>
      <feGaussianBlur stdDeviation="5" result="blur-2"/>
      <feFlood flood-color="#fff" flood-opacity="0.635"/>
      <feComposite operator="in" in2="blur-2"/>
      <feComposite in="SourceGraphic"/>
    </filter>
    <filter id="線_58" x="10.993" y="0" width="32" height="40.066" filterUnits="userSpaceOnUse">
      <feOffset input="SourceAlpha"/>
      <feGaussianBlur stdDeviation="5" result="blur-3"/>
      <feFlood flood-color="#fff" flood-opacity="0.635"/>
      <feComposite operator="in" in2="blur-3"/>
      <feComposite in="SourceGraphic"/>
    </filter>
  </defs>
  <g id="topへ" transform="translate(15 16)">
    <g transform="matrix(1, 0, 0, 1, -15, -16)" filter="url(#パス_21)">
      <path id="パス_21-2" data-name="パス 21" d="M2.291-20.706H19.343l-.667,3.132H12.093L8.439,0H4.814L8.468-17.574H1.653ZM26.361-8.671A6.584,6.584,0,0,0,27.84-4.118a5.349,5.349,0,0,0,4.2,1.653,5.822,5.822,0,0,0,3.146-.841,7.446,7.446,0,0,0,2.262-2.2,10.069,10.069,0,0,0,1.363-3.074,13.529,13.529,0,0,0,.45-3.451,6.805,6.805,0,0,0-1.406-4.553,5.124,5.124,0,0,0-4.132-1.653,6.082,6.082,0,0,0-3.234.841A7.328,7.328,0,0,0,28.2-15.2a10.334,10.334,0,0,0-1.377,3.074A13.131,13.131,0,0,0,26.361-8.671Zm-3.625.116a14.942,14.942,0,0,1,.972-5.641A11.5,11.5,0,0,1,26.26-18.14a10.242,10.242,0,0,1,3.567-2.305,11.24,11.24,0,0,1,4.017-.754,9.986,9.986,0,0,1,3.712.667,8.108,8.108,0,0,1,2.856,1.871,8.514,8.514,0,0,1,1.827,2.856,9.871,9.871,0,0,1,.653,3.654A15.541,15.541,0,0,1,41.963-6.5,11.366,11.366,0,0,1,39.5-2.566,9.848,9.848,0,0,1,35.989-.261a11.277,11.277,0,0,1-4.06.754,10.406,10.406,0,0,1-3.944-.7,8.133,8.133,0,0,1-2.871-1.914,8.24,8.24,0,0,1-1.769-2.871A10.239,10.239,0,0,1,22.736-8.555ZM52.9-20.706h8.323a9.539,9.539,0,0,1,2.726.333,5.949,5.949,0,0,1,1.827.87,4.008,4.008,0,0,1,1.117,1.218,5.386,5.386,0,0,1,.565,1.378,6.838,6.838,0,0,1,.2,1.363q.029.667.029,1.16,0,.029-.043.522a6.071,6.071,0,0,1-.261,1.2,7.919,7.919,0,0,1-.682,1.537,5.645,5.645,0,0,1-1.305,1.537A6.875,6.875,0,0,1,63.264-8.41a9.454,9.454,0,0,1-3.176.464H53.882L52.229,0H48.6Zm1.595,9.8h5.481a4.882,4.882,0,0,0,2.015-.363,3.228,3.228,0,0,0,1.247-.942,3.588,3.588,0,0,0,.638-1.291,5.468,5.468,0,0,0,.188-1.406,3.634,3.634,0,0,0-.13-.928,2.406,2.406,0,0,0-.493-.928,2.588,2.588,0,0,0-1.044-.71,4.831,4.831,0,0,0-1.783-.275h-4.7Z" transform="translate(15.49 108.91) rotate(90)"/>
    </g>
    <g transform="matrix(1, 0, 0, 1, -15, -16)" filter="url(#線_57)">
      <line id="線_57-2" data-name="線 57" y2="69.135" transform="translate(26.99 30.89)" fill="none" stroke="#000" stroke-linecap="round" stroke-width="2"/>
    </g>
    <g transform="matrix(1, 0, 0, 1, -15, -16)" filter="url(#線_58)">
      <line id="線_58-2" data-name="線 58" y2="8.066" transform="translate(26.99 16)" fill="none" stroke="#000" stroke-linecap="round" stroke-width="2"/>
    </g>
  </g>
</svg>
