<svg xmlns="http://www.w3.org/2000/svg" xmlns:xlink="http://www.w3.org/1999/xlink" width="42.539" height="114.128" viewBox="0 0 42.539 114.128">
  <defs>
    <filter id="パス_20" x="0" y="49.391" width="42.539" height="64.737" filterUnits="userSpaceOnUse">
      <feOffset input="SourceAlpha"/>
      <feGaussianBlur stdDeviation="5" result="blur"/>
      <feFlood flood-color="#fff" flood-opacity="0.635"/>
      <feComposite operator="in" in2="blur"/>
      <feComposite in="SourceGraphic"/>
    </filter>
    <filter id="線_57" x="5.734" y="9.5" width="32" height="62" filterUnits="userSpaceOnUse">
      <feOffset input="SourceAlpha"/>
      <feGaussianBlur stdDeviation="5" result="blur-2"/>
      <feFlood flood-color="#fff" flood-opacity="0.635"/>
      <feComposite operator="in" in2="blur-2"/>
      <feComposite in="SourceGraphic"/>
    </filter>
    <filter id="線_58" x="5.734" y="0" width="32" height="35.5" filterUnits="userSpaceOnUse">
      <feOffset input="SourceAlpha"/>
      <feGaussianBlur stdDeviation="5" result="blur-3"/>
      <feFlood flood-color="#fff" flood-opacity="0.635"/>
      <feComposite operator="in" in2="blur-3"/>
      <feComposite in="SourceGraphic"/>
    </filter>
  </defs>
  <g id="TOPへ" transform="translate(15 16)">
    <g transform="matrix(1, 0, 0, 1, -15, -16)" filter="url(#パス_20)">
      <path id="パス_20-2" data-name="パス 20" d="M5.563-10.4,4.281,0H2.492L3.773-10.4H.891l.2-1.664h7.43L8.32-10.4ZM23.747-6.266a6.712,6.712,0,0,1-1.094,3.742A5.889,5.889,0,0,1,20.388-.484a6.667,6.667,0,0,1-3.094.719,5.955,5.955,0,0,1-4.422-1.727,6.113,6.113,0,0,1-1.711-4.484,6.1,6.1,0,0,1,1.813-4.531,6.27,6.27,0,0,1,4.594-1.8,6.132,6.132,0,0,1,4.477,1.664A5.826,5.826,0,0,1,23.747-6.266Zm-1.8-.016a4.308,4.308,0,0,0-1.172-3.164,4.239,4.239,0,0,0-3.148-1.18A4.574,4.574,0,0,0,14.294-9.3a4.491,4.491,0,0,0-1.336,3.32A4.505,4.505,0,0,0,14.2-2.719a4.189,4.189,0,0,0,3.141,1.281A4.346,4.346,0,0,0,20.63-2.82,4.78,4.78,0,0,0,21.951-6.281Zm7.333-5.781h2.445a4.558,4.558,0,0,1,2.43.531,2.941,2.941,0,0,1,1.078,1.211,3.834,3.834,0,0,1,.391,1.7A3.739,3.739,0,0,1,34.9-6.344a3.943,3.943,0,0,1-3.4,1.461h-1.32L29.581,0H27.792ZM30.862-10.4l-.484,3.93h1.164a2.346,2.346,0,0,0,1.691-.566,2.164,2.164,0,0,0,.59-1.637q0-1.727-2.2-1.727Z" transform="translate(15.23 63.5) rotate(90)" fill="#fff"/>
    </g>
    <g transform="matrix(1, 0, 0, 1, -15, -16)" filter="url(#線_57)">
      <line id="線_57-2" data-name="線 57" y2="30" transform="translate(21.73 25.5)" fill="none" stroke="#fff" stroke-linecap="round" stroke-width="2"/>
    </g>
    <g transform="matrix(1, 0, 0, 1, -15, -16)" filter="url(#線_58)">
      <line id="線_58-2" data-name="線 58" y2="3.5" transform="translate(21.73 16)" fill="none" stroke="#fff" stroke-linecap="round" stroke-width="2"/>
    </g>
  </g>
</svg>
