<svg id="グループ_138" data-name="グループ 138" xmlns="http://www.w3.org/2000/svg" xmlns:xlink="http://www.w3.org/1999/xlink" width="419.678" height="86" viewBox="0 0 419.678 86">
  <defs>
    <clipPath id="clip-path">
      <rect id="長方形_120" data-name="長方形 120" width="419.678" height="86" fill="none"/>
    </clipPath>
  </defs>
  <g id="グループ_137" data-name="グループ 137" clip-path="url(#clip-path)">
    <path id="パス_802" data-name="パス 802" d="M39.63,21.073l21.6,10.274L56.3,41.517l-7.653-3.67a85.014,85.014,0,0,1,1.677,17.194c0,22.75-10.589,30.928-22.226,30.928-11.532,0-24.846-2.412-24.846-24.428,0-15.936,4.927-30.089,7.757-36.8H0V13.42H23.38V24.742s-8.807,16.775-8.807,36.8c0,10.589,5.766,13.105,13.524,13.105,6.6,0,10.9-7.863,10.9-19.605,0-15.307-4.3-23.8-4.3-23.8Z" fill="#fff"/>
    <path id="パス_803" data-name="パス 803" d="M117,34.073c-39.21,22.121-24.952,49.8,0,37.742l2.621,11.008C87.541,95.719,69.194,66.888,91,40.678L79.154,7.758H91.21l8.7,24.218a95.27,95.27,0,0,1,11.743-7.863Z" fill="#fff"/>
    <path id="パス_804" data-name="パス 804" d="M165.858,35.75h19.919V47.073H171.834c-13.315,13.839-16.25,27.887,5.975,27.573l.1,11.322c-30.3.21-34.7-19.605-20.863-38.9H139.858V35.75H150.97l14.154-16.669H147.406V7.758h32.6V19.081Z" fill="#fff"/>
    <path id="パス_805" data-name="パス 805" d="M264.094,62.589c0,8.387.734,12.057,6.71,12.057V85.968c-16.145,0-18.033-9.435-18.033-21.7V56.4c0-7.549-3.983-10.589-9.226-10.589-3.564,0-6.6,1.153-10.484,3.879V85.968H221.739V59.024c-2.1,1.783-4.4,3.88-6.919,6.186l-6.5-9.331c5.242-4.612,9.646-8.282,13.42-11.322V30.4h-10.9V19.081h10.9V7.758h11.322V19.081h7.654V30.4h-7.654v6.71a23.475,23.475,0,0,1,10.484-2.621c11.951,0,20.549,7.444,20.549,21.912Z" fill="#fff"/>
    <path id="パス_806" data-name="パス 806" d="M286.635,47.073V35.75h11.112L311.9,19.081H294.183V7.758h30.3V0h6.5V13.419h-4.193v5.662L312.635,35.75h19.919V47.073H318.611c-13.315,13.839-16.25,27.887,5.975,27.572l.105,11.323c-30.3.21-34.7-19.605-20.968-38.9ZM334.023,0h6.6V13.419h-6.6Z" fill="#fff"/>
    <path id="パス_807" data-name="パス 807" d="M412.968,62.589c0,8.387.734,12.057,6.71,12.057V85.968c-16.145,0-18.033-9.435-18.033-21.7V56.4c0-7.549-3.984-10.589-9.226-10.589-3.564,0-6.6,1.153-10.484,3.879V85.968H370.613V59.024c-2.1,1.783-4.4,3.88-6.919,6.186l-6.5-9.331c5.242-4.612,9.646-8.282,13.42-11.322V30.4h-10.9V19.081h10.9V7.758h11.322V19.081h7.654V30.4h-7.654v6.71a23.475,23.475,0,0,1,10.484-2.621c11.952,0,20.549,7.444,20.549,21.912Z" fill="#fff"/>
  </g>
</svg>
