<svg xmlns="http://www.w3.org/2000/svg" width="219.542" height="30.769" viewBox="0 0 219.542 30.769">
  <path id="パス_778" data-name="パス 778" d="M2.413-25.71a2.265,2.265,0,0,1,2.274-1.9,1.868,1.868,0,0,1,.51.046,22.829,22.829,0,0,1,3.666-1.276,15.651,15.651,0,0,1,3.9-.487,12.99,12.99,0,0,1,2.6.255,8.176,8.176,0,0,1,2.46.951v-.046a8.868,8.868,0,0,1,2.32,1.671A11.476,11.476,0,0,1,21.9-24.225a11.108,11.108,0,0,1,1.137,2.645,10.173,10.173,0,0,1,.394,2.785,8.977,8.977,0,0,1-1.485,5.012A12.254,12.254,0,0,1,18.169-10,11.372,11.372,0,0,1,12.9-8.354q-.557.046-1.137.07t-1.091.023q-.975,0-1.9-.07T7.008-8.493v3.852q0,2.088.046,3.759A2.205,2.205,0,0,1,6.288.882a2.489,2.489,0,0,1-1.555.557A2.3,2.3,0,0,1,3.272.9,2.327,2.327,0,0,1,2.46-.7V-9.514L2.367-9.56A2.5,2.5,0,0,1,.835-11.649a1.789,1.789,0,0,1,.371-1.067,2.134,2.134,0,0,1,1.207-.743ZM15.64-24.5a5.954,5.954,0,0,0-2.924-.743,10.157,10.157,0,0,0-2.947.441,17.387,17.387,0,0,0-2.761,1.091v11.092a16.862,16.862,0,0,0,3.481.371,12.507,12.507,0,0,0,3.6-.534,6.629,6.629,0,0,0,2.947-1.74,5.384,5.384,0,0,0,1.323-2.088,7.306,7.306,0,0,0,.394-2.367,6.844,6.844,0,0,0-.766-3.225A5.425,5.425,0,0,0,15.64-24.5ZM45.87-2.181a2.086,2.086,0,0,1,.116,1.323,1.887,1.887,0,0,1-.65,1.021,2.237,2.237,0,0,1-1.23.464A2.911,2.911,0,0,1,42.529.278q-.371-.371-.719-.766a5.878,5.878,0,0,1-.58-.766A8.734,8.734,0,0,1,38.1.348,13.712,13.712,0,0,1,34.918.7,11.524,11.524,0,0,1,32.482.441,7.135,7.135,0,0,1,30.091-.6a7.119,7.119,0,0,1-2.506-2.97,9.024,9.024,0,0,1-.743-3.62,11.591,11.591,0,0,1,.58-3.69,13.231,13.231,0,0,1,1.6-3.249,16.647,16.647,0,0,1,2.344-2.761,18.877,18.877,0,0,1,2.854-2.228,7.549,7.549,0,0,1,.9-.418,13.217,13.217,0,0,1,1.323-.441,12.215,12.215,0,0,1,1.531-.325,10.524,10.524,0,0,1,1.531-.116,8.793,8.793,0,0,1,2.576.348,2.574,2.574,0,0,1,1.648,1.694v2.32q0,.928-.023,1.555t-.023,1.044v.789q0,1.624.093,3.365t.325,3.411a4.661,4.661,0,0,0,.441,1.207,11.665,11.665,0,0,0,.719,1.253h-.046q.325.51.534.835T45.87-2.181Zm-6.265-3.3a19.808,19.808,0,0,1-.464-3.365q-.093-1.74-.093-3.457,0-1.207.046-2.181t.046-1.9a6.284,6.284,0,0,0-1.6.418q-.812.325-1.137.464a7.24,7.24,0,0,0-2.251,1.578A9.484,9.484,0,0,0,32.5-11.649a10.653,10.653,0,0,0-.951,2.622,6.766,6.766,0,0,0-.07,2.669A3.188,3.188,0,0,0,32.2-4.664a3.833,3.833,0,0,0,1.369,1.021,4.149,4.149,0,0,0,1.694.348,5.467,5.467,0,0,0,1.74-.278A21.924,21.924,0,0,0,39.605-5.476ZM70.161-1.531A2.152,2.152,0,0,1,69.4.186a2.43,2.43,0,0,1-1.508.557,2.434,2.434,0,0,1-1.508-.51,2.24,2.24,0,0,1-.812-1.578V-2.483q0-.627-.023-1.671T65.52-6.845v-4.293q0-.6.046-1.531a9.052,9.052,0,0,0-.093-1.833,4.2,4.2,0,0,0-.534-1.555,1.336,1.336,0,0,0-1.23-.65A5.237,5.237,0,0,0,61-15.918a7.878,7.878,0,0,0-2.39,2.32,6.586,6.586,0,0,0-.58,1.044,5.025,5.025,0,0,0-.3,1.415v4.664q0,2.3.046,4.664a2.186,2.186,0,0,1-.743,1.717A2.4,2.4,0,0,1,55.5.464a2.369,2.369,0,0,1-1.462-.51,2.24,2.24,0,0,1-.812-1.578V-9.978q0-2.042-.023-4.107t-.023-4.293a2.434,2.434,0,0,1,.859-1.485,2.318,2.318,0,0,1,1.415-.464,2.486,2.486,0,0,1,1.3.394,1.979,1.979,0,0,1,.882,1.183,12.006,12.006,0,0,1,2.877-1.462,9.523,9.523,0,0,1,3.156-.534,7.177,7.177,0,0,1,3.365.835A6.29,6.29,0,0,1,69.6-17.357a5.19,5.19,0,0,1,.6,1.764,12.811,12.811,0,0,1,.139,1.9q0,.975-.093,1.926t-.093,1.787Zm9.161-14.526a3.185,3.185,0,0,1-1.74-.743A1.747,1.747,0,0,1,77-18.1a1.983,1.983,0,0,1,.627-1.392,2.5,2.5,0,0,1,1.88-.65h2.135v-7.1A2.512,2.512,0,0,1,82.5-28.7a2.246,2.246,0,0,1,1.415-.487,2.434,2.434,0,0,1,1.392.441,2.226,2.226,0,0,1,.882,1.369v7.24h4.084a3,3,0,0,1,1.508.835A1.8,1.8,0,0,1,92.27-18.1q0,1.485-2.135,2.042H86.19v8.539q0,1.439.023,2.877t.023,2.877a2.007,2.007,0,0,1-.743,1.717A2.525,2.525,0,0,1,83.963.51,2.369,2.369,0,0,1,82.5,0a2.24,2.24,0,0,1-.812-1.578q0-1.764-.023-3.643t-.023-3.736v-7.1Zm27.261-4.177a7.017,7.017,0,0,1,3.457.835,8.13,8.13,0,0,1,2.552,2.2,9.83,9.83,0,0,1,1.578,3.109,12.043,12.043,0,0,1,.534,3.55,10.727,10.727,0,0,1-.093,1.462q-.093.673-.232,1.369a14.019,14.019,0,0,1-1.508,3.573,12.757,12.757,0,0,1-2.344,2.9A10.426,10.426,0,0,1,107.534.7a8.794,8.794,0,0,1-3.457.7,7.187,7.187,0,0,1-3.457-.835A8.492,8.492,0,0,1,98-1.6a9.954,9.954,0,0,1-1.648-2.97,9.93,9.93,0,0,1-.58-3.318,12.367,12.367,0,0,1,.859-4.525,13.958,13.958,0,0,1,2.32-3.945,11.761,11.761,0,0,1,3.434-2.808A8.694,8.694,0,0,1,106.583-20.234ZM100.6-10.256a9.374,9.374,0,0,0-.278,2.367,7.8,7.8,0,0,0,.371,2.436,4.44,4.44,0,0,0,1.23,1.926,3.263,3.263,0,0,0,2.3.789A4.05,4.05,0,0,0,106.7-3.55a7.629,7.629,0,0,0,1.856-2A10.1,10.1,0,0,0,109.738-8.1a8.589,8.589,0,0,0,.418-2.483,8.884,8.884,0,0,0-.232-2.019,5.928,5.928,0,0,0-.719-1.787,4.271,4.271,0,0,0-1.183-1.276,2.685,2.685,0,0,0-1.578-.487,4.014,4.014,0,0,0-2.088.58,7.376,7.376,0,0,0-1.74,1.439,8.362,8.362,0,0,0-1.276,1.9A10.111,10.111,0,0,0,100.6-10.256ZM133.843-19.4a2.273,2.273,0,0,1,1-.951,2.821,2.821,0,0,1,1.23-.3,2.213,2.213,0,0,1,1.555.627,2.143,2.143,0,0,1,.58,1.833q-.51,1.949-1.16,3.782t-1.3,3.69h.046l-.743,2.042-.789,2.088q-.6,1.717-1.207,3.388T131.8-.093a2.5,2.5,0,0,1-1.949.975,2.131,2.131,0,0,1-2.088-1.253q-1.624-4.362-3.388-8.655T120.57-17.4a2.833,2.833,0,0,1-.255-1.23,2.028,2.028,0,0,1,.3-1.021,2.007,2.007,0,0,1,.743-.7,2.083,2.083,0,0,1,1.021-.255,2.766,2.766,0,0,1,2.181,1.253q1.346,2.785,2.669,5.778t2.622,6.288q.139-.325.255-.673t.255-.812q.139-.464.348-1.114t.534-1.578q.7-1.949,1.346-3.9T133.843-19.4ZM150.012-1.624a2.186,2.186,0,0,1-.743,1.717,2.4,2.4,0,0,1-1.531.557,2.338,2.338,0,0,1-1.485-.51,2.281,2.281,0,0,1-.789-1.578l-.139-17.635a2.571,2.571,0,0,1,.835-1.462,2.218,2.218,0,0,1,1.439-.487,2.434,2.434,0,0,1,1.392.441,2.226,2.226,0,0,1,.882,1.369ZM145-26.453a2.5,2.5,0,0,1,.766-1.833,2.5,2.5,0,0,1,1.833-.766,2.555,2.555,0,0,1,1.88.766,2.5,2.5,0,0,1,.766,1.833,2.426,2.426,0,0,1-.766,1.81,2.6,2.6,0,0,1-1.88.743,2.541,2.541,0,0,1-1.833-.743A2.426,2.426,0,0,1,145-26.453ZM157.642-3.434a2.134,2.134,0,0,1-.023-2.251,2.088,2.088,0,0,1,1.833-.9,3.207,3.207,0,0,1,1.717.6,9.148,9.148,0,0,0,2.32,2.181,3.744,3.744,0,0,0,2.831.6,3.044,3.044,0,0,0,1.23-.534,2.551,2.551,0,0,0,.789-.9,2.456,2.456,0,0,0,.255-1.114,2.034,2.034,0,0,0-.325-1.114,3.946,3.946,0,0,0-.9-1.021,3.673,3.673,0,0,0-1.021-.557,7.242,7.242,0,0,0-1.021-.278,7.013,7.013,0,0,1-.9-.232q-.7-.186-1.392-.394a8.4,8.4,0,0,1-1.346-.534,6.919,6.919,0,0,1-1.253-.812,6.853,6.853,0,0,1-1.16-1.23,5.617,5.617,0,0,1-.789-1.508,4.672,4.672,0,0,1-.278-1.508,5.818,5.818,0,0,1,.371-2,7.544,7.544,0,0,1,1-1.88,6.762,6.762,0,0,1,1.485-1.485,5.09,5.09,0,0,1,1.833-.859,9.417,9.417,0,0,1,4.061-.139,12.011,12.011,0,0,1,3.782,1.3,3.633,3.633,0,0,1,.975.975,1.826,1.826,0,0,1,.325.975,1.726,1.726,0,0,1-.3,1,2.355,2.355,0,0,1-.789.719,2.2,2.2,0,0,1-1.114.278,2.819,2.819,0,0,1-1.323-.371,8.078,8.078,0,0,0-1.555-.534,6.147,6.147,0,0,0-1.972-.186,2.72,2.72,0,0,0-1.624.627,2.026,2.026,0,0,0-.51,1.856,3.128,3.128,0,0,0,.673.859,3.784,3.784,0,0,0,.882.58,6.952,6.952,0,0,0,1.044.394q.557.162,1.067.3a21.053,21.053,0,0,1,2.645.951,7.888,7.888,0,0,1,2.088,1.323,5.451,5.451,0,0,1,1.369,1.9,6.7,6.7,0,0,1,.487,2.692,5.662,5.662,0,0,1-.557,2.436,7.7,7.7,0,0,1-1.462,2.112A7.239,7.239,0,0,1,169.012.371a5.322,5.322,0,0,1-2.32.557,11.734,11.734,0,0,1-5.059-1.16,10.1,10.1,0,0,1-3.945-3.2Zm34.222-1.81a1.975,1.975,0,0,1,.835-.51,3.216,3.216,0,0,1,.928-.139,2.12,2.12,0,0,1,1.531.58,1.838,1.838,0,0,1,.6,1.369,2.571,2.571,0,0,1-.7,1.624,8.163,8.163,0,0,1-3.017,2.135,9.424,9.424,0,0,1-3.573.7,8.99,8.99,0,0,1-2.39-.325,8,8,0,0,1-2.228-1,8.614,8.614,0,0,1-1.88-1.648,7.151,7.151,0,0,1-1.3-2.274v.046a10.923,10.923,0,0,1-.928-5.383,14.41,14.41,0,0,1,.859-3.922,13.321,13.321,0,0,1,1.972-3.6,10.4,10.4,0,0,1,2.993-2.645,7.429,7.429,0,0,1,3.829-1.021,10.931,10.931,0,0,1,1.253.07,5.66,5.66,0,0,1,1.253.3,14.275,14.275,0,0,1,2.344,1.067,10.382,10.382,0,0,1,2.112,1.671,2.791,2.791,0,0,1,.464,1.346,2.034,2.034,0,0,1-.278,1.067,1.754,1.754,0,0,1-.766.7,2.473,2.473,0,0,1-1.16.209,3.44,3.44,0,0,1-1.415-.394,6.83,6.83,0,0,0-1.88-1.462,3.97,3.97,0,0,0-1.74-.441,3.608,3.608,0,0,0-2.088.673,5.989,5.989,0,0,0-1.671,1.787,10.271,10.271,0,0,0-1.114,2.506,9.8,9.8,0,0,0-.418,2.831,10.831,10.831,0,0,0,.116,1.578,5.323,5.323,0,0,0,.441,1.485,4.525,4.525,0,0,0,1.578,2.042,3.626,3.626,0,0,0,2.042.65,3.911,3.911,0,0,0,1.671-.418,5.633,5.633,0,0,0,1.671-1.253Zm20.392-14.99a7.017,7.017,0,0,1,3.457.835,8.13,8.13,0,0,1,2.552,2.2,9.83,9.83,0,0,1,1.578,3.109,12.043,12.043,0,0,1,.534,3.55,10.728,10.728,0,0,1-.093,1.462q-.093.673-.232,1.369a14.018,14.018,0,0,1-1.508,3.573,12.757,12.757,0,0,1-2.344,2.9A10.426,10.426,0,0,1,213.207.7a8.794,8.794,0,0,1-3.457.7,7.187,7.187,0,0,1-3.457-.835A8.491,8.491,0,0,1,203.67-1.6a9.955,9.955,0,0,1-1.648-2.97,9.93,9.93,0,0,1-.58-3.318,12.367,12.367,0,0,1,.859-4.525,13.958,13.958,0,0,1,2.32-3.945,11.761,11.761,0,0,1,3.434-2.808A8.694,8.694,0,0,1,212.255-20.234Zm-5.987,9.978a9.374,9.374,0,0,0-.278,2.367,7.8,7.8,0,0,0,.371,2.436,4.44,4.44,0,0,0,1.23,1.926,3.262,3.262,0,0,0,2.3.789,4.05,4.05,0,0,0,2.483-.812,7.629,7.629,0,0,0,1.856-2A10.1,10.1,0,0,0,215.411-8.1a8.588,8.588,0,0,0,.418-2.483A8.883,8.883,0,0,0,215.6-12.6a5.928,5.928,0,0,0-.719-1.787,4.27,4.27,0,0,0-1.183-1.276,2.685,2.685,0,0,0-1.578-.487,4.014,4.014,0,0,0-2.088.58,7.375,7.375,0,0,0-1.74,1.439,8.361,8.361,0,0,0-1.276,1.9A10.111,10.111,0,0,0,206.269-10.256Z" transform="translate(-0.835 29.33)" fill="#333"/>
</svg>
