<svg xmlns="http://www.w3.org/2000/svg" xmlns:xlink="http://www.w3.org/1999/xlink" width="358.272" height="132" viewBox="0 0 358.272 132">
  <defs>
    <filter id="長方形_6" x="15.272" y="0" width="343" height="132" filterUnits="userSpaceOnUse">
      <feOffset dy="5" input="SourceAlpha"/>
      <feGaussianBlur stdDeviation="3" result="blur"/>
      <feFlood flood-opacity="0.412"/>
      <feComposite operator="in" in2="blur"/>
      <feComposite in="SourceGraphic"/>
    </filter>
  </defs>
  <g id="グループ_139" data-name="グループ 139" transform="translate(-92.728 2)">
    <g transform="matrix(1, 0, 0, 1, 92.73, -2)" filter="url(#長方形_6)">
      <g id="長方形_6-2" data-name="長方形 6" transform="translate(26.27 6)" fill="#103a91" stroke="#d6d6d6" stroke-width="2">
        <rect width="321" height="110" rx="20" stroke="none"/>
        <rect x="-1" y="-1" width="323" height="112" rx="21" fill="none"/>
      </g>
    </g>
    <path id="合体_1" data-name="合体 1" d="M32.977,108.451c-2.751,0-5.354-1.5-7.33-4.219a17.946,17.946,0,0,1-3.148-10.5v-15.1a20.677,20.677,0,0,1-5.3.672,23.635,23.635,0,0,1-4.214-.386C3.126,77.139.367,67.97,0,66.582a.087.087,0,0,1,.084-.109.1.1,0,0,1,.037.008,28.975,28.975,0,0,0,10.681,2.442,15.547,15.547,0,0,0,2.722-.228A16.9,16.9,0,0,0,22.5,64.133V14.719a17.947,17.947,0,0,1,3.148-10.5C27.623,1.5,30.226,0,32.977,0h298.2c2.751,0,5.354,1.5,7.33,4.219a17.947,17.947,0,0,1,3.148,10.5V93.733a17.946,17.946,0,0,1-3.148,10.5c-1.976,2.72-4.579,4.219-7.33,4.219Z" transform="translate(93.732)" fill="#f5f4f4" stroke="#f5f5f5" stroke-width="2"/>
    <path id="パス_795" data-name="パス 795" d="M8.26-20.65H4.48V-7.21C4.48-2,5.7.035,11.2.035v-3.78c-2.66,0-2.94-.735-2.94-4.025ZM17.185-14.6c2.625,0,2.905.7,2.905,3.99V.035h3.78V-11.13c0-5.25-1.225-7.245-6.685-7.245Zm17.08,3.4c20.23-7.56,18.55,7.7,9.03,8.05L44,.56c14.245-.63,15.75-25.305-10.92-15.33Zm37.66-12.6v3.78H66.01v3.78h5.915v4.55H66.01v3.78h5.95C72.45,2.31,80.5,2.31,80.5,2.31l.6-3.745S76.23-1.47,75.74-7.91h5.915v-3.78h-5.95v-4.55h5.95v-3.78h-5.95V-23.8Zm38.4,10.045q-.63.788-1.26,1.47a7.655,7.655,0,0,0-4.445-1.435v-4.41h5.705v-3.78h-5.705V-23.8h-3.78v1.89H95.13v3.78h5.705v4.585C97.86-12.88,95.2-10.71,95.2-7.14c0,3.885,4.2,5,7.525,4.06a17.135,17.135,0,0,0,5.705-3.255c.42,2.31-.7,4.865-3.815,4.865V2.31c7.385,0,9.345-6.86,6.965-11.62.6-.665,1.155-1.33,1.68-2.03Zm-5.88,3.64a5.167,5.167,0,0,1,2.24.56,20.245,20.245,0,0,1-2.24,1.715Zm-3.6,3.535c-1.26,0-1.68-.21-1.785-1.155-.035-.455.175-1.5,1.785-1.995ZM136.78,2.31s4.34-6.685,4.34-26.11h-3.78c0,18.025-3.92,24.4-3.92,24.4Zm-5.985-24.22h-3.78v7.245c0,5.25.28,7.245,4.9,7.245V-11.2c-1.12,0-1.12-.7-1.12-3.99Zm43.12,1.4v-4.48H171.71v4.48Zm3.045,0v-4.48h-2.2v4.48ZM161.665-23.8h-3.78v6.72c-2.03.245-3.535.56-3.535.56l.84,3.71s1.155-.245,2.695-.455V-5.32h3.78v-8.225c6.685.14,4.1,7.91-.14,13.545L164.5,2.31c9.7-13.44,3.78-19.53-2.835-19.635Zm9.065,12.39,3.535-1.4-3.36-8.435-3.5,1.4Zm28.49-6.93a31.786,31.786,0,0,0-3.92,2.625L192.4-23.8H188.37l3.955,10.99c-7.28,8.75-1.155,18.375,9.555,14.07l-.875-3.675c-8.33,4.025-13.09-5.215,0-12.6Zm20.755-5.46-.28,3.745,9.065.665.28-3.78Zm3.325,6.44a15.963,15.963,0,0,0-5.915,1.05l1.435,3.5a10.621,10.621,0,0,1,4.48-.77c6.86,0,4.27,7.875,0,13.545l2.975,2.345C236.04-11.235,229.95-17.36,223.3-17.36Zm25.48-8.33H244.3l.35,19.915h3.78Zm-4.13,28h3.78V-2.24h-3.78Z" transform="translate(142 68)" fill="#0d3993"/>
  </g>
</svg>
