<svg xmlns="http://www.w3.org/2000/svg" xmlns:xlink="http://www.w3.org/1999/xlink" width="459.005" height="164" viewBox="0 0 459.005 164">
  <defs>
    <filter id="長方形_6" x="23.005" y="0" width="436" height="164" filterUnits="userSpaceOnUse">
      <feOffset dy="5" input="SourceAlpha"/>
      <feGaussianBlur stdDeviation="3" result="blur"/>
      <feFlood flood-opacity="0.412"/>
      <feComposite operator="in" in2="blur"/>
      <feComposite in="SourceGraphic"/>
    </filter>
  </defs>
  <g id="グループ_141" data-name="グループ 141" transform="translate(-119.995 1)">
    <g transform="matrix(1, 0, 0, 1, 120, -1)" filter="url(#長方形_6)">
      <g id="長方形_6-2" data-name="長方形 6" transform="translate(34 6)" fill="#103a91" stroke="#d6d6d6" stroke-width="2">
        <rect width="414" height="142" rx="20" stroke="none"/>
        <rect x="-1" y="-1" width="416" height="144" rx="21" fill="none"/>
      </g>
    </g>
    <path id="合体_1" data-name="合体 1" d="M42.57,140c-3.551,0-6.912-1.934-9.463-5.446A23.167,23.167,0,0,1,29.044,121V101.514a26.692,26.692,0,0,1-6.847.868,30.512,30.512,0,0,1-5.44-.5C4.035,99.58.474,87.744,0,85.952a.113.113,0,0,1,.109-.141.133.133,0,0,1,.048.01,37.4,37.4,0,0,0,13.788,3.153,20.069,20.069,0,0,0,3.514-.294A21.819,21.819,0,0,0,29.044,82.79V19A23.167,23.167,0,0,1,33.108,5.446C35.658,1.934,39.019,0,42.57,0H427.518c3.551,0,6.912,1.934,9.463,5.446A23.167,23.167,0,0,1,441.044,19V121a23.167,23.167,0,0,1-4.064,13.554c-2.551,3.512-5.911,5.446-9.463,5.446Z" transform="translate(121)" fill="#f5f4f4" stroke="#f5f5f5" stroke-width="2"/>
    <path id="パス_797" data-name="パス 797" d="M14.58-29.052a12.141,12.141,0,0,0-8.6,3.456c-2.952,2.988-4.068,7.38-4.068,11.52C1.908-6.156,6.048.648,14.652.648A10.714,10.714,0,0,0,23.22-2.988c.864-1.044,2.232-3.132,2.232-4.536a2.075,2.075,0,0,0-2.016-2.088,2.02,2.02,0,0,0-1.728,1.224,10.821,10.821,0,0,1-2.52,3.42,7.4,7.4,0,0,1-4.428,1.26c-6.12,0-8.172-5.148-8.172-10.476,0-5.184,1.8-10.332,7.848-10.332,2.736,0,5.328.864,6.768,3.312.684,1.152,1.116,1.764,2.124,1.764a2.059,2.059,0,0,0,2.052-2.088,6.225,6.225,0,0,0-2.412-4.32A12.631,12.631,0,0,0,14.58-29.052Zm26.6,7.488c-6.552,0-9.576,5.112-9.576,11.124S34.632.648,41.184.648s9.54-5.076,9.54-11.088S47.736-21.564,41.184-21.564Zm0,3.924c4.1,0,5.58,3.6,5.58,7.2,0,3.564-1.44,7.164-5.58,7.164-4,0-5.58-3.456-5.58-6.984C35.6-13.932,36.9-17.64,41.184-17.64Zm20.268-1.62a2.55,2.55,0,0,0-2.412-2.3,1.685,1.685,0,0,0-1.764,1.692,4.532,4.532,0,0,0,.144.972,8.962,8.962,0,0,1,.288,2.2V-1.332A1.984,1.984,0,0,0,59.616.648,1.952,1.952,0,0,0,61.524-1.3v-12.06a4,4,0,0,1,4-4.248c1.98,0,3.276,1.044,3.276,3.1V-1.332A1.984,1.984,0,0,0,70.7.648,1.952,1.952,0,0,0,72.612-1.3v-12.24a3.808,3.808,0,0,1,3.96-4.068c2.124,0,3.312,1.044,3.312,3.24V-1.332A1.99,1.99,0,0,0,81.828.648,1.945,1.945,0,0,0,83.7-1.3V-16.128c0-3.672-2.916-5.436-6.3-5.436a6.788,6.788,0,0,0-5.652,2.3,5.535,5.535,0,0,0-4.9-2.3A6.5,6.5,0,0,0,61.452-19.26Zm33.084-9.756a2.681,2.681,0,0,0-2.664,2.664,2.705,2.705,0,0,0,2.664,2.664A2.681,2.681,0,0,0,97.2-26.352,2.658,2.658,0,0,0,94.536-29.016Zm1.908,9.4a1.9,1.9,0,0,0-1.872-1.944,1.99,1.99,0,0,0-1.944,1.98V-1.332A1.99,1.99,0,0,0,94.572.648,1.921,1.921,0,0,0,96.444-1.3Zm12.852.828c-.36-1.3-.828-2.772-2.448-2.772a1.706,1.706,0,0,0-1.728,1.728,4.759,4.759,0,0,0,.072.972,15.74,15.74,0,0,1,.216,2.592v14.94a1.984,1.984,0,0,0,1.908,1.98A1.952,1.952,0,0,0,109.224-1.3V-12.96a4.336,4.336,0,0,1,1.116-2.556,5.755,5.755,0,0,1,4.428-2.232c2.592,0,4.176,1.944,4.176,4.464V-1.332a1.959,1.959,0,0,0,1.908,1.98A1.945,1.945,0,0,0,122.724-1.3V-14.724c0-4.32-3.06-6.84-7.236-6.84A7.828,7.828,0,0,0,109.3-18.792Zm27.828,8.928a10.679,10.679,0,0,0,1.512.108,11.634,11.634,0,0,0,6.012-1.368,5.417,5.417,0,0,0,2.592-4.536,5.994,5.994,0,0,0-.612-2.448l1.548-1.188a1.605,1.605,0,0,0,.54-1.188,1.708,1.708,0,0,0-1.8-1.656,1.653,1.653,0,0,0-1.008.288l-1.872,1.332a11.327,11.327,0,0,0-5.112-1.044c-3.672,0-8.316,1.44-8.316,5.868a5.542,5.542,0,0,0,3.168,4.788l-1.62,3.672a4.391,4.391,0,0,0-.54,1.728,2.158,2.158,0,0,0,2.412,2.2,5.168,5.168,0,0,0,2.052-.54,11.493,11.493,0,0,1,4.068-.9c1.8,0,4.392.864,4.392,3.024,0,2.592-3.1,3.06-5.076,3.06-2.448,0-5.4-.5-7.128-2.412A1.707,1.707,0,0,0,131-1.728,1.739,1.739,0,0,0,129.348.108c0,1.3,1.368,2.34,2.34,2.952a14.82,14.82,0,0,0,7.776,1.764c2.448,0,5.04-.4,6.948-2.052a5.914,5.914,0,0,0,2.052-4.392,5.783,5.783,0,0,0-1.62-4.032,8.211,8.211,0,0,0-6.048-2.16,16.287,16.287,0,0,0-4.9.864ZM134.316-15.7c0-2.232,2.88-2.628,4.608-2.628s4.572.4,4.572,2.664S140.616-13,138.888-13,134.316-13.428,134.316-15.7ZM177.588.684c3.852,0,7.92-2.628,7.92-6.768,0-3.852-2.52-5.184-5.832-6.084-1.368-.36-4.32-1.08-5.328-1.8a1.657,1.657,0,0,1-.648-1.44c0-1.872,2.124-2.556,3.672-2.556a5.591,5.591,0,0,1,3.636,1.26,3.745,3.745,0,0,0,2.268,1.224,1.806,1.806,0,0,0,1.764-1.836,3.27,3.27,0,0,0-1.62-2.376,10.809,10.809,0,0,0-6.192-1.872c-3.744,0-7.6,2.2-7.6,6.336,0,4.176,4.212,5.508,7.632,6.228,2.016.432,4.212.9,4.212,2.952,0,2.088-1.908,3.024-3.744,3.024a6.7,6.7,0,0,1-5.22-2.448c-.72-.936-1.188-1.476-2.088-1.476a1.813,1.813,0,0,0-1.8,1.836,4.336,4.336,0,0,0,1.548,2.844A10.154,10.154,0,0,0,177.588.684Zm23.58-22.248c-6.552,0-9.576,5.112-9.576,11.124S194.616.648,201.168.648s9.54-5.076,9.54-11.088S207.72-21.564,201.168-21.564Zm0,3.924c4.1,0,5.58,3.6,5.58,7.2,0,3.564-1.44,7.164-5.58,7.164-4,0-5.58-3.456-5.58-6.984C195.588-13.932,196.884-17.64,201.168-17.64Zm25.2-3.924c-6.552,0-9.576,5.112-9.576,11.124S219.816.648,226.368.648s9.54-5.076,9.54-11.088S232.92-21.564,226.368-21.564Zm0,3.924c4.1,0,5.58,3.6,5.58,7.2,0,3.564-1.44,7.164-5.58,7.164-4,0-5.58-3.456-5.58-6.984C220.788-13.932,222.084-17.64,226.368-17.64Zm20.412-1.152c-.36-1.3-.828-2.772-2.448-2.772a1.706,1.706,0,0,0-1.728,1.728,4.759,4.759,0,0,0,.072.972,15.741,15.741,0,0,1,.216,2.592v14.94A1.984,1.984,0,0,0,244.8.648,1.952,1.952,0,0,0,246.708-1.3V-12.96a4.336,4.336,0,0,1,1.116-2.556,5.755,5.755,0,0,1,4.428-2.232c2.592,0,4.176,1.944,4.176,4.464V-1.332a1.959,1.959,0,0,0,1.908,1.98A1.945,1.945,0,0,0,260.208-1.3V-14.724c0-4.32-3.06-6.84-7.236-6.84A7.828,7.828,0,0,0,246.78-18.792Zm36.648,2.232a2.888,2.888,0,0,0-2.88,2.88,2.888,2.888,0,0,0,2.88,2.88,2.888,2.888,0,0,0,2.88-2.88A2.888,2.888,0,0,0,283.428-16.56Zm11.988,0a2.888,2.888,0,0,0-2.88,2.88,2.912,2.912,0,0,0,2.88,2.88,2.92,2.92,0,0,0,2.916-2.88A2.92,2.92,0,0,0,295.416-16.56Zm-23.976,0a2.92,2.92,0,0,0-2.916,2.88,2.92,2.92,0,0,0,2.916,2.88,2.912,2.912,0,0,0,2.88-2.88A2.912,2.912,0,0,0,271.44-16.56Z" transform="translate(207 83)" fill="#0d3993"/>
  </g>
</svg>
