<svg xmlns="http://www.w3.org/2000/svg" xmlns:xlink="http://www.w3.org/1999/xlink" width="360.532" height="133" viewBox="0 0 360.532 133">
  <defs>
    <filter id="長方形_6" x="15.532" y="0" width="345" height="133" filterUnits="userSpaceOnUse">
      <feOffset dy="5" input="SourceAlpha"/>
      <feGaussianBlur stdDeviation="3" result="blur"/>
      <feFlood flood-opacity="0.412"/>
      <feComposite operator="in" in2="blur"/>
      <feComposite in="SourceGraphic"/>
    </filter>
  </defs>
  <g id="グループ_137" data-name="グループ 137" transform="translate(-93.468 2)">
    <g id="グループ_135" data-name="グループ 135">
      <g transform="matrix(1, 0, 0, 1, 93.47, -2)" filter="url(#長方形_6)">
        <g id="長方形_6-2" data-name="長方形 6" transform="translate(26.53 6)" fill="#103a91" stroke="#d6d6d6" stroke-width="2">
          <rect width="323" height="111" rx="20" stroke="none"/>
          <rect x="-1" y="-1" width="325" height="113" rx="21" fill="none"/>
        </g>
      </g>
      <path id="合体_1" data-name="合体 1" d="M33.238,109.308c-2.773,0-5.4-1.51-7.388-4.252a18.088,18.088,0,0,1-3.173-10.583V79.259a20.841,20.841,0,0,1-5.346.677,23.823,23.823,0,0,1-4.247-.389C3.15,77.749.37,68.508,0,67.109A.088.088,0,0,1,.088,67a.1.1,0,0,1,.037.008,29.2,29.2,0,0,0,10.765,2.462,15.669,15.669,0,0,0,2.743-.23,17.036,17.036,0,0,0,9.043-4.6v-49.8A18.088,18.088,0,0,1,25.85,4.252C27.841,1.51,30.465,0,33.238,0H333.794c2.773,0,5.4,1.51,7.388,4.252a18.088,18.088,0,0,1,3.173,10.583V94.474a18.088,18.088,0,0,1-3.173,10.583c-1.991,2.742-4.615,4.252-7.388,4.252Z" transform="translate(94.473)" fill="#f5f4f4" stroke="#f5f5f5" stroke-width="2"/>
    </g>
    <path id="パス_793" data-name="パス 793" d="M16.17-23.8v3.78H10.815v-1.89H7.035v1.89h-2.1v3.78h2.1V-4.375c0,5.46,1.995,6.685,7.245,6.685,5.39,0,7.28-.98,7.28-.98l-.735-3.71a17.055,17.055,0,0,1-5.985.91c-3.29,0-4.025-.28-4.025-2.9V-16.24H16.17v2.765c0,3.29,0,3.99-1.12,3.99V-5.7c4.62,0,4.9-1.995,4.9-7.245v-3.29H22.4v-3.78H19.95V-23.8ZM47.46-2.24c-2.94,1.435-4.06.6-5.04-1.96-1.33-3.465-4.13-4.725-6.475-4.375L38.675-23.8h-3.85L30.1,2.31h3.85l1.085-5.88c.21-1.05,2.625-2.345,3.99,1.015,1.96,4.8,5.25,5.915,9.485,3.955ZM65.87-23.8v3.78H60.515v-1.89h-3.78v1.89h-2.1v3.78h2.1V-4.375c0,5.46,1.995,6.685,7.245,6.685,5.39,0,7.28-.98,7.28-.98l-.735-3.71a17.055,17.055,0,0,1-5.985.91c-3.29,0-4.025-.28-4.025-2.9V-16.24H65.87v2.765c0,3.29,0,3.99-1.12,3.99V-5.7c4.62,0,4.9-1.995,4.9-7.245v-3.29H72.1v-3.78H69.65V-23.8Zm16.94,3.15H79.03V-7.21C79.03-2,80.255.035,85.75.035v-3.78c-2.66,0-2.94-.735-2.94-4.025ZM91.735-14.6c2.625,0,2.9.7,2.9,3.99V.035h3.78V-11.13c0-5.25-1.225-7.245-6.685-7.245Zm19.39-9.205v3.78H105.21v3.78h5.915v4.55H105.21v3.78h5.95c.49,10.22,8.54,10.22,8.54,10.22l.6-3.745S115.43-1.47,114.94-7.91h5.915v-3.78H114.9v-4.55h5.95v-3.78H114.9V-23.8Zm19.11,1.89V2.31h15.33V-21.91Zm3.78,20.44V-18.13h7.77V-1.47Zm32.76-24.5v4.48h2.17v-4.48Zm3.185,0v4.48h2.17v-4.48Zm-9.1,20.44c0,3.29,0,3.99-1.54,3.99V2.24c5.04,0,5.32-2,5.32-7.245v-11.27H170.7V-20.09H164.64v-3.78h-3.78v3.78h-6.055v3.815h6.055Zm-6.055-5.53a13.029,13.029,0,0,1-2.94,8.855l3.29,1.82c2.625-3.36,3.43-5.845,3.43-10.675ZM168.77-.35l3.675-.77-1.995-9.94-3.71.735Zm7.98-18.725v6.965h3.78v-6.965Zm9,0h-3.78v6.965h3.78ZM182.735,2.31c6.16-5.425,8.75-11.55,8.75-17.185H187.74c-.28,4.165-1.33,9.03-7.665,14.49Zm18.235,0h3.78V-10.78l7.035,1.82.945-3.675L204.75-14.7v-9.1h-3.78Zm24.815-28V-3.815c0,4.34,1.89,6.125,5.74,6.125h8.4V-1.47h-8.4c-1.295,0-1.96-.525-1.96-2.345v-8.96l10.36-3.535v-4.025l-10.36,3.57V-25.69Zm-6.2,28h3.78V-13.475h-1.19a22.32,22.32,0,0,0,2.17-10.185h-3.78c0,5.215-1.5,9.52-4.1,11.27v5.18A15.92,15.92,0,0,0,219.59-9.8Zm32.34-28h-4.48l.35,19.915h3.78Zm-4.13,28h3.78V-2.24H247.8Zm12.46-20.685c0-2.485,1.435-3.535,3.15-3.535,1.75,0,3.185,1.05,3.185,3.535,0,4.27-5.075,4.165-5.075,12.6h3.78c0-7.8,5.075-6.615,5.075-12.6,0-5.145-3.465-7.315-6.965-7.315-3.465,0-6.93,2.17-6.93,7.315v1.26h3.78ZM265.3,2.31V-2.24h-3.78V2.31Z" transform="translate(143 69)" fill="#0d3993"/>
  </g>
</svg>
