<svg id="Logo__x2014__FIXED" xmlns="http://www.w3.org/2000/svg" width="27.057" height="22" viewBox="0 0 27.057 22">
  <path id="パス_18" data-name="パス 18" d="M8.489,22a15.7,15.7,0,0,0,15.8-15.8c0-.242,0-.484-.012-.714A11.379,11.379,0,0,0,27.057,2.6a11.273,11.273,0,0,1-3.191.875A5.551,5.551,0,0,0,26.308.4a11.247,11.247,0,0,1-3.525,1.348,5.557,5.557,0,0,0-9.606,3.8,5.09,5.09,0,0,0,.15,1.267A15.756,15.756,0,0,1,1.877,1.014,5.551,5.551,0,0,0,3.605,8.42a5.456,5.456,0,0,1-2.511-.691V7.8a5.56,5.56,0,0,0,4.458,5.448,5.537,5.537,0,0,1-1.463.2,5.3,5.3,0,0,1-1.048-.1A5.546,5.546,0,0,0,8.224,17.2a11.165,11.165,0,0,1-6.9,2.373A10.1,10.1,0,0,1,0,19.489,15.474,15.474,0,0,0,8.489,22" transform="translate(0 0)" fill="#fff"/>
</svg>
