<svg id="MENU" xmlns="http://www.w3.org/2000/svg" width="152" height="30" viewBox="0 0 152 30">
  <path id="パス_158" data-name="パス 158" d="M35.668-11.058a2.16,2.16,0,0,1-.656,1.6,1.98,1.98,0,0,1-1.336.534,2.025,2.025,0,0,1-1.288-.488,2.089,2.089,0,0,1-.7-1.509q-.243-2.229-.608-4.714t-.826-5.015q-.462-2.531-1.021-4.992t-1.191-4.6q-.923,2.136-1.847,4.481T24.32-21.019q-.948,2.392-1.871,4.76t-1.9,4.5a2.255,2.255,0,0,1-1.7.882,2.587,2.587,0,0,1-1.6-.743L7.626-29.587q-.243,2.229-.486,4.69t-.462,4.969q-.219,2.508-.462,4.969t-.486,4.69a2.634,2.634,0,0,1-.875,1.161,1.93,1.93,0,0,1-1.118.372,1.882,1.882,0,0,1-1.264-.511,2.173,2.173,0,0,1-.68-1.486q.292-2.972.607-6.153t.632-6.409q.316-3.228.632-6.432T4.273-35.9a2.309,2.309,0,0,1,.753-1.3,1.893,1.893,0,0,1,1.239-.464,2.152,2.152,0,0,1,1.8,1.022q1.312,2.276,2.624,4.76t2.624,5.015q1.312,2.531,2.649,5.015T18.61-17.1q.972-2.276,1.968-4.76t1.993-5.015q1-2.531,1.993-5.039t2.017-4.783a2.618,2.618,0,0,1,.875-.882,2.022,2.022,0,0,1,1.021-.279,1.891,1.891,0,0,1,1.142.418,2.3,2.3,0,0,1,.8,1.207q.875,2.926,1.677,6.084T33.6-23.759q.7,3.228,1.239,6.455T35.668-11.058Zm22.659-3.437a2.516,2.516,0,0,1,1.531.348,1.752,1.752,0,0,1,.778.975,1.75,1.75,0,0,1-.1,1.207,2.386,2.386,0,0,1-1.093,1.091,31.714,31.714,0,0,1-3.742.743,38.617,38.617,0,0,1-4.034.348,38.817,38.817,0,0,1-4.034-.07,24.178,24.178,0,0,1-3.791-.557,2.61,2.61,0,0,1-1.118-.906,1.639,1.639,0,0,1-.292-1.045V-32.792a1.783,1.783,0,0,1-.972-.65,1.69,1.69,0,0,1-.34-1.022,1.837,1.837,0,0,1,.389-1.091,2.39,2.39,0,0,1,1.215-.813,21.847,21.847,0,0,1,3.864-.766q1.968-.209,3.961-.279t3.985-.07q1.993,0,3.937-.093a2.359,2.359,0,0,1,1.677.464,1.872,1.872,0,0,1,.7,1.161,1.686,1.686,0,0,1-.365,1.277,2.461,2.461,0,0,1-1.531.859q-2.916.139-6.2.093a38.6,38.6,0,0,0-6.342.418v8.173q2.527.093,5.079-.023t5.127-.348a2.359,2.359,0,0,1,1.677.464,1.872,1.872,0,0,1,.7,1.161,1.686,1.686,0,0,1-.364,1.277,2.461,2.461,0,0,1-1.531.859q-2.673.232-5.37.372t-5.322.046V-13.8a28.973,28.973,0,0,0,6.051.209A32.258,32.258,0,0,0,58.328-14.494Zm29.22-22.384a2.689,2.689,0,0,1,.778-1.393,1.8,1.8,0,0,1,1.215-.464,1.953,1.953,0,0,1,1.191.418,2.328,2.328,0,0,1,.8,1.3q0,6.641-.1,12.864T90.95-11.29l.049.046H90.95a1.978,1.978,0,0,0-.049.395v.348a2.43,2.43,0,0,1-.8,1.115,1.823,1.823,0,0,1-1.093.372,2.37,2.37,0,0,1-1.652-.743,3,3,0,0,0-.194-.325l-.194-.279h-.049v-.093q-1.75-2.833-3.6-5.41t-3.791-5.062q-1.944-2.485-3.961-4.923t-4.155-4.992v9.4q0,2.345.024,4.9t.024,5.526a2.16,2.16,0,0,1-.656,1.6,1.98,1.98,0,0,1-1.336.534,1.932,1.932,0,0,1-1.264-.488,2.306,2.306,0,0,1-.729-1.509q0-6.269-.024-12.7t-.024-12.7a2.376,2.376,0,0,1,.729-1.3,1.8,1.8,0,0,1,1.215-.464,2.69,2.69,0,0,1,1.458.511q2.236,2.554,4.374,4.992t4.2,4.9q2.065,2.461,4.009,5.039t3.791,5.364q.194-5.108.267-9.8T87.548-36.878Zm31.261.929a2.689,2.689,0,0,1,.778-1.393,1.8,1.8,0,0,1,1.215-.464,1.953,1.953,0,0,1,1.191.418,2.328,2.328,0,0,1,.8,1.3q-.049,2.926-.17,6.153t-.437,6.269a56.311,56.311,0,0,1-.875,5.712,17.533,17.533,0,0,1-1.531,4.528A5.583,5.583,0,0,1,118.25-11.5a9.4,9.4,0,0,1-2.236,1.347,12.264,12.264,0,0,1-2.6.789,14.224,14.224,0,0,1-2.624.255,13.255,13.255,0,0,1-2.94-.325,10.372,10.372,0,0,1-2.673-1A8.758,8.758,0,0,1,102.99-12.1a6.634,6.634,0,0,1-1.434-2.345,21.245,21.245,0,0,1-1.142-4.9q-.316-2.67-.389-5.5T100-30.47q.049-2.786.049-5.248a2.689,2.689,0,0,1,.778-1.393,1.8,1.8,0,0,1,1.215-.464,1.953,1.953,0,0,1,1.191.418,2.328,2.328,0,0,1,.8,1.3q0,1.533-.049,3.506t-.073,4.087q-.024,2.113.049,4.226t.292,3.971a17.566,17.566,0,0,0,.68,3.3,5.129,5.129,0,0,0,1.239,2.183,5.123,5.123,0,0,0,2.308,1.37,9.57,9.57,0,0,0,2.5.348,7.22,7.22,0,0,0,2.867-.6,6.737,6.737,0,0,0,2.527-1.95,5.445,5.445,0,0,0,.948-2.159,33.668,33.668,0,0,0,.632-3.32q.267-1.858.413-3.971t.243-4.156q.1-2.043.121-3.854T118.809-35.95Z" transform="translate(14 38.736)" fill="#fff" opacity="0.9"/>
  <circle id="楕円形_5" data-name="楕円形 5" cx="3" cy="3" r="3" transform="translate(0 12)" fill="#fff"/>
  <circle id="楕円形_6" data-name="楕円形 6" cx="3" cy="3" r="3" transform="translate(146 12)" fill="#fff"/>
</svg>
