<svg id="グループ_107" data-name="グループ 107" xmlns="http://www.w3.org/2000/svg" xmlns:xlink="http://www.w3.org/1999/xlink" width="690" height="95" viewBox="0 0 690 95">
  <defs>
    <clipPath id="clip-path">
      <rect id="長方形_94" data-name="長方形 94" width="690" height="95" fill="none"/>
    </clipPath>
  </defs>
  <g id="グループ_106" data-name="グループ 106" clip-path="url(#clip-path)">
    <path id="パス_648" data-name="パス 648" d="M56.521.225V13.569h9.2V26.914h-9.2V38.529c0,18.535-1.052,25.579-18.4,25.579V50.762c4.206,0,4.206-2.47,4.206-14.087V26.914H22.209V68.8c0,9.267,2.761,10.257,15.119,10.257,14.2,0,22.48-3.212,22.48-3.212l2.761,13.1S55.469,92.4,35.224,92.4C15.5,92.4,8.013,88.08,8.013,68.8V26.914H.125V13.569H8.013V6.9h14.2v6.673H42.324V.225Z" transform="translate(0.127 0.226)" fill="#0d3993"/>
    <path id="パス_649" data-name="パス 649" d="M56.521.225V13.569h9.2V26.914h-9.2V38.529c0,18.535-1.052,25.579-18.4,25.579V50.762c4.206,0,4.206-2.47,4.206-14.087V26.914H22.209V68.8c0,9.267,2.761,10.257,15.119,10.257,14.2,0,22.48-3.212,22.48-3.212l2.761,13.1S55.469,92.4,35.224,92.4C15.5,92.4,8.013,88.08,8.013,68.8V26.914H.125V13.569H8.013V6.9h14.2v6.673H42.324V.225Z" transform="translate(0.127 0.226)" fill="none" stroke="#0d3993" stroke-miterlimit="10" stroke-width="0.25"/>
    <path id="パス_650" data-name="パス 650" d="M55.721,71.644,51.644,92.4H37.185L54.932.225H69.394L59.139,53.974Z" transform="translate(37.867 0.226)" fill="#0d3993"/>
    <path id="パス_651" data-name="パス 651" d="M55.721,71.644,51.644,92.4H37.185L54.932.225H69.394L59.139,53.974Z" transform="translate(37.867 0.226)" fill="none" stroke="#0d3993" stroke-miterlimit="10" stroke-width="0.25"/>
    <path id="パス_652" data-name="パス 652" d="M50.831,27.113c8.808-1.234,19.325,3.214,24.321,15.447,3.681,9.021,7.888,11.984,18.93,6.92l3.946,12.849C82.119,69.251,69.763,65.3,62.4,48.367c-5.127-11.862-14.2-7.289-14.986-3.583" transform="translate(48.283 27.087)" fill="#d33d61"/>
    <path id="パス_653" data-name="パス 653" d="M50.831,27.113c8.808-1.234,19.325,3.214,24.321,15.447,3.681,9.021,7.888,11.984,18.93,6.92l3.946,12.849C82.119,69.251,69.763,65.3,62.4,48.367c-5.127-11.862-14.2-7.289-14.986-3.583" transform="translate(48.283 27.087)" fill="none" stroke="#d33d61" stroke-miterlimit="10" stroke-width="0.25"/>
    <path id="パス_654" data-name="パス 654" d="M129.471.224V13.568h9.2V26.915h-9.2V38.528c0,18.535-1.052,25.579-18.4,25.579V50.761c4.2,0,4.2-2.47,4.2-14.087V26.915H95.16V68.8c0,9.267,2.761,10.257,15.117,10.257,14.2,0,22.48-3.21,22.48-3.21l2.761,13.1s-7.1,3.457-27.344,3.457c-19.719,0-27.211-4.324-27.211-23.6V26.915h-7.89V13.568h7.89V6.9h14.2v6.673h20.113V.224Z" transform="translate(74.412 0.225)" fill="#0d3993"/>
    <path id="パス_655" data-name="パス 655" d="M129.471.224V13.568h9.2V26.915h-9.2V38.528c0,18.535-1.052,25.579-18.4,25.579V50.761c4.2,0,4.2-2.47,4.2-14.087V26.915H95.16V68.8c0,9.267,2.761,10.257,15.117,10.257,14.2,0,22.48-3.21,22.48-3.21l2.761,13.1s-7.1,3.457-27.344,3.457c-19.719,0-27.211-4.324-27.211-23.6V26.915h-7.89V13.568h7.89V6.9h14.2v6.673h20.113V.224Z" transform="translate(74.412 0.225)" fill="none" stroke="#0d3993" stroke-miterlimit="10" stroke-width="0.25"/>
    <path id="パス_656" data-name="パス 656" d="M128.841,53.923c0,12.664,1.148,15.493,12.041,15.493v14.55c-22.5,0-27.52-7.815-27.52-27.889V4.345h15.479Z" transform="translate(115.439 4.373)" fill="#0d3993"/>
    <path id="パス_657" data-name="パス 657" d="M128.841,53.923c0,12.664,1.148,15.493,12.041,15.493v14.55c-22.5,0-27.52-7.815-27.52-27.889V4.345h15.479Z" transform="translate(115.439 4.373)" fill="none" stroke="#0d3993" stroke-miterlimit="10" stroke-width="0.25"/>
    <path id="パス_658" data-name="パス 658" d="M139.14,8.71c22.359,0,27.375,7.678,27.375,27.887l0,42.977H151.036V38.619c0-12.664-1.146-15.361-11.9-15.361Z" transform="translate(141.689 8.766)" fill="#d33d61"/>
    <path id="パス_659" data-name="パス 659" d="M139.14,8.71c22.359,0,27.375,7.678,27.375,27.887l0,42.977H151.036V38.619c0-12.664-1.146-15.361-11.9-15.361Z" transform="translate(141.689 8.766)" fill="none" stroke="#d33d61" stroke-miterlimit="10" stroke-width="0.25"/>
    <path id="パス_660" data-name="パス 660" d="M157.58,38.515l11.94-5.845,10.326,18.473L167.9,56.988Z" transform="translate(160.467 32.879)" fill="#0d3993"/>
    <path id="パス_661" data-name="パス 661" d="M157.58,38.515l11.94-5.845,10.326,18.473L167.9,56.988Z" transform="translate(160.467 32.879)" fill="none" stroke="#0d3993" stroke-miterlimit="10" stroke-width="0.25"/>
    <path id="パス_662" data-name="パス 662" d="M216.119,11.161V27.342h20.9V40.687H215.986c-1.445,24.829-11.038,34.835-26.809,42.742l-5.914-12.106c13.272-6.547,17.741-13.96,18.53-30.635H177.216V27.342h24.708V14.989a46.967,46.967,0,0,0,13.355-3.471Z" transform="translate(180.463 11.232)" fill="#0d3993"/>
    <path id="パス_663" data-name="パス 663" d="M216.119,11.161V27.342h20.9V40.687H215.986c-1.445,24.829-11.038,34.835-26.809,42.742l-5.914-12.106c13.272-6.547,17.741-13.96,18.53-30.635H177.216V27.342h24.708V14.989a46.967,46.967,0,0,0,13.355-3.471Z" transform="translate(180.463 11.232)" fill="none" stroke="#0d3993" stroke-miterlimit="10" stroke-width="0.25"/>
    <path id="パス_664" data-name="パス 664" d="M212.366,20.334A70.428,70.428,0,0,1,198.873,23.9a106.222,106.222,0,0,1-17.349,1.236l-1.312-13.342c16.429-.618,29.044-3.088,39.953-11.613L227.919,11.3a56.772,56.772,0,0,1-14.849,8.772Z" transform="translate(183.514 0.181)" fill="#d33d61"/>
    <path id="パス_665" data-name="パス 665" d="M212.366,20.334A70.428,70.428,0,0,1,198.873,23.9a106.222,106.222,0,0,1-17.349,1.236l-1.312-13.342c16.429-.618,29.044-3.088,39.953-11.613L227.919,11.3a56.772,56.772,0,0,1-14.849,8.772Z" transform="translate(183.514 0.181)" fill="none" stroke="#d33d61" stroke-miterlimit="10" stroke-width="0.25"/>
    <path id="パス_666" data-name="パス 666" d="M232.846,15l.725,9.137,26.268-3.888-8.584,25.76L240.6,42.8l3.207-9.719-9.516,1.457,3,42.481H226.123l-2.894-40.828-10.861,1.651-1.447-10.4L222.4,25.692,221.676,15Z" transform="translate(214.785 15.096)" fill="#0d3993"/>
    <path id="パス_667" data-name="パス 667" d="M232.846,15l.725,9.137,26.268-3.888-8.584,25.76L240.6,42.8l3.207-9.719-9.516,1.457,3,42.481H226.123l-2.894-40.828-10.861,1.651-1.447-10.4L222.4,25.692,221.676,15Z" transform="translate(214.785 15.096)" fill="none" stroke="#0d3993" stroke-miterlimit="10" stroke-width="0.25"/>
    <path id="パス_668" data-name="パス 668" d="M266.883,23.395l-10.12,9.39L236.39,12.771l10.122-9.265Z" transform="translate(240.721 3.528)" fill="#0d3993"/>
    <path id="パス_669" data-name="パス 669" d="M266.883,23.395l-10.12,9.39L236.39,12.771l10.122-9.265Z" transform="translate(240.721 3.528)" fill="none" stroke="#0d3993" stroke-miterlimit="10" stroke-width="0.25"/>
    <path id="パス_670" data-name="パス 670" d="M306.033,16.636c-8.806,32-29.7,52.132-60.721,64.361l-7.228-11.489c31.542-13.587,44.948-29.526,54.939-58.061Z" transform="translate(242.446 11.521)" fill="#d33d61"/>
    <path id="パス_671" data-name="パス 671" d="M306.033,16.636c-8.806,32-29.7,52.132-60.721,64.361l-7.228-11.489c31.542-13.587,44.948-29.526,54.939-58.061Z" transform="translate(242.446 11.521)" fill="none" stroke="#d33d61" stroke-miterlimit="10" stroke-width="0.25"/>
    <path id="パス_672" data-name="パス 672" d="M322.73,3.506c0,19.024-2.1,34.094-6.178,46.325l21.818,32-11.961,7.165-16.69-24.46c-7.23,11.86-17.483,19.518-30.493,24.46L273.18,76.885c24.052-10.624,33.121-29.648,34.961-60.039H277.517V3.506Z" transform="translate(278.185 3.528)" fill="#0d3993"/>
    <path id="パス_673" data-name="パス 673" d="M322.73,3.506c0,19.024-2.1,34.094-6.178,46.325l21.818,32-11.961,7.165-16.69-24.46c-7.23,11.86-17.483,19.518-30.493,24.46L273.18,76.885c24.052-10.624,33.121-29.648,34.961-60.039H277.517V3.506Z" transform="translate(278.185 3.528)" fill="none" stroke="#0d3993" stroke-miterlimit="10" stroke-width="0.25"/>
    <path id="パス_674" data-name="パス 674" d="M323.946,57.752l-9.795-2.428L325.409,6.593,337.021,9.47Zm-11.952,6.182,9.795,2.428-2.781,11.083-9.793-2.428Z" transform="translate(314.88 6.635)" fill="#0d3993"/>
    <path id="パス_675" data-name="パス 675" d="M323.946,57.752l-9.795-2.428L325.409,6.593,337.021,9.47Zm-11.952,6.182,9.795,2.428-2.781,11.083-9.793-2.428Z" transform="translate(314.88 6.635)" fill="none" stroke="#0d3993" stroke-miterlimit="10" stroke-width="0.25"/>
    <path id="パス_676" data-name="パス 676" d="M332.957,30.145l-9.795-2.428.773-3.082C327.09,12.06,337.4,8.978,346.377,11.205c9.07,2.247,16.718,9.779,13.565,22.355-3.671,14.633-16.092,8.465-20.878,27.546l-9.8-2.43c5.173-20.622,18.26-17.1,20.878-27.544,1.524-6.075-1.552-9.562-6.085-10.688-4.444-1.1-8.806.546-10.33,6.619Zm-8.647,48.3L327.1,67.32l9.8,2.428-2.789,11.123Z" transform="translate(329.083 10.606)" fill="#0d3993"/>
    <path id="パス_677" data-name="パス 677" d="M332.957,30.145l-9.795-2.428.773-3.082C327.09,12.06,337.4,8.978,346.377,11.205c9.07,2.247,16.718,9.779,13.565,22.355-3.671,14.633-16.092,8.465-20.878,27.546l-9.8-2.43c5.173-20.622,18.26-17.1,20.878-27.544,1.524-6.075-1.552-9.562-6.085-10.688-4.444-1.1-8.806.546-10.33,6.619Zm-8.647,48.3L327.1,67.32l9.8,2.428-2.789,11.123Z" transform="translate(329.083 10.606)" fill="none" stroke="#0d3993" stroke-miterlimit="10" stroke-width="0.25"/>
  </g>
</svg>
