<?xml version="1.0" encoding="UTF-8"?>
<svg width="73px" height="73px" viewBox="0 0 73 73" version="1.1" xmlns="http://www.w3.org/2000/svg" xmlns:xlink="http://www.w3.org/1999/xlink">
    <title>Cicon</title>
    <g id="★2021追加" stroke="none" stroke-width="1" fill="none" fill-rule="evenodd">
        <g id="pc_03" transform="translate(0.000000, -1208.000000)" fill-rule="nonzero">
            <g id="Cicon" transform="translate(0.000000, 1208.000000)">
                <g id="triangle" fill="#000000">
                    <polygon id="Path" points="0 0 72.5 72.5 0 72.5"></polygon>
                </g>
                <g id="star" transform="translate(9.400000, 40.600000)" fill="#FFFFFF">
                    <path d="M23.8,11.3 L19.9,8.7 L21.5,4.3 L16.8,4.5 L15.6,0 L11.9,2.9 L8.2,0 L7,4.5 L2.3,4.3 L3.9,8.7 L-3.55271368e-15,11.3 L3.9,13.9 L2.3,18.3 L7,18.1 L8.2,22.6 L11.9,19.7 L15.6,22.6 L16.8,18.1 L21.5,18.3 L19.9,13.9 L23.8,11.3 Z M15.2,14.7 C14.9,15.1 14.4,15.5 13.9,15.7 C13.4,15.9 12.8,16 12,16 C11.1,16 10.3,15.9 9.7,15.6 C9.1,15.3 8.6,14.9 8.2,14.2 C7.8,13.5 7.6,12.6 7.6,11.6 C7.6,10.2 8,9.1 8.7,8.3 C9.5,7.5 10.5,7.2 11.9,7.2 C13,7.2 13.8,7.4 14.5,7.9 C15.2,8.4 15.6,9 15.9,9.9 L13.6,10.3 C13.5,10 13.4,9.8 13.3,9.7 C13.2,9.5 13,9.3 12.8,9.2 C12.6,9.1 12.3,9 12.1,9 C11.5,9 11,9.2 10.7,9.7 C10.5,10.1 10.3,10.6 10.3,11.4 C10.3,12.4 10.4,13 10.7,13.4 C11,13.8 11.4,13.9 11.9,13.9 C12.4,13.9 12.8,13.8 13.1,13.5 C13.4,13.2 13.5,12.8 13.7,12.3 L16,13 C15.8,13.7 15.6,14.2 15.2,14.7 Z" id="Shape"></path>
                </g>
            </g>
        </g>
    </g>
</svg>