<svg id="グループ_135" data-name="グループ 135" xmlns="http://www.w3.org/2000/svg" xmlns:xlink="http://www.w3.org/1999/xlink" width="565" height="86" viewBox="0 0 565 86">
  <defs>
    <clipPath id="clip-path">
      <rect id="長方形_119" data-name="長方形 119" width="565" height="86" fill="none"/>
    </clipPath>
  </defs>
  <g id="グループ_134" data-name="グループ 134" clip-path="url(#clip-path)">
    <path id="パス_793" data-name="パス 793" d="M11.757,53.643c0,10.248.871,12.539,9.144,12.539V77.957C3.81,77.957,0,71.632,0,55.387V13.52H11.757Zm27.76-33.036c16.982,0,20.792,6.215,20.792,22.569V77.957H48.553V44.812c0-10.249-.872-12.43-9.036-12.43Z" fill="#fff"/>
    <path id="パス_794" data-name="パス 794" d="M72.723,31.836C155.676.763,150.995,77.629,106.688,79.591l-2.178-11.557c29.611-1.09,34.836-48.627-28.087-25.077Z" transform="translate(-0.112)" fill="#fff"/>
    <path id="パス_795" data-name="パス 795" d="M184.761,3.707V15.482h18.506V27.257H184.761V41.431h18.506V53.206h-18.4c1.524,20.062,16.656,20.171,16.656,20.171l-1.851,11.667s-25.038,0-26.562-31.838H154.607V41.431H173V27.257h-18.4V15.482H173V3.707Z" transform="translate(-0.239)" fill="#fff"/>
    <path id="パス_796" data-name="パス 796" d="M278.815,42.521c-1.633,2.181-3.376,4.253-5.227,6.325,7.4,14.828,1.307,36.2-21.662,36.2V73.268c9.689,0,13.172-7.959,11.866-15.155-5.988,4.906-12.192,8.5-17.744,10.14C235.7,71.2,222.642,67.708,222.642,55.6c0-11.12,8.273-17.881,17.527-19.952V21.37H222.423V9.6h17.746V3.707h11.757V9.6H269.67V21.37H251.925V35.107a23.8,23.8,0,0,1,13.826,4.47Q267.71,37.453,269.67,35Zm-38.646,5.016c-5.008,1.526-5.661,4.8-5.552,6.215.327,2.944,1.633,3.6,5.552,3.6Zm11.213,5.888a63.2,63.2,0,0,0,6.967-5.342,16.041,16.041,0,0,0-6.967-1.745Z" transform="translate(-0.344)" fill="#fff"/>
    <path id="パス_797" data-name="パス 797" d="M304.07,30.529c0,10.248,0,12.428,3.484,12.428V54.733c-14.37,0-15.24-6.215-15.24-22.569V9.6H304.07ZM312.234,79.7s12.192-19.844,12.192-75.994h11.758c0,60.511-13.5,81.336-13.5,81.336Z" transform="translate(-0.452)" fill="#fff"/>
    <path id="パス_798" data-name="パス 798" d="M372.961,23.878c20.575.327,38.973,19.3,8.818,61.166l-9.254-7.2c13.173-17.554,21.228-41.758.435-42.194V61.275H361.2V36.525c-4.79.654-8.383,1.417-8.383,1.417l-2.612-11.556s4.681-.982,10.995-1.745V3.707h11.757Zm17.854-7.851L401.7,11.666l10.451,26.276-11,4.362ZM404.2,0h6.858V13.956H404.2Zm9.471,0h6.858V13.956h-6.858Z" transform="translate(-0.541)" fill="#fff"/>
    <path id="パス_799" data-name="パス 799" d="M470.408,31.073c-40.715,23-25.909,51.789,0,39.251l2.721,11.448c-33.31,13.411-52.362-16.572-29.718-43.83l-12.3-34.235h12.519l9.036,25.186a98.9,98.9,0,0,1,12.193-8.178Z" transform="translate(-0.666)" fill="#fff"/>
    <path id="パス_800" data-name="パス 800" d="M513.167,85.044l-9.254-7.305c13.281-17.663,21.337-42.195,0-42.195-9.254,0-13.934,2.4-13.934,2.4l-4.463-10.9a49.584,49.584,0,0,1,18.4-3.271c20.684,0,39.626,19.08,9.254,61.275m8.6-79.374L520.9,17.445l-28.2-2.072.871-11.666Z" transform="translate(-0.75)" fill="#fff"/>
    <path id="パス_801" data-name="パス 801" d="M564.861,63.023H554.134l-.993-56.6h12.713ZM554.134,73.069h10.726V86H554.134Z" transform="translate(-0.854)" fill="#fff"/>
  </g>
</svg>
