<svg xmlns="http://www.w3.org/2000/svg" width="346.861" height="32.795" viewBox="0 0 346.861 32.795">
  <g id="配下1-3_素材" data-name="配下1-3＿素材" transform="translate(-2.17 -1.075)">
    <path id="パス_828" data-name="パス 828" d="M12.6-16.625l9.87-.42a19.143,19.143,0,0,1-.35,4.025,1.514,1.514,0,0,1-1.575,1.155,4.412,4.412,0,0,1-.98-.14,4.514,4.514,0,0,0-1.225-.245,1.905,1.905,0,0,0-1.855,1.925A1.973,1.973,0,0,0,17.5-8.54a8.2,8.2,0,0,0,3.675.7c3.15,0,4.3-1.925,4.69-4.76.21-1.54.315-3.045.42-4.585l3.78-.14c1.3-.07,2.73-.455,2.73-1.995,0-1.47-1.015-1.96-2.31-1.96H29.96l-3.57.14c.035-1.33.035-2.66.035-3.955,0-1.47-.035-3.115-1.96-3.115a1.7,1.7,0,0,0-1.855,1.47c-.1,1.47-.14,3.885-.14,5.74l-9.765.385.07-4.025c.035-1.435-.245-2.835-2-2.835-1.82,0-2.1,1.3-2.1,2.8v4.2l-3.78.14c-1.33.035-2.73.42-2.73,2.065,0,1.715,1.5,2,2.87,1.925l3.64-.14v10.15c0,2.065.21,3.99,2.03,5.25C12.565.21,15.855.6,20.825.6a51.863,51.863,0,0,0,7.1-.49c1.085-.28,2.065-.84,2.065-2.1a1.978,1.978,0,0,0-2.17-2,7.652,7.652,0,0,0-1.26.105,70.212,70.212,0,0,1-8.12.49,15.908,15.908,0,0,1-3.885-.35c-1.61-.42-2.03-1.365-2.03-2.94v-6.2Zm36.96,1.47c.49-1.155,1.785-4.1,2.905-6.51a21.212,21.212,0,0,0,1.89-5.11,1.932,1.932,0,0,0-2.1-1.75c-1.19,0-1.68,1.015-2.065,1.995-2.73,6.58-5.425,13.23-8.33,19.705C40.285-3.325,39.55-1.4,39.55-.7a2.025,2.025,0,0,0,2.065,1.96,1.664,1.664,0,0,0,1.3-.49,25.452,25.452,0,0,0,1.855-3.885,35.732,35.732,0,0,1,3.36-6.755c.945-1.4,2.59-3.01,4.445-3.01,1.715,0,1.96.875,1.96,2.625V-5.11a8.117,8.117,0,0,0,.525,3.43c.805,1.96,3.115,2.94,5.11,2.94,3.15,0,5.95-2.205,7.595-4.725.91-1.365,2.17-3.885,2.17-5.565a1.926,1.926,0,0,0-2.065-1.89c-1.26,0-1.5.77-2.065,2.59-.735,2.38-2.695,5.53-5.565,5.53-1.75,0-1.925-1.12-1.925-3.045v-4.9c0-1.82-.035-2.975-.84-4.06a4.792,4.792,0,0,0-3.885-1.855A6.574,6.574,0,0,0,49.56-15.155Zm36.54-1.47,9.87-.42a19.143,19.143,0,0,1-.35,4.025,1.514,1.514,0,0,1-1.575,1.155,4.412,4.412,0,0,1-.98-.14,4.514,4.514,0,0,0-1.225-.245,1.905,1.905,0,0,0-1.855,1.925A1.973,1.973,0,0,0,91-8.54a8.2,8.2,0,0,0,3.675.7c3.15,0,4.3-1.925,4.69-4.76.21-1.54.315-3.045.42-4.585l3.78-.14c1.295-.07,2.73-.455,2.73-1.995,0-1.47-1.015-1.96-2.31-1.96h-.525l-3.57.14c.035-1.33.035-2.66.035-3.955,0-1.47-.035-3.115-1.96-3.115a1.7,1.7,0,0,0-1.855,1.47c-.1,1.47-.14,3.885-.14,5.74l-9.765.385.07-4.025c.035-1.435-.245-2.835-2-2.835-1.82,0-2.1,1.3-2.1,2.8v4.2l-3.78.14c-1.33.035-2.73.42-2.73,2.065,0,1.715,1.505,2,2.87,1.925l3.64-.14v10.15c0,2.065.21,3.99,2.03,5.25C86.065.21,89.355.6,94.325.6a51.863,51.863,0,0,0,7.105-.49c1.085-.28,2.065-.84,2.065-2.1a1.978,1.978,0,0,0-2.17-2,7.652,7.652,0,0,0-1.26.105,70.212,70.212,0,0,1-8.12.49,15.908,15.908,0,0,1-3.885-.35c-1.61-.42-2.03-1.365-2.03-2.94v-6.2Zm27.93,2.59c0,3.92.805,8.19,3.115,11.445a6.027,6.027,0,0,0,4.8,2.835,6.176,6.176,0,0,0,4.235-2.03c.91-.91,1.925-2.205,1.925-3.36a1.808,1.808,0,0,0-1.82-1.82,1.615,1.615,0,0,0-1.365.7c-.91,1.26-1.75,2.24-2.87,2.24a1.687,1.687,0,0,1-1.26-.49c-2.345-2.24-2.94-5.845-2.94-8.96a27.108,27.108,0,0,1,1.575-8.855,7.974,7.974,0,0,0,.6-2.345,2.01,2.01,0,0,0-2.065-2,2.13,2.13,0,0,0-1.855,1.225,6.832,6.832,0,0,0-.63,1.855A36.707,36.707,0,0,0,114.03-14.035Zm23.31,5.11c0,.98-.1,1.96-.1,2.975,0,1.225.42,2.17,1.785,2.17,2.45,0,2.485-2.73,2.485-4.515A20.54,20.54,0,0,0,137.48-20.93c-1.33-1.715-2.59-2.695-3.64-2.695a2.028,2.028,0,0,0-1.925,2,3.246,3.246,0,0,0,1.26,2.17A14.959,14.959,0,0,1,137.34-8.925Z" transform="translate(0 31)" fill="#fff"/>
    <g id="グループ_3" data-name="グループ 3" transform="translate(172.011 12.567)">
      <line id="線_1" data-name="線 1" x2="13.409" y2="13.409" fill="none" stroke="#fff" stroke-linecap="round" stroke-width="2"/>
      <line id="線_2" data-name="線 2" x1="13.409" y2="13.409" fill="none" stroke="#fff" stroke-linecap="round" stroke-width="2"/>
    </g>
    <path id="パス_827" data-name="パス 827" d="M22.12-21.035l-4.375,1.19v-4.48a3.375,3.375,0,0,0-.28-1.435,1.426,1.426,0,0,0-1.365-.77,1.369,1.369,0,0,0-1.155.455,2.54,2.54,0,0,0-.49,1.75v5.39l-1.575.42c-.14.035-.385.1-.56.14a1.831,1.831,0,0,0,.42-1.19c0-1.785-1.47-1.785-2.8-1.785H8.96v-4.83a3.336,3.336,0,0,0-.245-1.33,1.523,1.523,0,0,0-1.4-.805,1.407,1.407,0,0,0-1.12.455,2.48,2.48,0,0,0-.49,1.715v4.795H4.585c-1.365,0-2.8,0-2.8,1.785s1.435,1.785,2.8,1.785H5.7V-3.92c-.84.245-1.925.56-2.87.91A1.782,1.782,0,0,0,1.68-1.33,1.824,1.824,0,0,0,3.325.6,8.421,8.421,0,0,0,5.6.035,45.1,45.1,0,0,0,10.115-1.82c1.715-.84,2.695-1.33,2.695-2.485A1.779,1.779,0,0,0,11.1-6.09a6.389,6.389,0,0,0-2.135.84V-17.78h2.065a1.738,1.738,0,0,0-.49,1.155A1.806,1.806,0,0,0,12.18-14.77a8.528,8.528,0,0,0,1.645-.385l.63-.175v14.1A3.616,3.616,0,0,0,16.1,1.82a7.144,7.144,0,0,0,3.5.7h8.26A5.691,5.691,0,0,0,31.815,1.3C33.145.07,33.53-2.555,33.53-3.85A1.692,1.692,0,0,0,31.815-5.7c-1.085,0-1.575.77-1.715,1.715C29.68-1.4,29.3-.7,27.51-.7H20.055c-.98,0-2.31-.315-2.31-1.54V-16.275l4.375-1.26v11.41c0,1.645.735,2.17,1.645,2.17,1.05,0,1.68-.665,1.68-2.17v-12.39l2.835-.805c.595-.175.875.14.875.56v7.84c0,.665-.77.7-1.26.7A1.563,1.563,0,0,0,26.18-8.575a1.848,1.848,0,0,0,.49,1.33,2.924,2.924,0,0,0,2.03.525c2.135,0,3.85-.595,3.85-3.045V-20.02a3.41,3.41,0,0,0-.8-2.45,2.376,2.376,0,0,0-2.275-.56l-4.025,1.085V-26.88a3.877,3.877,0,0,0-.245-1.5,1.443,1.443,0,0,0-1.435-.84,1.579,1.579,0,0,0-1.155.42,2.8,2.8,0,0,0-.49,1.75Zm38.15,0c0,5.25.035,10.15,1.47,15.05a17.51,17.51,0,0,1-7.1,5.18c-.91.385-1.75.875-1.75,1.96A1.778,1.778,0,0,0,54.67,2.87c1.015,0,3.045-1.19,3.92-1.75a23.8,23.8,0,0,0,4.375-3.57A20.675,20.675,0,0,0,65.45,1.575a3.035,3.035,0,0,0,2.17,1.3,2,2,0,0,0,1.715-1.085A27.524,27.524,0,0,0,70.91-4.27,1.8,1.8,0,0,0,69.3-6.2c-.98,0-1.3.735-1.47,1.68a15.671,15.671,0,0,1-.42,1.61c-.14.385-.245.63-.35.63s-.28-.245-.49-.63A22.993,22.993,0,0,1,65.45-5.46a40.187,40.187,0,0,0,4.06-9.2,10.652,10.652,0,0,0,.49-2.45,1.637,1.637,0,0,0-1.68-1.575c-1.26,0-1.54,1.015-1.925,2.345-.63,2.17-1.365,4.235-2.1,6.125-.175-1.155-.35-2.345-.455-3.535-.14-1.89-.14-3.78-.14-5.775v-1.5h4.585c1.68,0,2.24-.595,2.24-1.54a1.576,1.576,0,0,0-1.435-1.47,1.718,1.718,0,0,0,.525-1.26,2.711,2.711,0,0,0-.56-1.365c-.455-.665-1.645-2.135-2.135-2.73a1.445,1.445,0,0,0-1.155-.525A1.472,1.472,0,0,0,64.26-28.42a1.411,1.411,0,0,0,.21.77c.42.665.91,1.26,1.33,1.855.42.56.805,1.155,1.225,1.715H63.7v-2.03a6.174,6.174,0,0,0-.385-2.275,1.353,1.353,0,0,0-1.365-.735,1.511,1.511,0,0,0-1.4.77,4.118,4.118,0,0,0-.28,1.715v2.555H49.595c-1.085,0-1.925.49-1.925,1.54,0,1.19,1.085,1.5,2.275,1.5Zm-15.365.35V-26.53c0-1.085-.455-1.96-1.575-1.96s-1.575.91-1.575,1.995v5.81h-1.26c-1.225,0-2.205.385-2.205,1.68,0,1.435,1.12,1.68,2.17,1.68h1.295v12.11c-.735.28-1.47.49-2.2.7A1.752,1.752,0,0,0,38.115-2.87a1.77,1.77,0,0,0,1.61,1.82,5.837,5.837,0,0,0,1.645-.385A46.342,46.342,0,0,0,46.9-3.71c.21.91.7,1.26,1.855,1.26A50.96,50.96,0,0,0,56.91-3.64c2.135-.49,2.7-.805,2.7-1.96A1.585,1.585,0,0,0,57.96-7.175a4.994,4.994,0,0,0-1.225.21,40.335,40.335,0,0,1-5.46.875c-.84.07-1.68.1-2.485.175a1.509,1.509,0,0,0-1.435-1.4,2.776,2.776,0,0,0-1.12.245c-.455.21-.91.455-1.33.63V-17.325h1.26c1.085,0,2.03-.385,2.03-1.68,0-1.225-.945-1.68-1.925-1.68Zm3.78,9.555c0,1.82.735,2.8,2.66,2.8h5.25c1.75,0,2.45-1.155,2.45-2.8v-5.285c0-1.47-1.085-2.135-2.45-2.135h-5.46a2.3,2.3,0,0,0-2.45,2.52Zm6.685-4.34a.663.663,0,0,1,.665.735v2.45c0,.455-.1.84-.63.84H52.78c-.455,0-.84-.14-.84-.665v-2.625c0-.35.07-.735.49-.735ZM81.095-9.485v9.8c0,1.33.07,2.555,1.645,2.555a1.758,1.758,0,0,0,1.33-.49A2.48,2.48,0,0,0,84.56.665V-11.06c1.61,2.24,2.73,3.29,3.85,3.29a1.68,1.68,0,0,0,1.68-1.68,2.377,2.377,0,0,0-.91-1.645,30.745,30.745,0,0,1-3.535-3.85c1.015-1.54,2.975-5.075,2.975-6.86a2.115,2.115,0,0,0-2.065-2.17H84.42V-27.23a2.419,2.419,0,0,0-.525-1.785A1.709,1.709,0,0,0,82.74-29.4a1.579,1.579,0,0,0-1.155.42,2.652,2.652,0,0,0-.49,1.75v3.255h-3.15a3.471,3.471,0,0,0-1.225.245,1.392,1.392,0,0,0-.805,1.47,1.494,1.494,0,0,0,.49,1.225,2.573,2.573,0,0,0,1.68.49H83.93c.49,0,.63.07.63.315,0,.735-1.225,2.8-1.645,3.465a20.743,20.743,0,0,1-4.865,5.46c-.63.455-1.75,1.33-2.17,1.715a1.611,1.611,0,0,0-.455,1.155A1.705,1.705,0,0,0,77.1-6.65C78.155-6.65,80.325-8.715,81.095-9.485ZM96.355-1.5H90.23a2.865,2.865,0,0,0-1.33.315A1.507,1.507,0,0,0,88.2.245a1.658,1.658,0,0,0,.455,1.26A2.293,2.293,0,0,0,90.23,2H105.8a2.593,2.593,0,0,0,1.12-.245,1.513,1.513,0,0,0,.805-1.5,1.693,1.693,0,0,0-.525-1.33,2.64,2.64,0,0,0-1.645-.42H99.89v-16.03H105.1a2.817,2.817,0,0,0,1.155-.245,1.52,1.52,0,0,0,.77-1.47,1.629,1.629,0,0,0-.455-1.225,2.179,2.179,0,0,0-1.575-.49H99.89V-26.74c0-1.26-.035-2.66-1.715-2.66-1.785,0-1.82,1.33-1.82,2.66v5.775H90.86a2.085,2.085,0,0,0-1.155.245,1.559,1.559,0,0,0-.805,1.47,1.564,1.564,0,0,0,.49,1.26,2.458,2.458,0,0,0,1.575.455h5.39Zm16.38-17.605a1.818,1.818,0,0,0,1.715,1.855,1.982,1.982,0,0,0,1.015-.245c1.435-.805,2.9-1.645,4.27-2.52,1.715-1.085,5.53-3.57,6.965-4.69,1.05-.84,1.575-1.12,1.96-1.12a1.351,1.351,0,0,1,.7.28c2,1.435,12.11,8.575,13.86,8.575a1.8,1.8,0,0,0,1.75-1.855c0-.945-.8-1.365-1.54-1.75a89.5,89.5,0,0,1-8.925-5.635c-1.575-1.19-3.22-2.38-4.025-2.835a3.491,3.491,0,0,0-1.75-.42,3.2,3.2,0,0,0-1.4.245,29.8,29.8,0,0,0-4.305,2.87,70.775,70.775,0,0,1-8.96,5.53C113.365-20.44,112.735-19.985,112.735-19.11Zm7.91-.35c-1.365,0-2.065.735-2.065,1.75,0,1.19.63,1.75,2.17,1.75h15.33c1.365,0,1.995-.735,1.995-1.75,0-1.085-.735-1.75-2.17-1.75ZM142.31-8.68c1.33,0,2.1-.7,2.1-1.68,0-1.12-.91-1.715-2.205-1.715H115.4c-1.4,0-2.24.665-2.24,1.715s.735,1.68,2.17,1.68H121.8a68.394,68.394,0,0,1-3.045,7.21c-1.085.035-2.9.105-3.535.21A1.813,1.813,0,0,0,113.75.455c0,1.365,1.085,1.855,2.31,1.855,1.575,0,5.565-.315,8.5-.56,4.865-.42,9.8-.84,14.525-1.365,1.4,2.17,1.715,2.485,2.59,2.485A1.8,1.8,0,0,0,143.4,1.085c0-.91-2.065-3.64-2.975-4.83a40.654,40.654,0,0,0-3.01-3.57,1.588,1.588,0,0,0-1.155-.56,1.712,1.712,0,0,0-1.75,1.75,1.565,1.565,0,0,0,.42,1.085,28.208,28.208,0,0,1,1.855,2.31c-4.76.42-9.485.735-14.21,1.05,1.05-2.31,2.03-4.62,2.905-7Z" transform="translate(204.061 31)" fill="#fff"/>
  </g>
</svg>
