<svg xmlns="http://www.w3.org/2000/svg" xmlns:xlink="http://www.w3.org/1999/xlink" width="80" height="80" viewBox="0 0 80 80">
  <defs>
    <clipPath id="clip-path">
      <rect id="長方形_1050" data-name="長方形 1050" width="80" height="80"/>
    </clipPath>
  </defs>
  <g id="白ロゴ" clip-path="url(#clip-path)">
    <path id="パス_104" data-name="パス 104" d="M81.856,21.717a.486.486,0,0,0,.486-.486V17.467a.486.486,0,1,0-.971,0v3.765a.486.486,0,0,0,.486.486" transform="translate(-41.856 -8.735)"/>
    <path id="パス_105" data-name="パス 105" d="M119.965,102.986l-1.7-.618a.485.485,0,1,0-.333.912l1.7.619a.485.485,0,0,0,.623-.29.485.485,0,0,0-.29-.623" transform="translate(-60.499 -52.641)"/>
    <path id="パス_106" data-name="パス 106" d="M129.454,98.51a.486.486,0,0,0,.084-.964l-5.231-.923a.486.486,0,0,0-.169.957l5.231.923a.505.505,0,0,0,.085.007" transform="translate(-63.648 -49.698)"/>
    <path id="パス_107" data-name="パス 107" d="M142.049,99.753l-1.353-.238a.486.486,0,1,0-.169.957l1.353.238a.513.513,0,0,0,.085.007.486.486,0,0,0,.084-.964" transform="translate(-72.079 -51.185)"/>
    <path id="パス_108" data-name="パス 108" d="M120.626,89.146a.486.486,0,0,0,0,.971h2.63a.486.486,0,1,0,0-.971Z" transform="translate(-61.798 -45.855)"/>
    <path id="パス_109" data-name="パス 109" d="M140,89.146h-5.362a.486.486,0,1,0,0,.971H140a.486.486,0,1,0,0-.971" transform="translate(-69.004 -45.855)"/>
    <path id="パス_110" data-name="パス 110" d="M136.76,77.82l-8.771,1.546a.486.486,0,0,0,.084.964.514.514,0,0,0,.085-.007l8.771-1.546a.486.486,0,0,0-.169-.957" transform="translate(-65.629 -40.026)"/>
    <path id="パス_111" data-name="パス 111" d="M140.547,67.593a.485.485,0,0,0,.623.29l1.755-.639a.486.486,0,1,0-.332-.913l-1.755.639a.486.486,0,0,0-.29.623" transform="translate(-72.28 -34.105)"/>
    <path id="パス_112" data-name="パス 112" d="M121.762,62.894a.486.486,0,0,0,.663.178l6.047-3.491a.486.486,0,0,0-.486-.841l-6.047,3.491a.486.486,0,0,0-.178.663" transform="translate(-62.599 -30.181)"/>
    <path id="パス_113" data-name="パス 113" d="M131.736,46.963a.483.483,0,0,0,.312-.114l1.462-1.226a.486.486,0,0,0-.624-.744l-1.462,1.227a.485.485,0,0,0,.312.858" transform="translate(-67.513 -23.027)"/>
    <path id="パス_114" data-name="パス 114" d="M117.071,28.624a.477.477,0,0,0,.237.063.5.5,0,0,0,.43-.248.485.485,0,1,0-.841-.485l-.008.014a.479.479,0,0,0,.182.657" transform="translate(-60.093 -14.254)"/>
    <path id="パス_115" data-name="パス 115" d="M104.817,24.618a.474.474,0,0,0,.166.03.486.486,0,0,0,.456-.32l.662-1.82a.486.486,0,0,0-.913-.332L104.527,24a.485.485,0,0,0,.29.622" transform="translate(-53.752 -11.242)"/>
    <path id="パス_116" data-name="パス 116" d="M93.318,21.837a.506.506,0,0,0,.085.007.486.486,0,0,0,.478-.4l.464-2.633a.486.486,0,0,0-.957-.169l-.464,2.633a.486.486,0,0,0,.394.563" transform="translate(-47.795 -9.382)"/>
    <path id="パス_117" data-name="パス 117" d="M44.928,108.491l-.993.573a.486.486,0,1,0,.486.841l.993-.574a.486.486,0,0,0-.486-.841" transform="translate(-22.474 -55.773)"/>
    <path id="パス_118" data-name="パス 118" d="M41.574,102.409a.484.484,0,0,0-.622-.29l-3.825,1.392a.486.486,0,1,0,.332.912l3.825-1.392a.485.485,0,0,0,.29-.622" transform="translate(-18.933 -52.513)"/>
    <path id="パス_119" data-name="パス 119" d="M34.326,96.824a.486.486,0,0,0-.563-.394L27.4,97.552a.485.485,0,0,0,.084.963.506.506,0,0,0,.085-.007l6.363-1.122a.486.486,0,0,0,.394-.563" transform="translate(-13.888 -49.598)"/>
    <path id="パス_120" data-name="パス 120" d="M21.145,99.672l-.917.162a.485.485,0,0,0,.084.963.454.454,0,0,0,.084-.007l.917-.161a.486.486,0,0,0-.169-.957" transform="translate(-10.199 -51.266)"/>
    <path id="パス_121" data-name="パス 121" d="M30.856,89.147a.486.486,0,1,0,0,.971h4.71a.486.486,0,1,0,0-.971Z" transform="translate(-15.622 -45.856)"/>
    <path id="パス_122" data-name="パス 122" d="M20.313,89.632a.486.486,0,0,0-.486-.486H18.035a.486.486,0,1,0,0,.971h1.793a.486.486,0,0,0,.486-.486" transform="translate(-9.027 -45.855)"/>
    <path id="パス_123" data-name="パス 123" d="M27.409,80.525a.506.506,0,0,0,.085.007.486.486,0,0,0,.084-.964l-9.917-1.749a.486.486,0,1,0-.169.957Z" transform="translate(-8.791 -40.025)"/>
    <path id="パス_124" data-name="パス 124" d="M18.927,67.244l8.065,2.936a.486.486,0,1,0,.332-.912l-8.065-2.936a.486.486,0,1,0-.332.912" transform="translate(-9.571 -34.105)"/>
    <path id="パス_125" data-name="パス 125" d="M22.829,56.114l2.451,1.416a.486.486,0,1,0,.486-.841l-2.451-1.416a.486.486,0,0,0-.486.841" transform="translate(-11.618 -28.398)"/>
    <path id="パス_126" data-name="パス 126" d="M33.51,61.719a.486.486,0,0,0,.178.663l3.988,2.3a.486.486,0,1,0,.486-.841l-3.988-2.3a.485.485,0,0,0-.663.178" transform="translate(-17.204 -31.623)"/>
    <path id="パス_127" data-name="パス 127" d="M34.766,50.754a.486.486,0,1,0,.624-.744l-6.113-5.13a.486.486,0,1,0-.624.744Z" transform="translate(-14.649 -23.027)"/>
    <path id="パス_128" data-name="パス 128" d="M38.273,38.448a.486.486,0,1,0,.744-.624l-1.834-2.186a.486.486,0,0,0-.744.625Z" transform="translate(-18.685 -18.242)"/>
    <path id="パス_129" data-name="パス 129" d="M46.823,27.982a.486.486,0,1,0-.841.486l.193.335a.486.486,0,0,0,.841-.486Z" transform="translate(-23.619 -14.269)"/>
    <path id="パス_130" data-name="パス 130" d="M58.391,23.743l-.571-1.568a.486.486,0,1,0-.912.332l.571,1.568a.486.486,0,0,0,.456.32.472.472,0,0,0,.166-.03.485.485,0,0,0,.29-.622" transform="translate(-29.257 -11.242)"/>
    <path id="パス_131" data-name="パス 131" d="M69.811,21.813a.506.506,0,0,0,.085-.007.486.486,0,0,0,.394-.563l-.458-2.6a.486.486,0,0,0-.957.169l.458,2.6a.486.486,0,0,0,.478.4" transform="translate(-35.425 -9.382)"/>
    <path id="パス_132" data-name="パス 132" d="M117.006,42.162a.486.486,0,0,0,.372-.173l4.805-5.726a.486.486,0,0,0-.744-.625l-4.805,5.726a.486.486,0,0,0,.372.8" transform="translate(-59.936 -18.242)"/>
    <path id="パス_133" data-name="パス 133" d="M119.4,54.526a.486.486,0,0,0-.684-.06l-4.049,3.4a.485.485,0,0,0,.312.858.481.481,0,0,0,.312-.114l4.049-3.4a.485.485,0,0,0,.06-.684" transform="translate(-58.896 -27.958)"/>
    <path id="パス_134" data-name="パス 134" d="M138.9,56.665a.482.482,0,0,0,.242-.065l.844-.488a.486.486,0,0,0-.486-.841l-.844.488a.486.486,0,0,0,.244.906" transform="translate(-71.199 -28.397)"/>
    <path id="パス_135" data-name="パス 135" d="M126.34,71.413a.485.485,0,0,0-.623-.29l-5.259,1.914a.486.486,0,1,0,.332.913l5.259-1.914a.486.486,0,0,0,.29-.623" transform="translate(-61.798 -36.569)"/>
    <path id="パス_136" data-name="パス 136" d="M135,108.459l-1.175-.428a.486.486,0,1,0-.333.912l1.175.428a.491.491,0,0,0,.167.03.486.486,0,0,0,.166-.942" transform="translate(-68.503 -55.554)"/>
    <path id="パス_137" data-name="パス 137" d="M67.069,74.834h1.72v-1.7h-1.72V71.176H65.3v1.962H63.8V71.176H62.03v1.962H60.309v1.7H62.03v1.793H59.51v1.7h4.167v.921H60.383v7.994h8.333V79.243H65.421v-.921h4.167v-1.7H67.069ZM63.677,85.542H62.224V84.088h1.453Zm0-3.149H62.224V80.939h1.453ZM65.3,76.627H63.8V74.834h1.5Zm1.574,8.915H65.421V84.088h1.453Zm0-3.149H65.421V80.939h1.453Z" transform="translate(-30.611 -36.612)"/>
    <path id="パス_138" data-name="パス 138" d="M89.229,83.9H84.65v1.817h3.61Z" transform="translate(-43.543 -43.156)"/>
    <path id="パス_139" data-name="パス 139" d="M84.65,74.539h3.876l.969-1.817H84.65Z" transform="translate(-43.543 -37.407)"/>
    <path id="パス_140" data-name="パス 140" d="M100.684,77.79h2.18V75.949H95.887V73.913H101l1.478-2.737H100.32l-.509.945H94V83.313H92.084v1.841H103.3V83.313h-2.616Zm-1.89,5.523H95.887V77.79h2.907Z" transform="translate(-47.367 -36.612)"/>
    <path id="パス_141" data-name="パス 141" d="M101.171,40.781h3.26l.994-1.862h-4.253V33.905h4.7l1.574-2.921h-2.22l-.568,1.059H99.308V49.385l1.863-.994Z" transform="translate(-51.083 -15.938)"/>
    <path id="パス_142" data-name="パス 142" d="M50.542,32.042V49.385l1.863-.994V32.7l.925-1.716h-2.22Z" transform="translate(-25.998 -15.937)"/>
    <path id="パス_143" data-name="パス 143" d="M65.983,46.657H61.137V40.781H64.4l.994-1.863H61.137V33.905h4.5l1.574-2.921h-2.22l-.568,1.059H59.274V48.52h7.7Z" transform="translate(-30.49 -15.938)"/>
    <path id="パス_144" data-name="パス 144" d="M82.632,48.391V33.905h2.976l1.574-2.922h-2.22l-.568,1.059h-6.6v1.863h2.975v15.48Z" transform="translate(-40.016 -15.937)"/>
    <path id="パス_145" data-name="パス 145" d="M80,40A40,40,0,1,0,40,80h0c.067,0,.132,0,.2,0A40.043,40.043,0,0,0,80,40M40,60.728a8.665,8.665,0,1,1-8.665,8.665A8.674,8.674,0,0,1,40,60.728M29.765,53.944a8.858,8.858,0,0,1,6.146,2.965l1.882,2.11a10.51,10.51,0,0,0-2.442.843L34.133,58.5a6.491,6.491,0,0,0-4.5-2.172,6.414,6.414,0,0,0-.759,0,6.511,6.511,0,0,0-1.157.168c-.046.011-.091.025-.157.045-.152.041-.3.083-.452.135-.068.023-.135.051-.2.08l-.135.055c-.085.033-.17.066-.252.1-.052.025-.1.051-.189.1l-.052.026c-.109.055-.219.11-.325.173-.039.023-.077.048-.129.084-.137.085-.274.172-.408.27-.047.035-.093.073-.139.111l-.079.064c-.1.074-.191.15-.284.232a.289.289,0,0,1-.191.055.269.269,0,0,1-.183-.076L23.124,56.37l.2-.176a8.857,8.857,0,0,1,6.444-2.249M60.394,64.322a8.919,8.919,0,0,1-10.628.932,10.641,10.641,0,0,0-8.1-6.336l.037-.024.034-.023a4.551,4.551,0,0,1,1.7-.616c.133-.018.269-.033.409-.041.069,0,.132-.005.2-.007.113,0,.227,0,.341,0a4.562,4.562,0,0,1,3.165,1.526l2.037,2.282c.145.163.3.317.456.463a6.481,6.481,0,0,0,4.047,1.709c.159.009.32.009.513,0a6.54,6.54,0,0,0,1.224-.141c.034-.007.07-.012.1-.02.111-.026.22-.058.33-.089.085-.024.169-.047.253-.074s.184-.066.274-.1.2-.077.294-.119c.08-.035.159-.072.237-.11.106-.052.211-.108.314-.166.069-.038.138-.076.205-.117.116-.07.228-.146.339-.224.053-.036.107-.071.159-.109.162-.12.321-.247.473-.383a.26.26,0,0,1,.19-.055.268.268,0,0,1,.183.076l1.411,1.581ZM53,70.8a13.365,13.365,0,0,1-2.434-.5c.026-.3.042-.6.042-.91a10.667,10.667,0,0,0-.124-1.624,10.771,10.771,0,0,0,3.358.742q.316.018.63.018a10.772,10.772,0,0,0,4.395-.942A33.43,33.43,0,0,1,53,70.8m10.177-6.726c-.175-.167-.348-.337-.51-.519L60.63,61.272a2.217,2.217,0,0,0-1.522-.723c-.043,0-.085,0-.128,0a2.209,2.209,0,0,0-1.466.549,4.536,4.536,0,0,1-2.8,1.156l-.154,0c-.121,0-.242,0-.365,0a4.561,4.561,0,0,1-3.164-1.527L49,58.444a6.593,6.593,0,0,0-6.419-2c-.046.011-.091.025-.166.048-.149.04-.3.081-.442.132-.07.024-.138.053-.207.082l-.132.053c-.085.033-.17.066-.252.1-.052.025-.1.051-.19.1l-.052.026c-.109.055-.218.11-.325.173-.039.023-.077.048-.129.084-.137.086-.275.172-.408.27-.048.035-.093.073-.139.111l-.081.065c-.1.074-.191.149-.282.231a.278.278,0,0,1-.191.055A.268.268,0,0,1,39.4,57.9l-1.411-1.581.2-.176a8.916,8.916,0,0,1,12.59.715l2.036,2.281a2.255,2.255,0,0,0,2.772.428c.021-.013.039-.031.06-.044a2.092,2.092,0,0,0,.285-.207h0l.021-.018a4.812,4.812,0,0,1,.433-.335c.063-.041.125-.084.189-.123l.052-.035a4.531,4.531,0,0,1,1.153-.489l.015,0h0A4.578,4.578,0,0,1,58.3,58.2c.131-.018.266-.032.4-.04h0c.067,0,.128,0,.19-.006.115,0,.23,0,.346,0a4.562,4.562,0,0,1,3.165,1.527l2.037,2.282c.125.139.261.264.4.39q-.8.888-1.664,1.716m2.923-3.2c-.068-.067-.141-.128-.206-.2l-2.037-2.282a6.6,6.6,0,0,0-.949-.875,6.489,6.489,0,0,0-3.555-1.3h0c-.16-.01-.333-.009-.512,0-.08,0-.159,0-.238.008H58.6l-.04,0c-.184.012-.368.028-.549.055-.082.012-.159.031-.239.046-.118.022-.236.04-.352.069-.04.01-.081.022-.14.041s-.1.032-.155.047c-.125.037-.25.074-.373.118-.041.017-.083.032-.124.049l-.132.053c-.062.024-.123.05-.184.076l-.086.037c-.046.022-.094.048-.17.089l-.044.022q-.141.071-.276.147l-.1.056c-.028.018-.055.034-.091.059-.1.065-.207.134-.309.2-.032.022-.066.041-.1.064h0c-.047.035-.093.072-.138.11l-.085.068c-.095.073-.188.148-.278.227a.278.278,0,0,1-.191.056.268.268,0,0,1-.183-.077l-1.411-1.581.2-.176a8.891,8.891,0,0,1,2.843-1.708h.045v-.018a8.916,8.916,0,0,1,9.7,2.442l1.9,2.134q-.686.994-1.44,1.935m2.537-3.623-.927-1.038.2-.176a8.8,8.8,0,0,1,2.156-1.4q-.657,1.343-1.426,2.617m2.508-5.076a10.8,10.8,0,0,0-4.531,2.413l-.234.209a10.877,10.877,0,0,0-11-2.3h-.927l-1.7-3.173H50.677L53,53.692a10.968,10.968,0,0,0-1.247.947l-.234.208a10.757,10.757,0,0,0-3.691-2.264l1.735-3.266H47.478L45.991,52.1a11.041,11.041,0,0,0-1.253-.151c-.343-.02-.684-.021-1.023-.009l1.657-3.111H43.264l-1.816,3.435a10.7,10.7,0,0,0-2.471.972v-.651H37.669l-.848-1.575H34.737L36.53,54.38h.745c-.128.1-.261.2-.385.311l-.236.21a10.748,10.748,0,0,0-4.386-2.482l.749-1.407H30.934l-.562,1.044c-.166-.017-.329-.043-.5-.052a10.926,10.926,0,0,0-2.139.085V44.206l.824,1.55.873-1.647-1.648-3.125V39.845h1.792v-1.7H27.785V34.564H25.944v3.585H24.151v1.7h1.793v1.212l-1.89,3.561h-.412l.969,1.841h.436l.945-1.769v7.8a10.813,10.813,0,0,0-3.964,2.249l-.235.209A10.817,10.817,0,0,0,9.327,53.309a33.441,33.441,0,1,1,61.819-1.134M14.9,54a8.859,8.859,0,0,1,6.145,2.964l2.038,2.283a2.223,2.223,0,0,0,3.037.236c.025-.021.055-.035.079-.057.051-.046.1-.086.159-.128q.173-.141.356-.264c.042-.027.085-.057.126-.083l.027-.018a4.544,4.544,0,0,1,1.715-.622c.108-.015.219-.025.333-.034l.075-.007c.06,0,.114,0,.169-.006.119,0,.237,0,.357,0a4.563,4.563,0,0,1,3.165,1.526l.982,1.1a10.727,10.727,0,0,0-1.738,1.633l-1.022-1.146a2.217,2.217,0,0,0-1.522-.723c-.043,0-.085,0-.128,0a2.209,2.209,0,0,0-1.466.549,4.529,4.529,0,0,1-2.8,1.155l-.156,0c-.122,0-.244,0-.366,0a4.562,4.562,0,0,1-3.165-1.527l-2.037-2.282a6.6,6.6,0,0,0-6.415-2c-.048.012-.094.026-.162.047-.152.041-.3.083-.455.135-.067.023-.132.051-.2.078l-.14.056c-.084.033-.169.066-.25.1-.052.025-.1.051-.19.1l-.052.027c-.036.018-.073.039-.109.058q-.61-1.018-1.147-2.083A8.829,8.829,0,0,1,14.9,54M13.4,58.419H13.4c.118-.026.237-.046.357-.063.092-.012.186-.021.281-.028l.107-.009c.063,0,.121,0,.179-.006.11,0,.219,0,.33,0a4.562,4.562,0,0,1,3.165,1.526l2.037,2.282a6.552,6.552,0,0,0,1.307,1.119c.131.085.265.166.4.242a6.457,6.457,0,0,0,.91.424c.108.039.22.069.33.1.093.029.185.063.279.087a6.588,6.588,0,0,0,1.276.2c.156.009.315.008.5,0a6.5,6.5,0,0,0,1.224-.139c.037-.008.075-.013.113-.022.108-.025.214-.056.321-.086.088-.025.177-.05.264-.078s.177-.063.264-.1c.1-.039.205-.08.306-.124.077-.034.153-.069.229-.106.109-.053.216-.11.322-.169.067-.037.135-.074.2-.115.115-.069.226-.145.337-.222.055-.038.11-.073.164-.113.159-.118.314-.242.464-.375l.007-.006h0a.266.266,0,0,1,.19-.054.269.269,0,0,1,.183.076l1.326,1.486c-.061.107-.121.216-.178.325a8.91,8.91,0,0,1-12.523-.769L16.044,61.43a2.215,2.215,0,0,0-1.522-.723c-.043,0-.085,0-.128,0a2.232,2.232,0,0,0-.565.081q-.77-.967-1.468-1.991a4.55,4.55,0,0,1,1.035-.373m10.72,10.2q.316.017.63.018a10.71,10.71,0,0,0,4.822-1.15,10.628,10.628,0,0,0-.175,1.91c0,.247.011.49.028.733a13.2,13.2,0,0,1-2.432.668,33.425,33.425,0,0,1-4.7-2.447,10.972,10.972,0,0,0,1.823.269M48.153,76.17a10.637,10.637,0,0,0,1.365-2.1,35.385,35.385,0,1,0-19.036,0,10.637,10.637,0,0,0,1.365,2.1,37.087,37.087,0,1,1,16.305,0"/>
    <path id="パス_146" data-name="パス 146" d="M74.351,142.449a7.571,7.571,0,1,0-7.571-7.571,7.571,7.571,0,0,0,7.571,7.571m.823-6.308A4.176,4.176,0,0,1,75.729,134l1.692-3.166h1.112l-1.668,3.07c.907-.23,1.813.447,1.813,1.825V137.2a1.833,1.833,0,0,1-1.752,2.067c-1.076,0-1.752-.858-1.752-2.067Zm-.943-5.305v8.315h-.991V131.8h-.362l-.52-.967Zm-2.647,0v8.315h-.991V131.8H70.23l-.52-.967Z" transform="translate(-34.351 -65.485)"/>
    <path id="パス_147" data-name="パス 147" d="M86.865,146.114c.507,0,.761-.459.761-1.064v-1.474c0-.689-.314-1.063-.761-1.063s-.761.351-.761,1.063v1.474c0,.628.266,1.064.761,1.064" transform="translate(-44.291 -73.307)"/>
  </g>
</svg>
