<svg xmlns="http://www.w3.org/2000/svg" width="7.91" height="129" viewBox="0 0 7.91 129">
  <g id="topへ" transform="translate(0 1)">
    <line id="線_69" data-name="線 69" y2="80" transform="translate(4.17)" fill="none" stroke="#0d92a3" stroke-linecap="round" stroke-width="2"/>
    <path id="パス_61" data-name="パス 61" d="M-9.045,0V-6.4h2.22V-7.56h-5.73V-6.4h2.23V0ZM4-3.75A3.988,3.988,0,0,0-.1-7.74a4.047,4.047,0,0,0-4.13,3.96A4.045,4.045,0,0,0-.1.17,4.052,4.052,0,0,0,4-3.75Zm-1.36-.01A2.768,2.768,0,0,1-.165-.98a2.838,2.838,0,0,1-2.7-2.84A2.749,2.749,0,0,1-.1-6.58,2.756,2.756,0,0,1,2.645-3.76ZM8.855,0V-2.6h.55c2.04,0,2.99-1.03,2.99-2.55,0-1.83-1.38-2.42-3.17-2.42H7.575V0Zm0-3.76V-6.4h.72c.96,0,1.47.47,1.47,1.24,0,.81-.56,1.4-1.67,1.4Z" transform="translate(0.17 103) rotate(90)" fill="#0d92a3"/>
    <circle id="楕円形_2" data-name="楕円形 2" cx="3" cy="3" r="3" transform="translate(1.17 122)" fill="#0d92a3"/>
  </g>
</svg>
