<svg xmlns="http://www.w3.org/2000/svg" xmlns:xlink="http://www.w3.org/1999/xlink" width="570" height="82" viewBox="0 0 570 82">
  <defs>
    <clipPath id="clip-path">
      <rect id="長方形_116" data-name="長方形 116" width="570" height="82" fill="none"/>
    </clipPath>
  </defs>
  <g id="グループ_125" data-name="グループ 125" transform="translate(25.74 0.002)">
    <g id="グループ_124" data-name="グループ 124" transform="translate(-25.74 -0.002)" clip-path="url(#clip-path)">
      <path id="パス_753" data-name="パス 753" d="M18.39,28.208H14.454v19.27c1.394-.492,2.706-1.066,3.936-1.64v8.856c-2.215,1.8-8.364,3.69-16.646,3.69V49.528A29.446,29.446,0,0,0,5.6,49.282V28.208H1.744V19.352H5.6V10.5h8.857v8.856H18.39ZM43.892.082V13.611L56.684,10.5V38.622c0,10.25-4.428,14.432-13.448,14.432V44.116c3.034,0,4.592-1.23,4.592-5.494V21.811l-3.936.9V39.278H35.036V24.928l-3.854.9V51.578c0,6.15,1.64,6.806,9.348,6.806H56.6V67.24H39.218C27,67.24,22.244,64.37,22.244,51.578V28.044l-1.8.41v-9.1l1.8-.411V4.428h8.938v12.3l3.854-.9V.082Z" transform="translate(25.74 0.002)" fill="#0d3993"/>
      <path id="パス_754" data-name="パス 754" d="M76.527,45.838v8.856c-2.3,1.8-5.9,3.69-14.186,3.69V49.528c.9,0,1.8-.082,2.706-.082V28.208H62.341V19.352h2.706V10.5H73.9v8.856h2.624v8.856H73.9v18.86Zm37.966-44.2.574,4.427h2.214v8.857h-11.07c.164,10.578.492,18.368,1.394,24.6,1.148-2.625,2.214-5.167,3.116-7.544l6.56,4.674a104.266,104.266,0,0,1-6.56,14.186,39.28,39.28,0,0,0,6.56,10.086l-6.232,6.314a49.244,49.244,0,0,1-6.068-8.036,55.044,55.044,0,0,1-7.79,8.036l-4.1-6.969c1.148-.985,2.295-2.051,3.362-3.117-2.378,1.066-8.2,3.035-18.286,3.035V51.332a50.214,50.214,0,0,0,19.6-3.69v8.036A50.4,50.4,0,0,0,101.373,51c-2.788-8.528-3.691-19.434-3.936-36.08H78.987V6.067H97.355C97.273,4.1,97.273,2.132,97.273,0h8.856V6.067h3.116l-.574-4.427ZM95.14,45.756H78.987v-26.4H95.14ZM89.155,28.208H84.972V36.9h4.183Z" transform="translate(25.74 0.002)" fill="#0d3993"/>
      <path id="パス_755" data-name="パス 755" d="M154.015,26.649c-30.669,17.3-19.517,38.951,0,29.521l2.05,8.61c-25.092,10.086-39.443-12.464-22.386-32.965L124.412,6.067h9.43l6.807,18.942a74.758,74.758,0,0,1,9.183-6.15Z" transform="translate(25.74 0.002)" fill="#0d3993"/>
      <path id="パス_756" data-name="パス 756" d="M216.5,1.64l.656,4.428h1.8v8.856H207.315a155.823,155.823,0,0,0,2.3,23.534A69.982,69.982,0,0,0,212.4,31.98l6.56,4.675a76.592,76.592,0,0,1-6.4,12.792,91.449,91.449,0,0,0,6.4,13.448l-7.708,4.346c-1.8-3.2-3.362-6.069-4.756-9.1a61.688,61.688,0,0,1-8.856,9.1l-4.1-6.97a67.324,67.324,0,0,0,9.512-10.906c-2.542-8.037-4.1-18.122-4.592-34.441H175.336c0,4.756-.082,9.1-.164,13.12H193.54V45.592c0,10.168-4.429,14.351-13.448,14.351V51.086c3.034,0,4.592-1.229,4.592-5.494V36.9h-9.84c-.739,19.6-2.05,28.127-2.05,28.127l-8.774-1.313s2.542-15.088,2.542-57.646h31.652V0h8.856c0,2.132,0,4.1.082,6.068h2.706L209.2,1.64Z" transform="translate(25.74 0.002)" fill="#0d3993"/>
      <path id="パス_757" data-name="パス 757" d="M236.013,30.5V34.44H278V43.3H256.185a35.472,35.472,0,0,0,7.381,8.118l7.3-6.723,5.985,6.477-5.411,5.084A54.775,54.775,0,0,0,278,58.794l-2.624,8.446c-17.548-6.15-25.091-14.6-29.274-23.944H236.013V57.729a85.77,85.77,0,0,0,14.515-2.542v8.937s-10.087,3.116-27.471,3.116V58.384c1.393,0,2.788-.082,4.1-.082V43.3h-4.1V34.44h4.1V1.64h48.38V10.5H236.013v3.936H273.9V20.5H236.013v3.936H273.9V30.5Z" transform="translate(25.74 0.002)" fill="#0d3993"/>
      <path id="パス_758" data-name="パス 758" d="M303.088,19.352h-20.5V10.5h20.5V6.067h8.856V10.5H319.9v8.856h-7.954V40.836c0,18.614-6.478,26.4-6.478,26.4l-7.79-4.181s2.46-2.953,4.1-9.841c-9.758-.164-14.35-4.428-14.35-12.054,0-7.3,6.724-11.727,15.662-11.973ZM302.6,41.164a3.157,3.157,0,1,0-3.116,3.2,3.186,3.186,0,0,0,3.116-3.2" transform="translate(25.74 0.002)" fill="#0d3993"/>
      <path id="パス_759" data-name="パス 759" d="M346.794,31.078c8.282,2.214,13.94,8.938,13.94,17.63,0,9.676-5.9,18.532-18.122,18.532-4.51,0-10.414-.738-14.023-4.92a9.785,9.785,0,0,1-1.557-9.757,10.34,10.34,0,0,1,20.008,4.673c3.362-1.64,4.838-4.92,4.838-8.528,0-6.4-5.166-10.742-16.4-10.168l6.642-23.616H329.41V6.067h24.354Zm-9.1,22.55a2.581,2.581,0,0,0-3.362,1.559,2.606,2.606,0,1,0,3.362-1.559" transform="translate(25.74 0.002)" fill="#0d3993"/>
      <path id="パス_760" data-name="パス 760" d="M392.952,79.878V1.557h16.83a25.07,25.07,0,0,1,8.14,1.21,15.669,15.669,0,0,1,6.38,4.29,16.8,16.8,0,0,1,3.96,7.206,45.125,45.125,0,0,1,1.1,11.165,55.536,55.536,0,0,1-.605,8.91,18.636,18.636,0,0,1-2.585,6.82,16.387,16.387,0,0,1-6.16,5.995,20.735,20.735,0,0,1-10.12,2.145h-5.72v30.58Zm11.22-67.76v26.62h5.39a11.474,11.474,0,0,0,5.28-.99,6.237,6.237,0,0,0,2.75-2.75,10.065,10.065,0,0,0,1.045-4.07q.165-2.419.165-5.39,0-2.748-.11-5.226a11.333,11.333,0,0,0-.99-4.344,6.254,6.254,0,0,0-2.64-2.86,10.482,10.482,0,0,0-5.06-.99Z" transform="translate(25.74 0.002)" fill="#0d3993"/>
      <path id="パス_761" data-name="パス 761" d="M392.952,79.878V1.557h16.83a25.07,25.07,0,0,1,8.14,1.21,15.669,15.669,0,0,1,6.38,4.29,16.8,16.8,0,0,1,3.96,7.206,45.125,45.125,0,0,1,1.1,11.165,55.536,55.536,0,0,1-.605,8.91,18.636,18.636,0,0,1-2.585,6.82,16.387,16.387,0,0,1-6.16,5.995,20.735,20.735,0,0,1-10.12,2.145h-5.72v30.58Zm11.22-67.76v26.62h5.39a11.474,11.474,0,0,0,5.28-.99,6.237,6.237,0,0,0,2.75-2.75,10.065,10.065,0,0,0,1.045-4.07q.165-2.419.165-5.39,0-2.748-.11-5.226a11.333,11.333,0,0,0-.99-4.344,6.254,6.254,0,0,0-2.64-2.86,10.482,10.482,0,0,0-5.06-.99Z" transform="translate(25.74 0.002)" fill="none" stroke="#0d3993" stroke-miterlimit="10" stroke-width="1"/>
      <path id="パス_762" data-name="パス 762" d="M437.721,79.878V1.557h16.39A22.982,22.982,0,0,1,463.3,3.208a17.325,17.325,0,0,1,6.215,4.4,16.463,16.463,0,0,1,3.465,6.324,26.366,26.366,0,0,1,1.045,7.426v2.86a24.985,24.985,0,0,1-.495,5.39,12.951,12.951,0,0,1-1.485,3.85,15.437,15.437,0,0,1-5.72,5.28,12.175,12.175,0,0,1,5.83,5.5q1.869,3.63,1.87,9.9v4.4q0,10.341-5.005,15.84t-16.005,5.5Zm11.22-67.76v21.56H454q5.61,0,7.535-2.805t1.925-8.195q0-5.28-2.145-7.92t-7.755-2.64Zm0,31.46v25.08h4.84a11.832,11.832,0,0,0,5.335-.99,6.833,6.833,0,0,0,2.915-2.75,10.365,10.365,0,0,0,1.21-4.18q.219-2.418.22-5.28a35.331,35.331,0,0,0-.33-5.17,9.433,9.433,0,0,0-1.32-3.74,6.339,6.339,0,0,0-2.97-2.255,14.147,14.147,0,0,0-4.95-.715Z" transform="translate(25.74 0.002)" fill="#0d3993"/>
      <path id="パス_763" data-name="パス 763" d="M437.721,79.878V1.557h16.39A22.982,22.982,0,0,1,463.3,3.208a17.325,17.325,0,0,1,6.215,4.4,16.463,16.463,0,0,1,3.465,6.324,26.366,26.366,0,0,1,1.045,7.426v2.86a24.985,24.985,0,0,1-.495,5.39,12.951,12.951,0,0,1-1.485,3.85,15.437,15.437,0,0,1-5.72,5.28,12.175,12.175,0,0,1,5.83,5.5q1.869,3.63,1.87,9.9v4.4q0,10.341-5.005,15.84t-16.005,5.5Zm11.22-67.76v21.56H454q5.61,0,7.535-2.805t1.925-8.195q0-5.28-2.145-7.92t-7.755-2.64Zm0,31.46v25.08h4.84a11.832,11.832,0,0,0,5.335-.99,6.833,6.833,0,0,0,2.915-2.75,10.365,10.365,0,0,0,1.21-4.18q.219-2.418.22-5.28a35.331,35.331,0,0,0-.33-5.17,9.433,9.433,0,0,0-1.32-3.74,6.339,6.339,0,0,0-2.97-2.255,14.147,14.147,0,0,0-4.95-.715Z" transform="translate(25.74 0.002)" fill="none" stroke="#0d3993" stroke-miterlimit="10" stroke-width="1"/>
      <path id="パス_764" data-name="パス 764" d="M484.581,79.878V1.558H495.8v67.1H518.02v11.22Z" transform="translate(25.74 0.002)" fill="#0d3993"/>
      <path id="パス_765" data-name="パス 765" d="M484.581,79.878V1.558H495.8v67.1H518.02v11.22Z" transform="translate(25.74 0.002)" fill="none" stroke="#0d3993" stroke-miterlimit="10" stroke-width="1"/>
      <line id="線_18" data-name="線 18" x2="362" transform="translate(25.74 72.481)" fill="none" stroke="#de3f5e" stroke-miterlimit="10" stroke-width="2"/>
      <line id="線_19" data-name="線 19" x2="362" transform="translate(25.74 77.481)" fill="none" stroke="#de3f5e" stroke-miterlimit="10" stroke-width="2"/>
    </g>
  </g>
</svg>
