<svg xmlns="http://www.w3.org/2000/svg" width="645.722" height="80.39" viewBox="0 0 645.722 80.39">
  <path id="パス_798" data-name="パス 798" d="M46.256-73.794v18.816L41.65-53.9V-68.6H30.968v17.346l-2.156.49v10.878l2.156-.49V-12.25c0,15.288,5.684,18.718,20.286,18.718H72.03V-4.116H52.822C43.61-4.116,41.65-4.9,41.65-12.25V-43.022L46.256-44.1v17.15H56.84v-19.8l4.7-1.078v20.09c0,5.1-1.862,6.566-5.488,6.566v10.682c10.78,0,16.072-5,16.072-17.248V-61.348L56.84-57.624v-16.17ZM26.362-50.764h-4.7V-61.348H11.074v10.584H6.468V-40.18h4.606v25.186a35.209,35.209,0,0,1-4.606.294V-4.116c9.9,0,17.248-2.254,19.894-4.41V-19.11c-1.47.686-3.038,1.372-4.7,1.96V-40.18h4.7ZM135.24-71.932l.686,5.292H132.2v-7.252H121.618c0,2.548,0,4.9.1,7.252H99.764v10.584h22.05c.294,19.894,1.372,32.928,4.7,43.12a60.43,60.43,0,0,1-4.312,5.586v-9.6s-9.408,4.41-23.422,4.41V-1.96c12.054,0,19.012-2.352,21.854-3.626-1.274,1.274-2.646,2.548-4.018,3.724l4.9,8.33a65.785,65.785,0,0,0,9.31-9.6,58.853,58.853,0,0,0,7.252,9.6l7.448-7.546a46.965,46.965,0,0,1-7.84-12.054,124.611,124.611,0,0,0,7.84-16.954l-7.84-5.586c-1.078,2.842-2.352,5.88-3.724,9.016-1.078-7.448-1.47-16.758-1.666-29.4h13.23V-66.64h-2.646l-.686-5.292ZM93.688-17.64V-40.18h3.136V-50.764H93.688V-61.348H83.1v10.584H79.87V-40.18H83.1V-14.8c-1.078,0-2.156.1-3.234.1V-4.116c9.9,0,14.21-2.254,16.954-4.41V-19.11Zm6.076-33.124v31.556H119.07V-50.764Zm7.154,20.972V-40.18h5v10.388Zm73.01-36.848v5.292h-16.66v10.584h16.66v10.29h-16.66V-29.89h16.66v10c-11.466,0-15.68,7.84-15.68,14.014,0,5.88,3.43,12.348,13.132,12.348,12.152,0,13.132-10,13.132-15.778h9.9V-19.894h-9.9v-10h16.66V-40.474h-16.66v-10.29h16.66V-61.348h-16.66V-66.64ZM177.38-3.724a2.7,2.7,0,0,1-3.038-2.744c0-2.254,1.96-3.332,6.174-3.332C180.516-6.076,180.32-3.724,177.38-3.724ZM248.822-66.64H219.716v10.584h15.19l-7.938,28.224c13.426-.686,19.6,4.508,19.6,12.152,0,4.312-1.764,8.232-5.782,10.192a12.373,12.373,0,0,0-8.036-13.034,12.357,12.357,0,0,0-15.876,7.448A11.7,11.7,0,0,0,218.736.588c4.312,5,11.368,5.88,16.758,5.88,14.6,0,21.658-10.584,21.658-22.148,0-10.388-6.762-18.424-16.66-21.07ZM231.476-5.88a3.135,3.135,0,0,1-4.018,1.96A3.121,3.121,0,0,1,225.6-7.938,3.085,3.085,0,0,1,229.614-9.8,3.1,3.1,0,0,1,231.476-5.88ZM284.2-50.764c9.212,0,11.27.784,11.27,8.232h10.584c0-7.056-1.176-11.662-3.92-14.5h2.45V-69.678h-6.076v10.192c-3.136-1.372-7.35-1.862-12.74-1.862H270.186v10.584Zm29.4-6.272V-69.678h-6.076v12.642Zm-49,41.846C264.6.1,270.284,3.528,284.886,3.528c19.306,0,26.558-2.842,26.558-2.842L308.5-9.506s-5.39,2.45-22.05,2.45c-9.212,0-11.27-.784-11.27-8.134ZM353-51.352A89,89,0,0,0,342.02-44L333.886-66.64h-11.27L333.69-35.868c-20.384,24.5-3.234,51.45,26.754,39.4l-2.45-10.29c-23.324,11.27-36.652-14.6,0-35.28Zm45.08-15.288v10.584H383.082v-5.292H372.5v5.292h-5.88v10.584h5.88V-12.25c0,15.288,5.586,18.718,20.286,18.718,15.092,0,20.384-2.744,20.384-2.744L411.11-6.664s-6.174,2.548-16.758,2.548c-9.212,0-11.27-.784-11.27-8.134V-45.472h14.994v7.742c0,9.212,0,11.172-3.136,11.172v10.584c12.936,0,13.72-5.586,13.72-20.286v-9.212h6.86V-56.056h-6.86V-66.64ZM470.008-6.272C461.776-2.254,458.64-4.606,455.9-11.76c-3.724-9.7-11.564-13.23-18.13-12.25l7.644-42.63H434.63L421.4,6.468h10.78L435.218-10c.588-2.94,7.35-6.566,11.172,2.842,5.488,13.426,14.7,16.562,26.558,11.074ZM505.876-66.64v10.584H490.882v-5.292H480.3v5.292h-5.88v10.584h5.88V-12.25c0,15.288,5.586,18.718,20.286,18.718,15.092,0,20.384-2.744,20.384-2.744L518.91-6.664s-6.174,2.548-16.758,2.548c-9.212,0-11.27-.784-11.27-8.134V-45.472h14.994v7.742c0,9.212,0,11.172-3.136,11.172v10.584c12.936,0,13.72-5.586,13.72-20.286v-9.212h6.86V-56.056h-6.86V-66.64Zm34.692,8.82H529.984v37.632C529.984-5.586,533.414.1,548.8.1V-10.486c-7.448,0-8.232-2.058-8.232-11.27Zm24.99,16.954c7.35,0,8.134,1.96,8.134,11.172V.1h10.584V-31.164c0-14.7-3.43-20.286-18.718-20.286Zm37.926-31.066H590.94l.98,55.762H602.5ZM591.92,6.468H602.5V-6.272H591.92ZM623.868-51.45c0-6.958,4.018-9.9,8.82-9.9,4.9,0,8.918,2.94,8.918,9.9,0,11.956-14.21,11.662-14.21,35.28H637.98c0-21.854,14.21-18.522,14.21-35.28,0-14.406-9.7-20.482-19.5-20.482-9.7,0-19.4,6.076-19.4,20.482v3.528h10.584ZM637.98,6.468V-6.272H627.4V6.468Z" transform="translate(-6.468 73.892)" fill="#fff"/>
</svg>
