<svg xmlns="http://www.w3.org/2000/svg" xmlns:xlink="http://www.w3.org/1999/xlink" width="570" height="80" viewBox="0 0 570 80">
  <defs>
    <clipPath id="clip-path">
      <rect id="長方形_112" data-name="長方形 112" width="570" height="80" transform="translate(-53 0)" fill="none"/>
    </clipPath>
  </defs>
  <g id="グループ_120" data-name="グループ 120" transform="translate(53 0)" clip-path="url(#clip-path)">
    <path id="パス_731" data-name="パス 731" d="M6.862,67.24V40.426a32.838,32.838,0,0,1-5.494,4.51V32.8C6.124,28.864,7.683,20.008,7.683,6.4h8.855c0,9.184-.819,17.22-3.362,23.78h2.543V67.24ZM18.179,1.64h38.13v65.6H18.179Zm8.855,56.744H47.452V10.5H27.034ZM40.811,13.775v3.937h3.362v8.855H40.811v3.445h3.362V55.924H30.314V30.012H33.6V26.567H30.314V17.712H33.6V13.775Zm-1.4,25.093H35.07v8.2h4.346Z" fill="#0d3993"/>
    <path id="パス_732" data-name="パス 732" d="M63.194,30.176,61.8,37.228l-4.674-.9,3.2-16.728,2.869.574V6.067H72.05V67.24H63.194Zm15.252,5.9H73.69V25.092h4.756ZM101.98,0V6.067h11.727v8.857H101.98v17.3h10.087v8.856H101.98v17.3h11.727V67.24H78.037V58.384H93.125v-17.3H79.676V32.226H93.125v-17.3H86.4a35.976,35.976,0,0,1-4.837,9.512L74.1,19.762C78.856,13.038,79.43,5.33,79.43,0h8.857c0,2.05,0,4.018-.164,6.067h5V0Z" fill="#0d3993"/>
    <path id="パス_733" data-name="パス 733" d="M158.067,56.334l2.05,8.61c-25.83,9.84-41.41-14.022-17.876-32.636-2.624-.82-5.74-.657-9.43.082V19.352h-7.3V10.5h7.3V6.067h8.856V10.5h7.215v8.856h-7.215v3.854a17.56,17.56,0,0,1,9.1,3.443c2.378-1.229,5-2.46,7.872-3.607l3.2,8.282c-2.05.82-3.854,1.722-5.576,2.542a45.434,45.434,0,0,1,2.3,6.15L150.6,43.952a26.822,26.822,0,0,0-1.886-5.494c-17.548,12.71-6.314,24.437,9.348,17.876" fill="#0d3993"/>
    <path id="パス_734" data-name="パス 734" d="M179.224,38.868a37.3,37.3,0,0,1-7.3,6.068V32.8c6.068-4.1,9.594-14.187,9.594-26.4h8.856c0,9.184-1.722,17.22-5.084,23.862h2.788V67.24h-8.856ZM213.91,0V6.232h12.956v44.69H213.91V67.24h-8.856V50.922H192.016V6.232h13.038V0Zm-7.462,15.088h-5.576v9.758h5.576Zm0,17.22h-5.576v9.759h5.576Zm11.562-17.22h-5.575v9.758h5.575Zm0,17.22h-5.575v9.759h5.575Z" fill="#0d3993"/>
    <path id="パス_735" data-name="パス 735" d="M240.066,43.788c0,7.708,0,9.348,2.542,9.348v8.856c-10.742,0-11.4-4.674-11.4-16.892V14.924h8.856ZM270.652,6.067v8.857h10.086V23.78H270.652v21.4h8.283v8.856h-8.283c0,4.838-.819,13.2-10.988,13.2-8.117,0-10.987-5.412-10.987-10.332,0-5.166,3.525-11.726,13.12-11.726V23.78H247.528V14.924H261.8V6.067Zm-8.364,47.561c-3.525,0-5.166.9-5.166,2.788a2.26,2.26,0,0,0,2.542,2.3c2.46,0,2.624-1.968,2.624-5.084M279.1,12.136h-5.166V1.64H279.1Zm1.885-10.5h5.084v10.5h-5.084Z" fill="#0d3993"/>
    <path id="パス_736" data-name="パス 736" d="M314.276,19.352h-20.5V10.5h20.5V6.067h8.856V10.5h7.954v8.856h-7.954V40.836c0,18.614-6.478,26.4-6.478,26.4l-7.79-4.181s2.46-2.953,4.1-9.841c-9.758-.164-14.35-4.428-14.35-12.054,0-7.3,6.724-11.727,15.662-11.973Zm-.492,21.812a3.157,3.157,0,1,0-3.116,3.2,3.186,3.186,0,0,0,3.116-3.2" fill="#0d3993"/>
    <rect id="長方形_110" data-name="長方形 110" width="11.22" height="78.32" transform="translate(362.988 1.558)" fill="#0d3993"/>
    <rect id="長方形_111" data-name="長方形 111" width="11.22" height="78.32" transform="translate(362.988 1.558)" fill="none" stroke="#0d3993" stroke-miterlimit="10" stroke-width="2"/>
    <path id="パス_737" data-name="パス 737" d="M385.1,79.878V1.558h33.439v10.56H396.318v22.99h19.36v10.56h-19.36v22.99h22.219v11.22Z" fill="#0d3993"/>
    <path id="パス_738" data-name="パス 738" d="M385.1,79.878V1.558h33.439v10.56H396.318v22.99h19.36v10.56h-19.36v22.99h22.219v11.22Z" fill="none" stroke="#0d3993" stroke-miterlimit="10" stroke-width="2"/>
    <path id="パス_739" data-name="パス 739" d="M428,79.878V1.557h16.83a25.07,25.07,0,0,1,8.14,1.21,15.669,15.669,0,0,1,6.38,4.29,16.8,16.8,0,0,1,3.96,7.206,45.125,45.125,0,0,1,1.1,11.165,55.536,55.536,0,0,1-.605,8.91,18.636,18.636,0,0,1-2.585,6.82,16.387,16.387,0,0,1-6.16,5.995,20.735,20.735,0,0,1-10.12,2.145h-5.72v30.58Zm11.22-67.76v26.62h5.39a11.474,11.474,0,0,0,5.28-.99,6.237,6.237,0,0,0,2.75-2.75,10.065,10.065,0,0,0,1.045-4.07q.165-2.419.165-5.39,0-2.748-.11-5.226a11.334,11.334,0,0,0-.99-4.344,6.254,6.254,0,0,0-2.64-2.86,10.482,10.482,0,0,0-5.06-.99Z" fill="#0d3993"/>
    <path id="パス_740" data-name="パス 740" d="M428,79.878V1.557h16.83a25.07,25.07,0,0,1,8.14,1.21,15.669,15.669,0,0,1,6.38,4.29,16.8,16.8,0,0,1,3.96,7.206,45.125,45.125,0,0,1,1.1,11.165,55.536,55.536,0,0,1-.605,8.91,18.636,18.636,0,0,1-2.585,6.82,16.387,16.387,0,0,1-6.16,5.995,20.735,20.735,0,0,1-10.12,2.145h-5.72v30.58Zm11.22-67.76v26.62h5.39a11.474,11.474,0,0,0,5.28-.99,6.237,6.237,0,0,0,2.75-2.75,10.065,10.065,0,0,0,1.045-4.07q.165-2.419.165-5.39,0-2.748-.11-5.226a11.334,11.334,0,0,0-.99-4.344,6.254,6.254,0,0,0-2.64-2.86,10.482,10.482,0,0,0-5.06-.99Z" fill="none" stroke="#0d3993" stroke-miterlimit="10" stroke-width="2"/>
    <line id="線_14" data-name="線 14" x2="330" transform="translate(0 72.478)" fill="none" stroke="#de3f5e" stroke-miterlimit="10" stroke-width="2"/>
    <line id="線_15" data-name="線 15" x2="330" transform="translate(0 77.478)" fill="none" stroke="#de3f5e" stroke-miterlimit="10" stroke-width="2"/>
  </g>
</svg>
