<svg xmlns="http://www.w3.org/2000/svg" width="393.735" height="34.373" viewBox="0 0 393.735 34.373">
  <g id="配下1_1テキスト素材" transform="translate(-239.294 -133.661)">
    <path id="パス_823" data-name="パス 823" d="M13.32-17.575l10.434-.444a20.237,20.237,0,0,1-.37,4.255,1.6,1.6,0,0,1-1.665,1.221,4.664,4.664,0,0,1-1.036-.148,4.772,4.772,0,0,0-1.3-.259,2.014,2.014,0,0,0-1.961,2.035A2.086,2.086,0,0,0,18.5-9.028a8.671,8.671,0,0,0,3.885.74c3.33,0,4.551-2.035,4.958-5.032.222-1.628.333-3.219.444-4.847l4-.148c1.369-.074,2.886-.481,2.886-2.109,0-1.554-1.073-2.072-2.442-2.072h-.555l-3.774.148c.037-1.406.037-2.812.037-4.181,0-1.554-.037-3.293-2.072-3.293A1.8,1.8,0,0,0,23.9-28.268c-.111,1.554-.148,4.107-.148,6.068l-10.323.407.074-4.255c.037-1.517-.259-3-2.109-3-1.924,0-2.22,1.369-2.22,2.96v4.44l-4,.148c-1.406.037-2.886.444-2.886,2.183,0,1.813,1.591,2.109,3.034,2.035l3.848-.148V-6.7c0,2.183.222,4.218,2.146,5.55C13.283.222,16.761.629,22.015.629A54.827,54.827,0,0,0,29.526.111c1.147-.3,2.183-.888,2.183-2.22a2.091,2.091,0,0,0-2.294-2.109,8.089,8.089,0,0,0-1.332.111,74.224,74.224,0,0,1-8.584.518,16.817,16.817,0,0,1-4.107-.37C13.69-4.4,13.246-5.4,13.246-7.067v-6.549Zm39.072,1.554c.518-1.221,1.887-4.329,3.071-6.882a22.424,22.424,0,0,0,2-5.4,2.043,2.043,0,0,0-2.22-1.85c-1.258,0-1.776,1.073-2.183,2.109C50.172-21.09,47.323-14.06,44.252-7.215,42.587-3.515,41.81-1.48,41.81-.74a2.141,2.141,0,0,0,2.183,2.072A1.759,1.759,0,0,0,45.362.814a26.906,26.906,0,0,0,1.961-4.107,37.774,37.774,0,0,1,3.552-7.141c1-1.48,2.738-3.182,4.7-3.182,1.813,0,2.072.925,2.072,2.775V-5.4A8.58,8.58,0,0,0,58.2-1.776C59.052.3,61.494,1.332,63.6,1.332c3.33,0,6.29-2.331,8.029-4.995.962-1.443,2.294-4.107,2.294-5.883a2.036,2.036,0,0,0-2.183-2c-1.332,0-1.591.814-2.183,2.738C68.783-6.29,66.711-2.96,63.677-2.96c-1.85,0-2.035-1.184-2.035-3.219v-5.18c0-1.924-.037-3.145-.888-4.292a5.066,5.066,0,0,0-4.107-1.961A6.95,6.95,0,0,0,52.392-16.021ZM91.02-17.575l10.434-.444a20.237,20.237,0,0,1-.37,4.255,1.6,1.6,0,0,1-1.665,1.221,4.664,4.664,0,0,1-1.036-.148,4.772,4.772,0,0,0-1.295-.259,2.014,2.014,0,0,0-1.961,2.035A2.086,2.086,0,0,0,96.2-9.028a8.671,8.671,0,0,0,3.885.74c3.33,0,4.551-2.035,4.958-5.032.222-1.628.333-3.219.444-4.847l4-.148c1.369-.074,2.886-.481,2.886-2.109,0-1.554-1.073-2.072-2.442-2.072h-.555l-3.774.148c.037-1.406.037-2.812.037-4.181,0-1.554-.037-3.293-2.072-3.293a1.8,1.8,0,0,0-1.961,1.554c-.111,1.554-.148,4.107-.148,6.068l-10.323.407.074-4.255c.037-1.517-.259-3-2.109-3-1.924,0-2.22,1.369-2.22,2.96v4.44l-4,.148c-1.406.037-2.886.444-2.886,2.183,0,1.813,1.591,2.109,3.034,2.035l3.848-.148V-6.7c0,2.183.222,4.218,2.146,5.55C90.983.222,94.461.629,99.715.629a54.827,54.827,0,0,0,7.511-.518c1.147-.3,2.183-.888,2.183-2.22a2.091,2.091,0,0,0-2.294-2.109,8.089,8.089,0,0,0-1.332.111,74.224,74.224,0,0,1-8.584.518,16.817,16.817,0,0,1-4.107-.37C91.39-4.4,90.946-5.4,90.946-7.067v-6.549Zm29.526,2.738c0,4.144.851,8.658,3.293,12.1a6.372,6.372,0,0,0,5.069,3,6.529,6.529,0,0,0,4.477-2.146c.962-.962,2.035-2.331,2.035-3.552A1.911,1.911,0,0,0,133.5-7.363a1.707,1.707,0,0,0-1.443.74c-.962,1.332-1.85,2.368-3.034,2.368a1.783,1.783,0,0,1-1.332-.518c-2.479-2.368-3.108-6.179-3.108-9.472a28.656,28.656,0,0,1,1.665-9.361,8.429,8.429,0,0,0,.629-2.479,2.125,2.125,0,0,0-2.183-2.109,2.251,2.251,0,0,0-1.961,1.3,7.223,7.223,0,0,0-.666,1.961A38.8,38.8,0,0,0,120.546-14.837Zm24.642,5.4c0,1.036-.111,2.072-.111,3.145C145.077-5,145.521-4,146.964-4c2.59,0,2.627-2.886,2.627-4.773a21.714,21.714,0,0,0-4.255-13.357c-1.406-1.813-2.738-2.849-3.848-2.849a2.144,2.144,0,0,0-2.035,2.109,3.431,3.431,0,0,0,1.332,2.294A15.814,15.814,0,0,1,145.188-9.435Z" transform="translate(237 165)" fill="#fff"/>
    <g id="グループ_3" data-name="グループ 3" transform="translate(409.084 143.641)">
      <line id="線_1" data-name="線 1" x2="13.497" y2="13.497" fill="none" stroke="#fff" stroke-linecap="round" stroke-width="2"/>
      <line id="線_2" data-name="線 2" x1="13.497" y2="13.497" fill="none" stroke="#fff" stroke-linecap="round" stroke-width="2"/>
    </g>
    <path id="パス_824" data-name="パス 824" d="M8.732-21.867c.666-2,1.85-5.772,1.85-7.289a1.854,1.854,0,0,0-2-1.776c-1.406,0-1.7,1.369-1.961,2.516a38.782,38.782,0,0,1-5,12.8,4.172,4.172,0,0,0-.777,2.072,1.612,1.612,0,0,0,1.7,1.7c1.406,0,2.072-1.073,2.849-2.442V.555c0,1.3.333,2.368,1.665,2.368,1.295,0,1.665-1.184,1.665-2.368Zm5.735-8.4a2.859,2.859,0,0,0-3.145,2.923V-.777a2.91,2.91,0,0,0,3.145,2.886H31.154A2.9,2.9,0,0,0,34.262-.777V-27.343a2.793,2.793,0,0,0-3.108-2.923Zm.222,4.07c0-.592.222-.777.925-.777H30.007c.7,0,.925.185.925.777V-2c0,.592-.222.777-.925.777H15.614c-.7,0-.925-.185-.925-.777Zm6.216,9.953H19.166a2.722,2.722,0,0,0-2.479,2.849v6.179a2.75,2.75,0,0,0,2.7,2.849h6.956a2.757,2.757,0,0,0,2.59-2.849v-6.179a2.688,2.688,0,0,0-2.59-2.849h-1.85v-3.293h3.219a3.226,3.226,0,0,0,1.443-.259,1.489,1.489,0,0,0,.814-1.369,1.331,1.331,0,0,0-.444-1.11,2.622,2.622,0,0,0-1.813-.518H24.494v-1.184c0-1.887-.777-2.442-1.813-2.442-1.073,0-1.776.555-1.776,2.368v1.258h-3c-1.554,0-2.257.629-2.257,1.628s.74,1.628,2.257,1.628h3Zm4.7,7.807a.683.683,0,0,1-.666.629H20.683a.712.712,0,0,1-.666-.629v-3.885a.712.712,0,0,1,.666-.629h4.255a.712.712,0,0,1,.666.629ZM69.523-2.96c0,1.221-.074,1.924-1.517,1.924a17.313,17.313,0,0,1-3.367-.333,4.555,4.555,0,0,0-.74-.074A1.777,1.777,0,0,0,62.271.444a1.934,1.934,0,0,0,1.591,1.85,17.425,17.425,0,0,0,4.181.37,6.933,6.933,0,0,0,3.848-.851c1.258-.851,1.332-2.479,1.332-3.848V-29.119c0-1.591-.814-2.183-1.85-2.183-1.258,0-1.85.925-1.85,2.294ZM49.8-16.28h6.512c2.257,0,3.626-.666,3.626-3.182v-7.622c0-2.516-1.369-3.182-3.626-3.182H45.325c-2.294,0-3.663.666-3.663,3.182v7.622c0,2.516,1.369,3.182,3.663,3.182h.666c0,5.069-.962,9.953-3.811,14.171A9.13,9.13,0,0,0,40.626.851a2,2,0,0,0,1.887,1.887c.851,0,2.146-1.406,2.849-2.4A25.112,25.112,0,0,0,49.284-9.953h6.327c1.184,0,1.184.518,1.184,2.59,0,1.184-.259,4.292-.851,5.254A2.872,2.872,0,0,1,53.317-1a8.488,8.488,0,0,1-2.035-.259,4.441,4.441,0,0,0-.888-.111A1.825,1.825,0,0,0,48.618.518a1.678,1.678,0,0,0,1.147,1.628,14.886,14.886,0,0,0,4.255.481c1.85,0,3.848-.444,4.847-2.183C60.236-1.887,60.31-5.143,60.31-9.768a4.155,4.155,0,0,0-.518-2.368,3.7,3.7,0,0,0-3.219-1.332H49.691C49.765-14.393,49.8-15.355,49.8-16.28Zm16.835-10.8c0-2.183-.518-2.96-1.813-2.96-1.221,0-1.85.777-1.85,2.183V-8.473c0,1.517.518,2.516,1.85,2.516,1.11,0,1.813-.777,1.813-2.146ZM45.325-25.456c0-1.036.444-1.147,1.332-1.147h8.362c.925,0,1.369.185,1.369,1.147v4.292c0,1-.444,1.184-1.369,1.184H46.657c-.925,0-1.332-.185-1.332-1.184ZM100.6-18.8v-9.065c0-1.369,0-2.96-1.85-2.96-1.813,0-1.813,1.591-1.813,2.96V-2.553c0,1.406.111,2.812,1.295,3.737,1.258,1,4.292,1.11,6.364,1.11h2.368c2,0,4.477-.148,5.7-1.332C114-.333,114-2.368,114-4.07c0-1.369-.185-2.923-1.924-2.923-1.48,0-1.887.925-1.887,2.294v.333c0,2.886-.592,3.108-4.107,3.108H103.6c-2.109,0-3-.037-3-2.109V-14.874a36.407,36.407,0,0,0,10.212-5.18c.925-.666,2.627-2.109,2.627-3.182a2.215,2.215,0,0,0-2.035-2,2.644,2.644,0,0,0-1.591.925,23.578,23.578,0,0,1-4.884,3.626A30.038,30.038,0,0,1,100.6-18.8ZM88.8-22.348c1-2.109,2.257-4.921,2.257-6.623A1.9,1.9,0,0,0,89.1-30.784c-1.147,0-1.591.962-1.887,1.924a40.949,40.949,0,0,1-6.364,12.617c-.777,1.036-1,1.443-1,2a1.81,1.81,0,0,0,1.739,1.85c1.258,0,2.405-1.591,3.478-3.256V-.222c0,1.591,0,2.96,1.813,2.96S88.8,1.184,88.8-.222Zm37.74,3.589a28.306,28.306,0,0,1-5.661,4.144c-1.221.666-1.591,1.11-1.591,1.961a1.664,1.664,0,0,0,1.554,1.776c.814,0,2-.777,3.33-1.7.518-.37.888-.629,1.443-1h4.81c.222,0,.481.037.481.333,0,.518-.925,1.369-1.369,1.739a2.085,2.085,0,0,0-1.813-1.073,1.553,1.553,0,0,0-1.369,1.628,3.441,3.441,0,0,0,.666,1.7c.222.37.407.74.592,1.11-2.035.111-4.107.185-6.105.259-1.147.037-1.332.037-1.813.481a1.856,1.856,0,0,0-.518,1.258c0,1.147.925,1.7,2.368,1.7,2.442,0,4.847-.148,7.252-.3a9.2,9.2,0,0,1,.333,2.183c0,1.48-1.073,1.887-2.368,1.887-.259,0-.925-.037-1.628-.111-.333-.037-.74-.074-1-.074A1.679,1.679,0,0,0,122.618,1a1.653,1.653,0,0,0,1.073,1.554,11.051,11.051,0,0,0,3.367.481c3.256,0,5.476-1.443,5.476-4.884a15.23,15.23,0,0,0-.333-3.182,40.916,40.916,0,0,0,4.255-.629,1.659,1.659,0,0,0,1.443-1.7,1.566,1.566,0,0,0-1.591-1.628,6.513,6.513,0,0,0-.851.111c-1.258.185-2.442.333-4.218.481a1.8,1.8,0,0,1-.111-.259c2.775-2.072,4.329-4.218,4.329-5.846a1.921,1.921,0,0,0-2.183-2.072h-3.959c.74-.7,1.443-1.443,2.146-2.183h3.848c1.443,0,2.146-.7,2.146-1.776,0-1-.592-1.739-2.22-1.739h-.814c.962-1.184,3.441-4.366,3.441-5.809a1.754,1.754,0,0,0-1.7-1.739c-.777,0-1.11.259-1.591,1.036-.3.481-.481.814-.814,1.369a2.848,2.848,0,0,0-1.887-.481h-2.22v-1.036c0-1.369-.518-2.331-1.739-2.331-1.369,0-1.7,1.221-1.7,2.368v1h-2.553c-1.221,0-2.96.074-2.96,1.739,0,1.369,1.3,1.7,2.479,1.7h3.034v2.183h-4.514c-1.295,0-2.294.481-2.294,1.739,0,1.221.777,1.776,2.294,1.776ZM146.52-5.735c3-5.069,3.959-10.767,4.07-16.539,1.184,0,2.368-.481,2.368-1.813,0-1.739-1.628-1.85-2.96-1.85H142.82a24.2,24.2,0,0,0,.3-3.256,1.788,1.788,0,0,0-1.7-1.887,1.933,1.933,0,0,0-1.739,1.924c-.481,4.218-1.184,8.584-3.219,12.358a3.946,3.946,0,0,0-.74,1.924,1.769,1.769,0,0,0,1.776,1.739,1.68,1.68,0,0,0,1.443-.851,31.6,31.6,0,0,0,3.219,8.251,20.224,20.224,0,0,1-5.587,4.884c-1.147.7-1.517,1.11-1.517,2a1.7,1.7,0,0,0,1.776,1.739c2,0,6.068-3.626,7.511-5.476,1.147,1.406,4.662,5.624,6.512,5.624a2.046,2.046,0,0,0,1.961-1.961c0-.518-.074-.962-.925-1.591A20.551,20.551,0,0,1,146.52-5.735Zm-16.5-16.539h-.37v-2.183h2.146C131.239-23.717,130.647-22.977,130.018-22.274ZM144.337-9.287a39.478,39.478,0,0,1-3.071-10.249c.3-.925.555-1.813.777-2.738h5.143A31.463,31.463,0,0,1,144.337-9.287Zm29.119-19.166H161.912c-1.258,0-2.886,0-2.886,1.7,0,1.517,1.221,1.665,2.479,1.665h5.661a46.468,46.468,0,0,1-3.034,4.07c-1.073-.037-2.183-.148-3.256-.148a1.956,1.956,0,0,0-2.183,1.813c0,1.11.851,1.665,2,1.739,1.073.074,2.553.074,3.811.074,3.885,0,7.807-.148,11.692-.3,3.663-.148,7.4-.3,11.026-.666.37.37.888.888,1.369,1.443a2.084,2.084,0,0,0,1.443.814,1.758,1.758,0,0,0,1.85-1.813,2.619,2.619,0,0,0-.777-1.665,68.476,68.476,0,0,0-5.883-5.365h4.329c1.221,0,2.294-.259,2.294-1.665,0-1.443-1.036-1.7-2.294-1.7H177.267V-29.3a1.829,1.829,0,0,0-1.887-2.035,1.857,1.857,0,0,0-1.924,2.109Zm8.029,3.367a1.485,1.485,0,0,0-.111.555,1.613,1.613,0,0,0,.444,1.073c.555.592,1.443,1.332,2,1.813-1.258.148-2.553.222-3.811.3-3.737.222-7.474.259-11.211.333,1.073-1.295,2.072-2.664,3.034-4.07Zm3.441,21.83V-1.85c0,1.369-1.554,1.369-2.553,1.369a16.137,16.137,0,0,1-1.887-.111c-.74-.074-1.517-.185-2.294-.185A1.607,1.607,0,0,0,176.6,1a1.554,1.554,0,0,0,1.147,1.517,16.983,16.983,0,0,0,4.551.444h.777A11.713,11.713,0,0,0,187,2.331c1.7-.7,1.7-2.553,1.7-4.107v-11.8c0-1.443-.777-3-2.442-3H164.539a2.873,2.873,0,0,0-2.109.777,2.74,2.74,0,0,0-.629,1.776V.3c0,1.443.37,2.368,1.887,2.368s1.887-1.11,1.887-2.368V-3.256Zm0-8.288H165.575v-1c0-.629.185-.851.777-.851h17.575c.74,0,1,.148,1,.925Zm0,5.032H165.575V-8.4h19.351Z" transform="translate(441.147 165)" fill="#fff"/>
  </g>
</svg>
