<svg xmlns="http://www.w3.org/2000/svg" xmlns:xlink="http://www.w3.org/1999/xlink" width="588.895" height="89.564" viewBox="0 0 588.895 89.564">
  <defs>
    <clipPath id="clip-path">
      <rect id="長方形_13" data-name="長方形 13" width="587" height="10" transform="translate(-0.044 0.064)" fill="none"/>
    </clipPath>
  </defs>
  <g id="パントビスコさんご紹介" transform="translate(3 -28.436)" opacity="0.9">
    <g id="グループ_14" data-name="グループ 14" transform="translate(-2.957 107.936)" clip-path="url(#clip-path)">
      <path id="パス_144" data-name="パス 144" d="M32.719,1.818l1.507.208c-.026-.1-.405-.178-1.507-.208" transform="translate(51.535 0.23)" fill="#e1536f"/>
      <path id="パス_145" data-name="パス 145" d="M179.606,1.763c.117-.017.255-.026.359-.047a1.188,1.188,0,0,0-.359.047" transform="translate(286.364 0.21)" fill="#e1536f"/>
      <path id="パス_146" data-name="パス 146" d="M55.563,7.7h-.081c-.125.022-.275.031-.39.053Z" transform="translate(87.305 1.377)" fill="#e1536f"/>
      <path id="パス_147" data-name="パス 147" d="M66.712,8.632c20.187.252,25.543,1.225,46.465.829,9.979.08,20.628-.145,30.384-.262,4.628-.758,12.809-.011,18.287-.647l2.126.429a26.868,26.868,0,0,1,6-.131l-.12.124c2.82-.325,6-.13,7.4-.294l-.12.125,3.428-.055-.59.178a140.627,140.627,0,0,1,14.454-.209l-.371-.521c9.55.582,13.043-.5,21.663.194l-.117.125c10.894-1.372,17.222.935,28.453-.368-1.4.163.6.268.486.394,5.171-.148,10.7-.226,10.777-1.248,3.768.013,3.069.319,3.56.713-.023-.448,3.254-.633,6.193-.661l-1.354.172,8.433-.152L270.5,6.525c4.47.243,1.136,1.03,5.418.826l-.055-.7c6.182.139,9.81,1.2,15.8,1.716,24.883.3,51.618-1.487,74.77-.255l1.021.527c.444.768,6.385-1.138,7.268-.427l2.692-.351c.756.137,2.352.284,1.011.458a19.977,19.977,0,0,0,4.345-.329l2.672.478c9.826.37,18.178-.552,28.515-.365,12.419.975,35.8.079,49.266-.443,18.932-1.149,40.95,1.912,60.334.6a6.326,6.326,0,0,0,2.25-.225l17.742.109s86.015.3,20.667-6.075l.437-.166c-9.709-.408-15.821-.5-22.515.347-1.06-1.033-7.978-.106-10.249-.441l.216-.084c-5.925.795-12.2-.661-17.91.051a2.547,2.547,0,0,1,1.658-.384c-4.16.131-9.849.361-10.161-.24-9.935.158-23.8-.121-30.168.839l.437-.167c-3.628.648-4.7.1-8.75.425-.221-.079-.509-.118-.463-.152-3.953.639-11.533.1-14.73.373l-.208-.4-7.869.093,2.942.085c-1.019,1.1-5.954-.688-11.66.023-5.341-.137-10.832,2.282-16.38,1.745-2.645.513,2.331-.835-1.624-.44-.127-.572,1.848-.36.829-.816-3.882.271-6.367-.584-11.156-.2l-.195-.447c-6.247.815-11.788-.587-15.946.191-6.442.368-4.321-1.324-11.029-.452l-2.609-.6c-2.872-.1-2.055.74-5.239.448.195-.38-4.023-.3-2.16-.664-7.2-.594-14.623.844-24.111-.161-2.061.74-6.837.3-8.375.855-.255-.321-9.571-.051-4.207-.751.46-.057,1.273-.047,1.219.079l.642-.439c-5.411-.827-9.833.457-15.187.327,1.585.146,3.7.108,2.287.409L317,1.3l1.034-.369L310.626.711l1.021.457c-3.628-.234-4.9-1.012-8.994-.363-1.85.362,3.436.615-.392.759-4.847-.311-12.113-.78-18.3-.917.577.514-1.089.495-2.8.6l-.2-.447c-6.57.62-2.409-.981-8.927-.488L272.609,0l-1.723.933c-5.881.884-3.17-.926-9.706.282,2.583-.076,1.216.984-1.965.789l.806-.43a27.186,27.186,0,0,1-3.519.182c1.047-.232.554-.626-2.035-.553L256.2.663l-4.893.794c-3.778-.463-9.766.117-11.317-.49,0,0-8.121-.3-9.984.368,1.632-.414-2.848-.571-1.572-1.056-2.1.467-8.321.851-10.808.353l.47-.056c-9.2-.509-15.74.7-24,.079.377.517-3.986.235-2.908.9-8.547.655-15.582-1.346-18.669.7-3.888.11-4.607-.48-6.616-.584l.928-.109c-7.284.167-9.4.188-14.81.14-2.7.2-3.124,1.15-7.962.92,1.564-.378-.413-.307-2.225-.307,1.156-.06,1.515-.2-.86-.452a7.342,7.342,0,0,1-1.336.249c-.021-.03-.117-.053-.068-.093-3.022.134-2.495.251-1.091.3-.07.059.047.133.481.237-3.137-.488-8.742.033-9.121-.615-9.085.151-15.579.821-23.139,1.073-.85-.335.917-.631,3.113-.76l-5.364.122c.044-.48,3.079-.276,4.732-.372-6.388-.778-13.165.774-20.654.062l-1.551.38-.447-.063c.023.2-1.658.474-2.768.539-1.058-.418.075-.964-3.633-.939-2.931-.4-8.329.2-12.167.428,2.069.071,1.4.3.512.451-1.856.014-2.921-.4-4.353-.223l-.179-.566c.73.533-4.841.575-5.527.806-1.055-.418,2.877-.36,3.339-.675l-11.148.079c-3.966.425.72.534-1.177,1.029A86.972,86.972,0,0,1,38.5,3.472l1.271.5A80.043,80.043,0,0,1,24.821,3.8C-24.183,7.88,14.5,9.375,14.5,9.375c19.293,1.109,29.251-.351,52.216-.742" transform="translate(-0.773 -0.125)" fill="#e1536f"/>
    </g>
    <path id="パス_780" data-name="パス 780" d="M56.846-54.524a7.271,7.271,0,0,0-6.966-7.482A7.271,7.271,0,0,0,42.4-55.04a7.271,7.271,0,0,0,6.966,7.482A7.213,7.213,0,0,0,56.846-54.524Zm-9.976-.344a2.717,2.717,0,0,1,2.838-2.666A2.846,2.846,0,0,1,52.46-54.7a2.866,2.866,0,0,1-2.924,2.752A2.741,2.741,0,0,1,46.87-54.868ZM20.554-39.388c0,17.63,0,25.972-11.438,39.99l7.74,5.074C28.036-8.428,29.842-17.8,29.842-39.388v-14.62H20.554Zm19.522-5.59v6.794c0,23.564,3.7,31.39,11.266,39.474l6.622-6.45c-7.4-8.514-8.6-13.588-8.6-33.024v-6.794Zm28.638-8.858-6.622,6.45,13.33,13.932,6.622-6.536Zm31.562,11.094C93.74-22.876,84.968-11.782,64.328-2.322l4.73,8c20.3-8.514,33.97-22.532,39.732-44.806ZM126.248,5.676h9.288V-26.488l17.286,4.472,2.322-9.03L135.536-36.12V-58.48h-9.288ZM198.832-59.34v11.008h5.418V-59.34Zm7.912,11.008h5.332V-59.34h-5.332Zm-4.9,54.008V-3.612H189.458c-8.084,0-9.8-.688-9.8-7.138V-34.142l25.37-2.15-.774-9.288-24.6,2.15V-58.652h-9.288v47.9c0,13.416,4.9,16.426,17.716,16.426Zm18.232-59.512v9.288h20.038c-1.2,21.156-7.138,34.4-22.876,41.8l3.956,8.428c8.514-3.44,15.222-8.772,19.952-17.028L252.066,5.676,259.892.688,245.616-21.586c2.666-8.514,4.042-19.006,4.042-32.25Zm78.862,9.288V-3.612h-28.38V5.676h37.668V-53.836H271.5v9.288Zm51.944,24.6V-39.9H360.6v-9.288H350.88V-58.48h-9.288v9.288H322.328V-39.9h19.264v19.952ZM348.128-3.44c-7.482-1.548-15.48-3.354-17.2-18.576l-9.288.774c1.72,19.522,13.588,24.682,24.6,26.918ZM412.542-5.5c-7.224,3.526-9.976,1.462-12.384-4.816-3.268-8.514-10.148-11.61-15.91-10.75l6.708-37.41H381.5L369.886,5.676h9.46l2.666-14.448c.516-2.58,6.45-5.762,9.8,2.494,4.816,11.782,12.9,14.534,23.306,9.718Zm28.982-39.044c8.084,0,9.89.688,9.89,7.224H460.7c0-6.192-1.032-10.234-3.44-12.728h2.15V-61.146H454.08V-52.2c-2.752-1.2-6.45-1.634-11.18-1.634H429.226v9.288Zm25.8-5.5V-61.146h-5.332v11.094Zm-43,36.722c0,13.416,4.988,16.426,17.8,16.426C459.068,3.1,465.432.6,465.432.6l-2.58-8.944s-4.73,2.15-19.35,2.15c-8.084,0-9.89-.688-9.89-7.138Zm81.184-40.506c-.688,11.18-6.364,16.856-6.364,16.856l7.74,5.16s7.224-7.482,7.912-22.016h7.31v6.622c0,4.472-1.634,5.762-4.816,5.762v9.288c9.46,0,14.1-4.386,14.1-15.05v-15.91h-30.7v9.288ZM490.888,5.676V-21.586l1.032-.258.086,2.408h6.966l-1.2-18.49H490.8l.43,6.794a54.932,54.932,0,0,1-6.364,1.462l3.612-6.536V-45.58h-4.128l6.536-11.954-8.17-4.386-8.944,16.34v9.374H477.9l-4.128,7.482v9.288a67.24,67.24,0,0,0,9.976-.688v25.8Zm40.506,0v-34.4h-30.7v34.4Zm-9.288-25.112V-3.612H509.98V-19.436Zm-46.612,3.182c0,5.59-.086,13.76-1.72,18.49l6.106,2.15c1.806-4.988,2.064-14.018,2.064-20.64Zm23.478.6h-6.278V2.236h6.278Zm39.3-32.336c14.448-1.806,23.994-5.676,28.81-8,4.73,2.322,14.276,6.192,28.81,8v-9.288c-18.06-2.322-28.81-9.288-28.81-9.288s-10.836,6.966-28.81,9.288Zm9.8,5.762v11.7c0,18.06-1.2,22.274-8.084,30.53l7.4,5.676c8.17-9.288,9.976-15.394,9.976-36.206v-11.7ZM576.8,5.676h9.288v-47.9H576.8Z" transform="translate(-10 95)" fill="#0d3993"/>
  </g>
</svg>
