<svg xmlns="http://www.w3.org/2000/svg" xmlns:xlink="http://www.w3.org/1999/xlink" width="360.532" height="133" viewBox="0 0 360.532 133">
  <defs>
    <filter id="長方形_6" x="15.532" y="0" width="345" height="133" filterUnits="userSpaceOnUse">
      <feOffset dy="5" input="SourceAlpha"/>
      <feGaussianBlur stdDeviation="3" result="blur"/>
      <feFlood flood-opacity="0.412"/>
      <feComposite operator="in" in2="blur"/>
      <feComposite in="SourceGraphic"/>
    </filter>
  </defs>
  <g id="グループ_136" data-name="グループ 136" transform="translate(-93.468 2)">
    <g id="グループ_134" data-name="グループ 134">
      <g transform="matrix(1, 0, 0, 1, 93.47, -2)" filter="url(#長方形_6)">
        <g id="長方形_6-2" data-name="長方形 6" transform="translate(26.53 6)" fill="#103a91" stroke="#d6d6d6" stroke-width="2">
          <rect width="323" height="111" rx="20" stroke="none"/>
          <rect x="-1" y="-1" width="325" height="113" rx="21" fill="none"/>
        </g>
      </g>
      <path id="合体_1" data-name="合体 1" d="M33.238,109.308c-2.773,0-5.4-1.51-7.388-4.252a18.088,18.088,0,0,1-3.173-10.583V79.259a20.841,20.841,0,0,1-5.346.677,23.823,23.823,0,0,1-4.247-.389C3.15,77.749.37,68.508,0,67.109A.088.088,0,0,1,.088,67a.1.1,0,0,1,.037.008,29.2,29.2,0,0,0,10.765,2.462,15.669,15.669,0,0,0,2.743-.23,17.036,17.036,0,0,0,9.043-4.6v-49.8A18.088,18.088,0,0,1,25.85,4.252C27.841,1.51,30.465,0,33.238,0H333.794c2.773,0,5.4,1.51,7.388,4.252a18.088,18.088,0,0,1,3.173,10.583V94.474a18.088,18.088,0,0,1-3.173,10.583c-1.991,2.742-4.615,4.252-7.388,4.252Z" transform="translate(94.473)" fill="#f5f4f4" stroke="#f5f5f5" stroke-width="2"/>
    </g>
    <path id="パス_792" data-name="パス 792" d="M15.372-18.648H21.24v-3.888H15.372V-24.48H11.484v1.944H5.616v3.888h5.868v6.156c-4.248,0-5.8,2.844-5.8,5.148,0,2.124,1.3,4.536,4.86,4.536,4.464,0,4.824-3.708,4.824-5.8,4.356.144,4.968,7.092-.864,7.092V2.376c11.2,0,10.3-13.788.864-14.8Zm5,6.264h3.888v-5.292H20.376ZM10.548-6.552A1,1,0,0,1,9.432-7.6c0-.828.72-1.224,2.268-1.224C11.7-7.416,11.628-6.552,10.548-6.552ZM55.26-10.08v-3.888H31.14v3.888ZM70.776-26.424C70.776-11.412,67.32-5.8,60.66-.4l2.7,2.772A24.3,24.3,0,0,0,72.72-10.44,24.061,24.061,0,0,0,82.044,2.376L84.78-.4C78.12-5.8,74.664-11.412,74.664-26.424ZM106.632-8.352V-16.7H110.7v-3.888h-4.068V-24.48h-3.888v3.888H94.68V-16.7h8.064v8.352ZM105.48-1.44c-3.132-.648-6.48-1.4-7.2-7.776l-3.888.324c.72,8.172,5.688,10.332,10.3,11.268Zm23.256-23.04v1.944h-6.12v3.888h6.12v3.78h-6.12v3.888h6.12v3.672c-4.212,0-5.76,2.88-5.76,5.148,0,2.16,1.26,4.536,4.824,4.536,4.464,0,4.824-3.672,4.824-5.8h3.636V-7.308h-3.636V-10.98h6.12v-3.888h-6.12v-3.78h6.12v-3.888h-6.12V-24.48ZM127.8-1.368a.992.992,0,0,1-1.116-1.008c0-.828.72-1.224,2.268-1.224C128.952-2.232,128.88-1.368,127.8-1.368Zm29.124-20.808a73.738,73.738,0,0,0,13.9-1.08v-3.888a76.137,76.137,0,0,1-13.9,1.08Zm-1.08,3.528v-3.888H154.4V-25.2h-3.888v2.664H147.78v3.888h2.736v8.388a16.53,16.53,0,0,1-2.736.216v3.888a20.932,20.932,0,0,0,2.736-.18V-3.96c0,1.872-.684,2.448-2.016,2.448V2.376c3.96,0,5.9-1.836,5.9-6.336V-7.2a8.207,8.207,0,0,0,1.44-.72v-3.924a12,12,0,0,1-1.44.612v-7.416Zm11.7-2.916-.684,2.916h-1.224l-.684-2.916h-3.276l.684,2.916h-1.476l-.684-2.916h-3.276l.684,2.916h-1.764v6.624h1.8V-9h8.244a14.393,14.393,0,0,1-2.664,3.6,13.966,13.966,0,0,1-2.088-2.772L157.968-5.9a17.952,17.952,0,0,0,2.124,3.024A18.085,18.085,0,0,1,156.24-.936l2.088,3.312a20.423,20.423,0,0,0,5-2.556,17.478,17.478,0,0,0,6.408,2.556L171.072-1.3a14.76,14.76,0,0,1-4.536-1.62A16.021,16.021,0,0,0,170.1-9v-3.024h1.8v-6.624h-1.764l.684-2.916Zm-7.812,8.676V-14.76h8.28v1.872ZM201.42-24.48h-1.656l.576-2.664h-4l-.576,2.664h-1.44v-2.664H190.44v2.664h-2.16v-2.664h-3.888v2.664h-1.4l-.612-2.664h-4l.612,2.664H177.3v3.888h3.6v3.06h-3.6v3.888h10.116V-12.1H178.38V-9.18h9.036v1.548H177.66v3.888h6.12A14.073,14.073,0,0,1,177.3-1.4l.936,3.78a14.047,14.047,0,0,0,9.18-4v4H191.3v-4a14.108,14.108,0,0,0,9.18,4l.936-3.78a14,14,0,0,1-6.444-2.34h6.084V-7.632H191.3V-9.18h9.036V-12.1H191.3v-1.548H201.42v-3.888h-3.6v-3.06h3.6Zm-16.632,6.948v-3.06h9.144v3.06Zm27.9-8.892H208.08l.36,20.484h3.888Zm-4.248,28.8h3.888V-2.3H208.44ZM221.256-18.9c0-2.556,1.476-3.636,3.24-3.636,1.8,0,3.276,1.08,3.276,3.636,0,4.392-5.22,4.284-5.22,12.96h3.888c0-8.028,5.22-6.8,5.22-12.96,0-5.292-3.564-7.524-7.164-7.524-3.564,0-7.128,2.232-7.128,7.524v1.3h3.888ZM226.44,2.376V-2.3h-3.888v4.68Z" transform="translate(143 70)" fill="#0d3993"/>
  </g>
</svg>
