<svg xmlns="http://www.w3.org/2000/svg" xmlns:xlink="http://www.w3.org/1999/xlink" width="360.532" height="133" viewBox="0 0 360.532 133">
  <defs>
    <filter id="長方形_6" x="15.532" y="0" width="345" height="133" filterUnits="userSpaceOnUse">
      <feOffset dy="5" input="SourceAlpha"/>
      <feGaussianBlur stdDeviation="3" result="blur"/>
      <feFlood flood-opacity="0.412"/>
      <feComposite operator="in" in2="blur"/>
      <feComposite in="SourceGraphic"/>
    </filter>
  </defs>
  <g id="グループ_138" data-name="グループ 138" transform="translate(-93.468 2)">
    <g transform="matrix(1, 0, 0, 1, 93.47, -2)" filter="url(#長方形_6)">
      <g id="長方形_6-2" data-name="長方形 6" transform="translate(26.53 6)" fill="#103a91" stroke="#d6d6d6" stroke-width="2">
        <rect width="323" height="111" rx="20" stroke="none"/>
        <rect x="-1" y="-1" width="325" height="113" rx="21" fill="none"/>
      </g>
    </g>
    <path id="合体_1" data-name="合体 1" d="M33.238,109.308c-2.773,0-5.4-1.51-7.388-4.252a18.088,18.088,0,0,1-3.173-10.583V79.259a20.841,20.841,0,0,1-5.346.677,23.823,23.823,0,0,1-4.247-.389C3.15,77.749.37,68.508,0,67.109A.088.088,0,0,1,.088,67a.1.1,0,0,1,.037.008,29.2,29.2,0,0,0,10.765,2.462,15.669,15.669,0,0,0,2.743-.23,17.036,17.036,0,0,0,9.043-4.6v-49.8A18.088,18.088,0,0,1,25.85,4.252C27.841,1.51,30.465,0,33.238,0H333.794c2.773,0,5.4,1.51,7.388,4.252a18.088,18.088,0,0,1,3.173,10.583V94.474a18.088,18.088,0,0,1-3.173,10.583c-1.991,2.742-4.615,4.252-7.388,4.252Z" transform="translate(94.473)" fill="#f5f4f4" stroke="#f5f5f5" stroke-width="2"/>
    <path id="パス_794" data-name="パス 794" d="M16.52-26.355v6.72l-1.645.385V-24.5H11.06v6.195l-.77.175v3.885l.77-.175V-4.375c0,5.46,2.03,6.685,7.245,6.685h7.42V-1.47h-6.86c-3.29,0-3.99-.28-3.99-2.9v-10.99l1.645-.385v6.125H20.3v-7.07l1.68-.385V-9.9c0,1.82-.665,2.345-1.96,2.345v3.815c3.85,0,5.74-1.785,5.74-6.16V-21.91L20.3-20.58v-5.775ZM9.415-18.13H7.735v-3.78H3.955v3.78H2.31v3.78H3.955v8.995A12.575,12.575,0,0,1,2.31-5.25v3.78c3.535,0,6.16-.8,7.105-1.575v-3.78c-.525.245-1.085.49-1.68.7V-14.35h1.68ZM49.7-25.69l.245,1.89h-1.33v-2.59h-3.78c0,.91,0,1.75.035,2.59H37.03v3.78H44.9c.105,7.105.49,11.76,1.68,15.4a21.581,21.581,0,0,1-1.54,1.995v-3.43A21.434,21.434,0,0,1,36.68-4.48V-.7A19.444,19.444,0,0,0,44.485-2c-.455.455-.945.91-1.435,1.33L44.8,2.31a23.494,23.494,0,0,0,3.325-3.43,21.019,21.019,0,0,0,2.59,3.43l2.66-2.695a16.773,16.773,0,0,1-2.8-4.305,44.5,44.5,0,0,0,2.8-6.055l-2.8-1.995c-.385,1.015-.84,2.1-1.33,3.22a86.475,86.475,0,0,1-.595-10.5h4.725V-23.8H52.43l-.245-1.89ZM34.86-6.3v-8.05h1.12v-3.78H34.86v-3.78H31.08v3.78H29.925v3.78H31.08v9.065c-.385,0-.77.035-1.155.035v3.78c3.535,0,5.075-.8,6.055-1.575v-3.78Zm2.17-11.83V-6.86h6.9V-18.13Zm2.555,7.49v-3.71H41.37v3.71ZM67.06-23.8v1.89H61.11v3.78h5.95v3.675H61.11v3.78h5.95v3.57c-4.095,0-5.6,2.8-5.6,5.005,0,2.1,1.225,4.41,4.69,4.41,4.34,0,4.69-3.57,4.69-5.635h3.535v-3.78H70.84v-3.57h5.95v-3.78H70.84V-18.13h5.95v-3.78H70.84V-23.8ZM66.15-1.33a.965.965,0,0,1-1.085-.98c0-.805.7-1.19,2.2-1.19C67.27-2.17,67.2-1.33,66.15-1.33ZM96.215-23.8H85.82v3.78h5.425L88.41-9.94c4.795-.245,7,1.61,7,4.34a3.823,3.823,0,0,1-2.065,3.64,4.419,4.419,0,0,0-2.87-4.655,4.413,4.413,0,0,0-5.67,2.66A4.178,4.178,0,0,0,85.47.21c1.54,1.785,4.06,2.1,5.985,2.1,5.215,0,7.735-3.78,7.735-7.91a7.677,7.677,0,0,0-5.95-7.525ZM90.02-2.1a1.12,1.12,0,0,1-1.435.7,1.115,1.115,0,0,1-.665-1.435A1.1,1.1,0,0,1,89.355-3.5,1.105,1.105,0,0,1,90.02-2.1ZM113.4-18.13c3.29,0,4.025.28,4.025,2.94h3.78c0-2.52-.42-4.165-1.4-5.18h.875v-4.515h-2.17v3.64a11.674,11.674,0,0,0-4.55-.665H108.4v3.78Zm10.5-2.24v-4.515h-2.17v4.515ZM106.4-5.425c0,5.46,2.03,6.685,7.245,6.685,6.895,0,9.485-1.015,9.485-1.015l-1.05-3.64s-1.925.875-7.875.875c-3.29,0-4.025-.28-4.025-2.905ZM142.17-18.34a31.786,31.786,0,0,0-3.92,2.625l-2.9-8.085H131.32l3.955,10.99C128-4.06,134.12,5.565,144.83,1.26l-.875-3.675c-8.33,4.025-13.09-5.215,0-12.6Zm20.3-5.46v3.78h-5.355v-1.89h-3.78v1.89h-2.1v3.78h2.1V-4.375c0,5.46,1.995,6.685,7.245,6.685,5.39,0,7.28-.98,7.28-.98l-.735-3.71a17.055,17.055,0,0,1-5.985.91c-3.29,0-4.025-.28-4.025-2.9V-16.24h5.355v2.765c0,3.29,0,3.99-1.12,3.99V-5.7c4.62,0,4.9-1.995,4.9-7.245v-3.29h2.45v-3.78h-2.45V-23.8ZM192.36-2.24c-2.94,1.435-4.06.6-5.04-1.96-1.33-3.465-4.13-4.725-6.475-4.375l2.73-15.225h-3.85L175,2.31h3.85l1.085-5.88c.21-1.05,2.625-2.345,3.99,1.015,1.96,4.8,5.25,5.915,9.485,3.955ZM209.37-23.8v3.78h-5.355v-1.89h-3.78v1.89h-2.1v3.78h2.1V-4.375c0,5.46,1.995,6.685,7.245,6.685,5.39,0,7.28-.98,7.28-.98l-.735-3.71a17.055,17.055,0,0,1-5.985.91c-3.29,0-4.025-.28-4.025-2.9V-16.24h5.355v2.765c0,3.29,0,3.99-1.12,3.99V-5.7c4.62,0,4.9-1.995,4.9-7.245v-3.29h2.45v-3.78h-2.45V-23.8Zm15.54,3.15h-3.78V-7.21c0,5.215,1.225,7.245,6.72,7.245v-3.78c-2.66,0-2.94-.735-2.94-4.025Zm8.925,6.055c2.625,0,2.9.7,2.9,3.99V.035h3.78V-11.13c0-5.25-1.225-7.245-6.685-7.245Zm18.445-11.1H247.8l.35,19.915h3.78Zm-4.13,28h3.78V-2.24h-3.78Zm12.11-20.685c0-2.485,1.435-3.535,3.15-3.535,1.75,0,3.185,1.05,3.185,3.535,0,4.27-5.075,4.165-5.075,12.6h3.78c0-7.8,5.075-6.615,5.075-12.6,0-5.145-3.465-7.315-6.965-7.315-3.465,0-6.93,2.17-6.93,7.315v1.26h3.78ZM265.3,2.31V-2.24h-3.78V2.31Z" transform="translate(143 69)" fill="#0d3993"/>
  </g>
</svg>
