<svg xmlns="http://www.w3.org/2000/svg" xmlns:xlink="http://www.w3.org/1999/xlink" width="358.272" height="132" viewBox="0 0 358.272 132">
  <defs>
    <filter id="長方形_6" x="15.272" y="0" width="343" height="132" filterUnits="userSpaceOnUse">
      <feOffset dy="5" input="SourceAlpha"/>
      <feGaussianBlur stdDeviation="3" result="blur"/>
      <feFlood flood-opacity="0.412"/>
      <feComposite operator="in" in2="blur"/>
      <feComposite in="SourceGraphic"/>
    </filter>
  </defs>
  <g id="グループ_141" data-name="グループ 141" transform="translate(-92.728 2)">
    <g transform="matrix(1, 0, 0, 1, 92.73, -2)" filter="url(#長方形_6)">
      <g id="長方形_6-2" data-name="長方形 6" transform="translate(26.27 6)" fill="#103a91" stroke="#d6d6d6" stroke-width="2">
        <rect width="321" height="110" rx="20" stroke="none"/>
        <rect x="-1" y="-1" width="323" height="112" rx="21" fill="none"/>
      </g>
    </g>
    <g id="グループ_140" data-name="グループ 140">
      <path id="合体_1" data-name="合体 1" d="M32.977,108.451c-2.751,0-5.354-1.5-7.33-4.219a17.946,17.946,0,0,1-3.148-10.5v-15.1a20.677,20.677,0,0,1-5.3.672,23.635,23.635,0,0,1-4.214-.386C3.126,77.139.367,67.97,0,66.582a.087.087,0,0,1,.084-.109.1.1,0,0,1,.037.008,28.975,28.975,0,0,0,10.681,2.442,15.547,15.547,0,0,0,2.722-.228A16.9,16.9,0,0,0,22.5,64.133V14.719a17.947,17.947,0,0,1,3.148-10.5C27.623,1.5,30.226,0,32.977,0h298.2c2.751,0,5.354,1.5,7.33,4.219a17.947,17.947,0,0,1,3.148,10.5V93.733a17.946,17.946,0,0,1-3.148,10.5c-1.976,2.72-4.579,4.219-7.33,4.219Z" transform="translate(93.732)" fill="#f5f4f4" stroke="#f5f5f5" stroke-width="2"/>
      <path id="パス_820" data-name="パス 820" d="M15.68-15.96a18.966,18.966,0,0,1,1.435,7.945c0,3.92-1.435,6.545-3.64,6.545-2.59,0-4.515-.84-4.515-4.375A29.484,29.484,0,0,1,11.9-18.13v-3.78H4.095v3.78H7.77A33.035,33.035,0,0,0,5.18-5.845c0,7.35,4.445,8.155,8.295,8.155,3.885,0,7.42-2.73,7.42-10.325a28.367,28.367,0,0,0-.56-5.74L22.89-12.53l1.645-3.395-7.21-3.43Zm33.04-2.38a31.786,31.786,0,0,0-3.92,2.625L41.9-23.8H37.87l3.955,10.99C34.545-4.06,40.67,5.565,51.38,1.26l-.875-3.675c-8.33,4.025-13.09-5.215,0-12.6Zm30.87-1.68V-23.8H68.705v3.78H74.62L69.9-14.455h-3.71v3.78h5.74C67.305-4.235,68.775,2.38,78.89,2.31l-.035-3.78c-7.42.105-6.44-4.585-1.995-9.205h4.655v-3.78h-6.65ZM112.21-7.56c0-4.83-2.87-7.315-6.86-7.315a7.834,7.834,0,0,0-3.5.875v-2.24H104.4v-3.78H101.85V-23.8H98.07v3.78H94.43v3.78h3.64v4.725c-1.26,1.015-2.73,2.24-4.48,3.78L95.76-4.62c.84-.77,1.61-1.47,2.31-2.065V2.31h3.78V-9.8a5.8,5.8,0,0,1,3.5-1.3c1.75,0,3.08,1.015,3.08,3.535v2.625c0,4.095.63,7.245,6.02,7.245V-1.47c-2,0-2.24-1.225-2.24-4.025Zm19.88-3.115c-4.585,6.44-3.115,13.055,7,12.985l-.035-3.78c-7.42.105-6.44-4.585-1.995-9.205h4.655v-3.78h-6.65l4.725-5.565v-1.89h1.4v-4.48h-2.17v2.59H128.9v3.78h5.915L130.1-14.455h-3.71v3.78ZM144.41-21.91v-4.48h-2.205v4.48Zm28,14.35c0-4.83-2.87-7.315-6.86-7.315a7.834,7.834,0,0,0-3.5.875v-2.24H164.6v-3.78H162.05V-23.8h-3.78v3.78h-3.64v3.78h3.64v4.725c-1.26,1.015-2.73,2.24-4.48,3.78l2.17,3.115c.84-.77,1.61-1.47,2.31-2.065V2.31h3.78V-9.8a5.8,5.8,0,0,1,3.5-1.3c1.75,0,3.08,1.015,3.08,3.535v2.625c0,4.095.63,7.245,6.02,7.245V-1.47c-1.995,0-2.24-1.225-2.24-4.025Z" transform="translate(142 69)" fill="#0d3993"/>
    </g>
  </g>
</svg>
