<svg xmlns="http://www.w3.org/2000/svg" xmlns:xlink="http://www.w3.org/1999/xlink" width="95" height="110" viewBox="0 0 95 110"><defs><clipPath id="a"><rect width="95" height="110" fill="none"/></clipPath></defs><g clip-path="url(#a)"><path d="M19.349,92.674c-.122,0-.212.091-.787.941a5.656,5.656,0,0,1-.451.623H14.364V87.253h4.986c.165,0,.426-.074.426-.559,0-.1-.042-.239-.575-.811-.789-.806-.985-.951-1.131-.951-.163,0-.371.15-.877.825l-.42.489h-11V81.824c3.935-.152,7.914-.416,11.842-.768l.786.182a.4.4,0,0,0,.423-.338c0-.08,0-.32-.65-.943-.225-.2-.5-.454-.85-.8l-.191-.182a.149.149,0,0,0-.153-.051,38.326,38.326,0,0,1-5.007,1.152c-1.343.291-3.25.588-6.069.951a8.776,8.776,0,0,0-1.715-.989.161.161,0,0,0-.149.013.174.174,0,0,0-.063.148c.059.711.09,1.49.09,2.3V94.238H2.936a11.9,11.9,0,0,1-2.686-.2.167.167,0,0,0-.157.043.174.174,0,0,0-.033.162L.4,95.268a.149.149,0,0,0,.145.107H.557a22.885,22.885,0,0,1,2.38-.1H20.8c.16,0,.426-.076.426-.578,0-.133-.114-.314-.729-1.1-.575-.7-.873-.922-1.141-.922M5.78,87.252h6.877v6.985H5.78Z" transform="translate(-0.005 -7.277)" fill="#0d3993"/><path d="M7.621,97.913c-.395-.2-.856-.454-1.364-.773a.178.178,0,0,0-.125-.019.166.166,0,0,0-.1.1,11.606,11.606,0,0,1-2.216,3.515,21.8,21.8,0,0,1-3.245,2.944.174.174,0,0,0-.044.194l.181.487a.128.128,0,0,0,.086.083.107.107,0,0,0,.051.013.164.164,0,0,0,.071-.019,22.142,22.142,0,0,0,4.226-2.831A17.414,17.414,0,0,0,7.38,99.171s.082-.065.489-.065c.388-.04.588-.182.588-.416,0-.2-.218-.416-.84-.776" transform="translate(-0.05 -8.955)" fill="#0d3993"/><path d="M14.6,97.6a.159.159,0,0,0-.2.065l-.181.3a.157.157,0,0,0,.048.209,14.626,14.626,0,0,1,4.224,4.872c.341.776.722,1.243,1.125,1.243.271,0,.477-.251.645-.515a1.737,1.737,0,0,0,.2-.838,3.488,3.488,0,0,0-1.139-2.218A16.772,16.772,0,0,0,14.6,97.6" transform="translate(-1.38 -8.998)" fill="#0d3993"/><path d="M47.141,96.759c-.147,0-.3.152-.768.751-.09.126-.361.464-.451.559H40.956V95.963h3.727v.363c0,.3.181.454.508.454a2.155,2.155,0,0,0,.739-.129c.277-.07.422-.226.42-.454a13.577,13.577,0,0,1-.09-1.5V90.3c0-.074.03-.167.239-.314.3-.182.451-.373.451-.591,0-.145-.107-.355-.632-.878-.552-.437-.694-.468-.787-.468a.56.56,0,0,0-.451.272l-.489.532H40.955V87.072h6.791c.157,0,.418-.074.418-.566,0-.142-.13-.363-.6-.967-.445-.586-.722-.811-.949-.811-.117,0-.216.061-.786.753-.16.2-.35.454-.429.545H40.955v-.945c0-.108.04-.194.228-.26a.755.755,0,0,0,.613-.715c0-.2-.271-.333-.794-.433-.6-.105-1.093-.182-1.475-.239a.148.148,0,0,0-.126.048.153.153,0,0,0-.049.124c.047.677.09,1.509.09,2.372v.046H35.477a12.276,12.276,0,0,1-2.654-.2.149.149,0,0,0-.151.042.161.161,0,0,0-.033.161L33,87.042a.145.145,0,0,0,.166.1c.451-.044,1.223-.076,2.313-.076h3.966v1.781H35.636a9.621,9.621,0,0,0-1.379-.792.139.139,0,0,0-.153.015.137.137,0,0,0-.07.129c.042.589.068,1.19.068,1.8v5.1a12.881,12.881,0,0,1-.07,1.319.509.509,0,0,0,.581.545,2.073,2.073,0,0,0,.715-.131.5.5,0,0,0,.3-.409v-.47h3.811v2.106H34.7a12.008,12.008,0,0,1-2.692-.2.153.153,0,0,0-.153.051.145.145,0,0,0-.032.154l.331,1a.154.154,0,0,0,.166.105,23.4,23.4,0,0,1,2.38-.1h4.743v1.146c0,.644-.036,1.348-.076,2.108l-.011.232c.032.424.241.635.577.635a2.792,2.792,0,0,0,.785-.15.545.545,0,0,0,.33-.513c-.06-.751-.09-1.517-.09-2.309V99.075H48.28c.09,0,.4-.04.4-.553,0-.139-.124-.32-.592-.969-.437-.559-.711-.8-.942-.8m-7.7-4.993H35.632V89.857h3.811Zm-3.811,1.013h3.811v2.179H35.632Zm9.054-1.013H40.959V89.857h3.727Zm-3.727,1.013h3.727v2.179H40.959Z" transform="translate(-3.091 -7.693)" fill="#0d3993"/><path d="M46.759,80.42c-.162,0-.367.135-.871.827l-.451.492H40.425V80.473c0-.171.069-.255.254-.319.542-.192.648-.486.648-.675s-.26-.333-.844-.473c-.384-.038-.722-.091-1.028-.129-.208-.034-.4-.059-.569-.074a.18.18,0,0,0-.128.036.178.178,0,0,0-.044.143v.074c.042.409.082.773.082,1.11v1.568H31.722a8.017,8.017,0,0,0-1.561-.886.139.139,0,0,0-.153.008.167.167,0,0,0-.067.15c.116,1.287.181,3.475.181,6.183a60.99,60.99,0,0,1-.558,9.456,26.22,26.22,0,0,1-1.677,5.409.182.182,0,0,0,.042.2l.246.272a.182.182,0,0,0,.1.034h.019a.159.159,0,0,0,.109-.07,17.9,17.9,0,0,0,3.07-8.506q.271-2.973.271-6.788V82.744H48.049c.162,0,.423-.072.423-.567,0-.091-.042-.226-.577-.811-.787-.812-.988-.943-1.135-.943" transform="translate(-2.709 -7.266)" fill="#0d3993"/><path d="M71.509,97.2a12.239,12.239,0,0,1-3.118-4.169,22.43,22.43,0,0,1-1.943-5.8h8.4c.181,0,.489-.074.489-.559,0-.135-.09-.376-.768-1.271C73.847,84.5,73.53,84.4,73.354,84.4c-.138,0-.26.091-.951,1.029l-.271.373c-.149.209-.271.369-.314.424h-5.88c.181-1.5.33-3.372.47-5.554,0-.12.109-.226.331-.32a.693.693,0,0,0,.571-.69c0-.15-.117-.384-1.2-.635-.477-.126-.952-.223-1.48-.323a.157.157,0,0,0-.128.025.152.152,0,0,0-.059.114v1.623a51.778,51.778,0,0,1-.338,5.758H58.48a12.389,12.389,0,0,1-2.692-.194.166.166,0,0,0-.153.046.151.151,0,0,0-.032.156l.357,1a.166.166,0,0,0,.166.105,19.8,19.8,0,0,1,2.355-.105h5.5c-.193,1.271-.386,2.388-.59,3.421a18.923,18.923,0,0,1-3.5,7.172,21.344,21.344,0,0,1-4.581,4.157.159.159,0,0,0-.056.2l.181.487a.137.137,0,0,0,.09.083.106.106,0,0,0,.05.013.213.213,0,0,0,.074-.019,23.552,23.552,0,0,0,5.3-4.02,14.446,14.446,0,0,0,3.673-5.885,25.14,25.14,0,0,0,1.083-4.8,28.959,28.959,0,0,0,1.373,5.377,20.341,20.341,0,0,0,2.1,4.012,17.141,17.141,0,0,0,3.291,3.549c1.1.918,1.733,1.344,2.1,1.344.135,0,.212-.135.409-.684a1.537,1.537,0,0,1,.993-.789.159.159,0,0,0,.1-.108l.09-.272a.157.157,0,0,0-.08-.188A17.8,17.8,0,0,1,71.5,97.2" transform="translate(-5.368 -7.256)" fill="#0d3993"/><path d="M87.958,83.388c.191.95.612,1.12.934,1.12s.5-.255.626-.536a1.55,1.55,0,0,0,.244-.8,2.73,2.73,0,0,0-.7-1.713,7.447,7.447,0,0,0-2.123-1.836.17.17,0,0,0-.206.03l-.157.209a.163.163,0,0,0,0,.188,10.74,10.74,0,0,1,1.385,3.338" transform="translate(-8.41 -7.34)" fill="#0d3993"/><path d="M93.12,82.822c.146.682.461,1.019.932,1.019a.765.765,0,0,0,.626-.424,1.737,1.737,0,0,0,.246-.83,3.171,3.171,0,0,0-.632-1.8,7.252,7.252,0,0,0-1.922-1.956.163.163,0,0,0-.208.024l-.181.213a.184.184,0,0,0-.023.192,12.47,12.47,0,0,1,1.157,3.562" transform="translate(-8.934 -7.266)" fill="#0d3993"/><path d="M102.382,84.532c-.77-.833-.993-.962-1.165-.962-.233,0-.434.192-.659.586-.147.182-.309.363-.491.585H96.812A29.915,29.915,0,0,0,99.506,81a.121.121,0,0,0,.017-.038c.033-.114.208-.171.347-.2.428-.091.52-.306.52-.46,0-.2-.141-.454-1.236-.741a3.9,3.9,0,0,1-.38-.123c-.247-.083-.535-.182-.846-.291a.159.159,0,0,0-.124.015.167.167,0,0,0-.075.114,26.63,26.63,0,0,1-2.072,5.461h-10.3c-.017-.26-.044-.532-.071-.939l-.03-.3a.156.156,0,0,0-.157-.142h-.271a.154.154,0,0,0-.155.148,6.407,6.407,0,0,1-.98,3.45c-.692.72-1.058,1.228-1.058,1.566a.922.922,0,0,0,.22.635.847.847,0,0,0,.683.308,1.531,1.531,0,0,0,1.288-.69,4.787,4.787,0,0,0,.6-2.613c0-.074,0-.156-.009-.255,0-.053-.009-.1-.011-.158H100.1a18.267,18.267,0,0,1-1.228,2.87.164.164,0,0,0,.044.2l.271.209a.145.145,0,0,0,.2-.008c.722-.692,1.491-1.513,2.369-2.486a1.2,1.2,0,0,1,.618-.319c.591-.038.655-.378.655-.521,0-.245-.181-.559-.646-1.167" transform="translate(-8.03 -7.298)" fill="#0d3993"/><path d="M100.874,93.362c-.124,0-.212.074-.813.884-.181.234-.391.519-.464.6H93.7V93.467a29.526,29.526,0,0,0,4.147-2.239c.023-.019.044-.032.052-.059a1.443,1.443,0,0,1,.607-.2c.283-.11.612-.272.612-.57,0-.247-.233-.61-.722-1.082-.55-.507-.8-.677-.993-.677a.819.819,0,0,0-.514.255c-.208.152-.417.3-.632.454H88.908a14.15,14.15,0,0,1-2.523-.2.156.156,0,0,0-.147.064.14.14,0,0,0-.029.142l.336,1a.152.152,0,0,0,.162.105c.5-.044,1.307-.1,2.2-.1h7.165a15.675,15.675,0,0,1-2.505,2.307,9.852,9.852,0,0,0-1.381-.5.243.243,0,0,0-.155.025.16.16,0,0,0-.071.123v2.542H85.91a12.33,12.33,0,0,1-2.654-.192.156.156,0,0,0-.153.044.154.154,0,0,0-.034.152l.361,1.01a.157.157,0,0,0,.163.1,20.647,20.647,0,0,1,2.321-.1h6.049v5.261c0,.108-.13.158-.367.158a34.716,34.716,0,0,1-3.618-.523.154.154,0,0,0-.124.036.151.151,0,0,0-.057.12v.422a.157.157,0,0,0,.113.145c2.347.644,2.681,1.047,2.713,1.18.1.848.439,1.017.713,1.017a3.29,3.29,0,0,0,1.608-.616,1.781,1.781,0,0,0,.759-1.629V95.857h8.523c.155,0,.422-.072.422-.566,0-.108-.054-.261-.68-1.028-.474-.645-.819-.908-1.1-.908" transform="translate(-8.071 -8.173)" fill="#0d3993"/><rect width="2.992" height="55.043" transform="translate(32.646 4.754)" fill="#0d3993"/><path d="M65.395,33.887V33.8A14.567,14.567,0,1,0,50.835,49,14.44,14.44,0,0,0,62.4,43.135v18.29H65.4V33.887M50.835,45.933A11.839,11.839,0,1,1,62.4,33.887V34.3A11.711,11.711,0,0,1,50.832,45.933Z" transform="translate(-3.525 -1.817)" fill="#0d3993"/><path d="M61.77,61.278A32.536,32.536,0,0,0,74.951,13.694C64.692-1.9,42.065-4.5,28.255,7.558a32.785,32.785,0,0,0-9.106,35.121A31.784,31.784,0,0,0,48.5,63.854c1.445.036,1.471-4.235,0-4.267A30.462,30.462,0,0,1,24.815,47.653a26.112,26.112,0,0,1-3.349-25.781c7.609-18.29,31.4-22.69,46.256-11.194A27.218,27.218,0,0,1,78.27,34.155c-.911,10.215-8.187,18.829-17.051,23.019-1.269.6-.89,4.788.556,4.11" transform="translate(-1.686 0)" fill="#0d3993"/><path d="M4.6,112.308h.5a.3.3,0,0,1,.258.112.588.588,0,0,1,.084.373v2.17H1.907V112.83a.7.7,0,0,1,.1-.416.287.287,0,0,1,.244-.1h.515v-.675H0v.675H.592a.243.243,0,0,1,.191.072.769.769,0,0,1,.1.454v5.111a.655.655,0,0,1-.082.389.32.32,0,0,1-.25.124H0v.635H2.747v-.629H2.275c-.181,0-.252-.053-.279-.091a.711.711,0,0,1-.09-.427v-2.368H5.438v2.338a.771.771,0,0,1-.09.454c-.052.064-.113.083-.281.083H4.59v.635H7.354v-.626h-.52c-.277-.006-.321-.091-.34-.19,0-.008-.016-.222-.016-.331v-5.157a.588.588,0,0,1,.1-.392.321.321,0,0,1,.25-.091h.522v-.667H4.6v.667" transform="translate(0 -10.294)" fill="#0d3993"/><path d="M14.7,112.316h.181a1.349,1.349,0,0,1,.382.027.214.214,0,0,1,.125.091.142.142,0,0,1,.029.091,1.177,1.177,0,0,1-.2.576l-1.287,2.2-1.278-2.241a1.615,1.615,0,0,1-.255-.572.208.208,0,0,1,.021-.1.17.17,0,0,1,.09-.059,3.57,3.57,0,0,1,.451-.021h.181v-.667H10.124v.667h.168c.256,0,.4.015.441.017a.776.776,0,0,1,.451.363l2,3.429v1.848a.7.7,0,0,1-.09.414.3.3,0,0,1-.25.091H12.2v.62h3.028v-.62h-.669a.317.317,0,0,1-.256-.1.79.79,0,0,1-.078-.427v-1.838l1.746-3.026a1.747,1.747,0,0,1,.611-.629,1.154,1.154,0,0,1,.493-.129l.163-.015v-.663H14.7v.671" transform="translate(-0.984 -10.294)" fill="#0d3993"/><path d="M55,112.315l.174.006a.583.583,0,0,1,.487.2.965.965,0,0,1,.168.623v3.2a2.985,2.985,0,0,1-.187,1.163,1.594,1.594,0,0,1-.664.8,1.772,1.772,0,0,1-.949.272,1.616,1.616,0,0,1-1.234-.487,1.665,1.665,0,0,1-.355-.591,1.339,1.339,0,0,1-.071-.32,8.426,8.426,0,0,1-.027-.854V112.8a.69.69,0,0,1,.086-.392.226.226,0,0,1,.2-.083h.58v-.669H50.57v.675h.506a.322.322,0,0,1,.23.076c.071.078.09.188.09.428v3.443a4.266,4.266,0,0,0,.136,1.233,2.461,2.461,0,0,0,.821,1.214,2.353,2.353,0,0,0,1.543.519,2.428,2.428,0,0,0,1.553-.526,2.337,2.337,0,0,0,.667-.783,3.393,3.393,0,0,0,.317-1.517v-3.256a1.059,1.059,0,0,1,.147-.656.54.54,0,0,1,.477-.175l.174-.006v-.674H54.994v.674" transform="translate(-4.914 -10.295)" fill="#0d3993"/><path d="M97.775,117.994c-.244.395-.386.614-.588.614a.172.172,0,0,1-.166-.091,1.051,1.051,0,0,1-.082-.5V115H98.1v-.547H96.939V112.82h-.516l-.006.169a3.145,3.145,0,0,1-.114.762,1.371,1.371,0,0,1-.288.572.692.692,0,0,1-.3.171l-.13.046v.47h.556v3a2.6,2.6,0,0,0,.065.709.835.835,0,0,0,.813.635.889.889,0,0,0,.676-.285,2.006,2.006,0,0,0,.477-.747l-.4-.312" transform="translate(-9.288 -10.403)" fill="#0d3993"/><path d="M25.091,115.381c0,1.768-.889,3.177-2.378,3.177s-2.378-1.407-2.378-3.177.892-3.195,2.378-3.195,2.378,1.418,2.378,3.195m-2.378-3.83a3.846,3.846,0,1,0,3.42,4.214,3.846,3.846,0,0,0-3.4-4.213h-.018Z" transform="translate(-1.798 -10.284)" fill="#0d3993"/><path d="M44.006,115.381c0,1.768-.89,3.177-2.378,3.177s-2.384-1.407-2.384-3.177.9-3.195,2.384-3.195,2.378,1.418,2.378,3.195m-2.378-3.83a3.846,3.846,0,1,0,3.417,4.217,3.685,3.685,0,0,0,.02-.387,3.624,3.624,0,0,0-3.4-3.828l-.033,0" transform="translate(-3.636 -10.284)" fill="#0d3993"/><path d="M35.781,115.692H32.839v.635H33.3c.493,0,.583.223.583.414v.838a.84.84,0,0,1-.019.15,1.4,1.4,0,0,1-1.134.785,2.125,2.125,0,0,1-.331.025c-1.486,0-2.374-1.407-2.374-3.177s.887-3.195,2.374-3.195a2.319,2.319,0,0,1,2.077,1.652l.564-.289-.722-2.19a3.172,3.172,0,0,1-.411.308.659.659,0,0,1-.35.091.894.894,0,0,1-.214-.024,2.865,2.865,0,0,0-.94-.182,3.85,3.85,0,0,0,0,7.654h.111a4.62,4.62,0,0,0,.93-.226,2.844,2.844,0,0,1,.764-.215,1.878,1.878,0,0,1,.672.025v-2.1a.319.319,0,0,1,.265-.342h.64v-.635" transform="translate(-2.816 -10.266)" fill="#0d3993"/><path d="M63.832,118.745c-.292,0-.344-.078-.361-.142a.7.7,0,0,1-.038-.228V116a1.88,1.88,0,0,0-.331-1.152,1.126,1.126,0,0,0-.924-.473,1.712,1.712,0,0,0-1.15.534v-1.036l-.3.327a1.31,1.31,0,0,1-.924.477h-.193v.578h.5a.1.1,0,0,1,.1.1v3.03c0,.323-.041.3-.041.3s-.016.067-.308.067h-.248v.553H61.58v-.553h-.214c-.252,0-.3-.053-.309-.1a.687.687,0,0,1-.032-.287V115.75a1.288,1.288,0,0,1,.919-.625.562.562,0,0,1,.5.253,1.168,1.168,0,0,1,.2.747v2.26c0,.32-.046.293-.046.293s-.011.07-.3.07h-.2v.545h1.9v-.545h-.163" transform="translate(-5.793 -10.5)" fill="#0d3993"/><path d="M68.074,118.752c-.292,0-.3-.067-.3-.067s-.044.025-.044-.3v-4.514l-.3.327a1.288,1.288,0,0,1-.9.479h-.191v.576h.506a.1.1,0,0,1,.1.1v3.029c0,.32-.046.3-.046.3s-.015.067-.3.067h-.228v.545H68.3v-.545h-.228" transform="translate(-6.446 -10.5)" fill="#0d3993"/><path d="M72.585,114.621v.551a.957.957,0,0,1,.287.038.358.358,0,0,1,.222.325v.057a1.657,1.657,0,0,1-.059.255l-.692,2.129-.783-2.348a2.473,2.473,0,0,1-.075-.249.156.156,0,0,1,.09-.2.146.146,0,0,1,.071-.009h.29v-.545H70.01v.545a1.054,1.054,0,0,1,.4.1.379.379,0,0,1,.162.192,4.073,4.073,0,0,1,.162.42L72,119.364l.451.011,1.165-3.454a1.528,1.528,0,0,1,.214-.47.741.741,0,0,1,.55-.272v-.555H72.582" transform="translate(-6.803 -10.569)" fill="#0d3993"/><path d="M79.332,117.909a3.258,3.258,0,0,1-.759.72.937.937,0,0,1-.632.15c-.554-.032-1.016-.753-1.016-1.785a1.306,1.306,0,0,1,.006-.156H79.65c-.06-1.461-.722-2.41-1.691-2.41-1.014,0-1.876,1.266-1.876,2.659a2.147,2.147,0,0,0,1.873,2.385h0a1.677,1.677,0,0,0,.935-.33,3.222,3.222,0,0,0,.821-.908l-.384-.327m-1.282-2.882c.42,0,.716.524.835,1.22H77.1c.159-.694.535-1.218.952-1.218Z" transform="translate(-7.392 -10.551)" fill="#0d3993"/><path d="M89.315,117.078a2.6,2.6,0,0,0-1.139-.72,2.162,2.162,0,0,1-.474-.213.584.584,0,0,1,.285-1.095.833.833,0,0,1,.542.223,1.3,1.3,0,0,1,.231.3,2.95,2.95,0,0,1,.2.475l.055.182.451-.137-.2-1.794s-.451.323-.468.333a1.709,1.709,0,0,0-.843-.209,1.12,1.12,0,0,0-.875.441,1.48,1.48,0,0,0-.33.935,1.34,1.34,0,0,0,.451,1.068,3.624,3.624,0,0,0,.732.4c.3.148.516.232.65.31a.675.675,0,0,1-.312,1.289h-.01a.815.815,0,0,1-.441-.126,1.808,1.808,0,0,1-.193-.15,1.984,1.984,0,0,1-.451-.873l-.033-.135-.472.137.289,2,.418-.521c.181.07.309.114.512.2a1.007,1.007,0,0,0,.361.067,1.356,1.356,0,0,0,1.013-.448,1.515,1.515,0,0,0,.342-1,1.62,1.62,0,0,0-.29-.939" transform="translate(-8.422 -10.539)" fill="#0d3993"/><path d="M84.63,114.355a1.032,1.032,0,0,0-.241-.036.756.756,0,0,0-.181.027,1.352,1.352,0,0,0-.729.5c-.029.04-.063.08-.09.124v-1.089l-.293.327a1.325,1.325,0,0,1-.925.479h-.189v.576h.5a.107.107,0,0,1,.1.1v3.03c0,.32-.051.3-.051.3s-.009.067-.3.067h-.216v.545h1.937v-.545h-.225c-.292,0-.3-.067-.3-.067s-.046.025-.046-.3v-1.6a3.466,3.466,0,0,1,.1-.914,1.5,1.5,0,0,1,.361-.648,1.935,1.935,0,0,0,.347.217.509.509,0,0,0,.228.048.585.585,0,0,0,.583-.578.624.624,0,0,0-.38-.561" transform="translate(-7.966 -10.5)" fill="#0d3993"/><path d="M101.793,120.076a1.143,1.143,0,0,1-.26.239,1.3,1.3,0,0,1-.737.253.721.721,0,0,1-.542-.207.59.59,0,0,1-.166-.414.605.605,0,0,1,.119-.382.405.405,0,0,1,.553-.135l.211.112c.1.059.162.091.181.1a.389.389,0,0,0,.317-.114.892.892,0,0,0,.271-.4l-1.4-3.653a.415.415,0,0,0-.4-.285l-.181-.015v-.551h2.021v.545a1.435,1.435,0,0,0-.361.053.241.241,0,0,0-.157.194.627.627,0,0,0,.035.152c.025.1.09.281.12.363l.735,2.093.68-1.947a2.162,2.162,0,0,0,.09-.6.28.28,0,0,0-.2-.266,1.243,1.243,0,0,0-.13-.034h-.168v-.545h1.887v.545l-.143.021a.8.8,0,0,0-.423.236,2.807,2.807,0,0,0-.409.863l-.987,2.819a3.664,3.664,0,0,1-.556.967" transform="translate(-9.694 -10.569)" fill="#0d3993"/><path d="M67.889,112.388a.642.642,0,1,1-1.264.226.634.634,0,0,1,0-.226.641.641,0,1,1,1.264-.215.662.662,0,0,1,0,.215" transform="translate(-6.473 -10.294)" fill="#0d3993"/><path d="M93.546,118.752c-.29,0-.3-.067-.3-.067s-.048.025-.048-.3v-4.514l-.283.327a1.354,1.354,0,0,1-.917.479H91.8v.576H92.3a.1.1,0,0,1,.1.1v3.03c0,.32-.044.3-.044.3s-.01.067-.287.067h-.231v.545h1.927v-.545h-.218" transform="translate(-8.921 -10.5)" fill="#0d3993"/><path d="M93.358,112.388a.641.641,0,1,1-1.264.215.661.661,0,0,1,0-.215.64.64,0,1,1,1.264,0" transform="translate(-8.948 -10.294)" fill="#0d3993"/></g></svg>