<svg xmlns="http://www.w3.org/2000/svg" width="432.19" height="24.778" viewBox="0 0 432.19 24.778">
  <g id="トップタイトルテキスト素材" transform="translate(70.908 5.568)">
    <path id="パス_821" data-name="パス 821" d="M19.136-6.89v-5.824h3.38c.988,0,1.508-.494,1.508-1.222,0-.962-.806-1.222-2.08-1.222H7.826v-1.69c0-.936.1-1.092,1.066-1.144,3.51-.156,7.072-.442,9.828-.832a8.6,8.6,0,0,0,3.042-.728,1.274,1.274,0,0,0,.468-.962,1.265,1.265,0,0,0-1.248-1.248,3.273,3.273,0,0,0-.7.1A67.722,67.722,0,0,1,7.358-20.124c-1.3.052-2.158.572-2.158,1.976V-6.89H2.626c-.806,0-1.534.364-1.534,1.222,0,.78.572,1.2,1.586,1.2H23.452c.754,0,1.508-.338,1.508-1.2,0-.91-.806-1.222-1.612-1.222Zm-2.574,0H7.826v-5.824h8.736Zm-.65,4.212c0,.728.884,1.43,1.612,1.976.988.728,4.134,2.73,5.3,2.73A1.293,1.293,0,0,0,24.128.7c0-.832-.728-1.144-1.69-1.534A13.549,13.549,0,0,1,18.9-2.938C17.862-3.822,17.576-4,17.238-4A1.367,1.367,0,0,0,15.912-2.678Zm-5.3.078A1.266,1.266,0,0,0,9.334-3.822a1.439,1.439,0,0,0-.936.39A21.059,21.059,0,0,1,4.16-.988C2-.182,1.82-.052,1.82.728a1.3,1.3,0,0,0,1.17,1.3A9.448,9.448,0,0,0,6.318.858a24.874,24.874,0,0,0,3.718-2.34A1.525,1.525,0,0,0,10.608-2.6ZM40.794-20.15H32.422c-1.222,0-2,.624-2,1.768v8.4c0,1.534-.052,3.042-.156,4.576A14.393,14.393,0,0,1,29.2-.936,3.554,3.554,0,0,0,28.86.234a1.319,1.319,0,0,0,1.352,1.222c.962,0,1.326-.7,1.586-1.508a35.212,35.212,0,0,0,1.17-9.88v-7.254c0-.468.312-.65.754-.65H51.064c1.066,0,1.586-.442,1.586-1.17,0-.754-.572-1.144-1.612-1.144H43.5v-.182c0-.91-.286-1.664-1.352-1.664-1.092,0-1.352.754-1.352,1.664Zm.806,7.176H36.244A1.693,1.693,0,0,0,34.4-11.232v5.148a1.693,1.693,0,0,0,1.846,1.742H41.6v1.066H35c-1.144,0-1.586.442-1.586,1.144,0,.78.468,1.144,1.638,1.144H41.6V.572c0,.962.468,1.508,1.222,1.508.936,0,1.222-.78,1.222-1.612V-.988h7.1c.858,0,1.742-.182,1.742-1.144,0-.754-.364-1.144-1.716-1.144H44.044V-4.342h5.564a1.68,1.68,0,0,0,1.846-1.742v-5.148a1.693,1.693,0,0,0-1.846-1.742H44.044v-1.17H50.7c.754,0,1.716-.052,1.716-1.04s-1.04-1.04-1.82-1.04H44.044c-.026-.754-.364-1.43-1.248-1.43-.858,0-1.17.676-1.2,1.43H35.568c-.78,0-1.82.052-1.82,1.04s.962,1.04,1.716,1.04H41.6Zm0,3.354H36.66v-.624c0-.442.208-.624.7-.624H41.6Zm2.444,0v-1.248h4.212c.416,0,.7.182.7.624v.624ZM41.6-7.878v1.4H37.362c-.546,0-.7-.208-.7-.624v-.78Zm2.444,0h4.914v.78c0,.468-.286.624-.7.624H44.044Zm23.582-4.914c-.416,5.252-3.64,9.1-8.19,11.518-.7.364-1.95,1.014-1.95,1.846a1.347,1.347,0,0,0,1.326,1.456c1.248,0,2.938-1.274,3.9-2a19.358,19.358,0,0,0,6.526-8.008A21.981,21.981,0,0,0,76.31.442,7.479,7.479,0,0,0,79.638,1.9,1.437,1.437,0,0,0,81.094.442a1.354,1.354,0,0,0-.858-1.17c-.858-.468-1.638-.91-2.418-1.43A19.019,19.019,0,0,1,73.606-5.98a13.785,13.785,0,0,1-2.912-6.812h7.9c1.04,0,2.08,0,2.08-1.378,0-1.456-.91-1.456-2.08-1.456H70.564v-4.16c0-1.04,0-2.08-1.352-2.08-1.482,0-1.482.91-1.482,2.08v4.16H59.644c-1.04,0-2.08,0-2.08,1.352,0,1.456.91,1.482,2.08,1.482ZM92.56-17.94a1.075,1.075,0,0,0,.13-.494,5.46,5.46,0,0,0-.988-2.158,2.209,2.209,0,0,0-1.664-1.248A1.173,1.173,0,0,0,89-20.618a12.246,12.246,0,0,0,1.4,2.678H88.036a2.02,2.02,0,0,0-2.106,1.872v3.146a3.051,3.051,0,0,0,.208,1.2,1.14,1.14,0,0,0,1.04.6,1.134,1.134,0,0,0,.858-.338A2.274,2.274,0,0,0,88.4-12.9v-1.768c0-.572.1-.832.728-.832h16.12c.676,0,.754.26.754.884v1.872a2.519,2.519,0,0,0,.182,1.014,1.181,1.181,0,0,0,1.066.6,1.12,1.12,0,0,0,1.04-.546,2.65,2.65,0,0,0,.208-1.04v-3.64a1.63,1.63,0,0,0-1.742-1.586h-2.6a6.462,6.462,0,0,0,1.3-2.678,1.331,1.331,0,0,0-1.352-1.17c-.494,0-.728.13-1.248,1.144-.468.91-1.04,1.82-1.612,2.7H97.916a1.237,1.237,0,0,0,.182-.6,6.649,6.649,0,0,0-.962-2.366c-.312-.546-.676-1.014-1.274-1.014a1.232,1.232,0,0,0-1.2,1.092A14.868,14.868,0,0,0,95.94-17.94ZM107.484-5.122a1.978,1.978,0,0,0,1.118-.26A1.092,1.092,0,0,0,109.1-6.4a1.215,1.215,0,0,0-.338-.884,2.1,2.1,0,0,0-1.274-.364h-6.5c1.326-.962,3.406-2.808,3.406-4.576a1.594,1.594,0,0,0-1.794-1.664H91.442c-1.092,0-1.612.416-1.612,1.222,0,1.222,1.144,1.222,2.08,1.222h8.606c.312,0,.52.026.52.26,0,.546-2.366,2.262-2.86,2.6-.7-1.014-1.664-2-2.392-2a1.172,1.172,0,0,0-1.118,1.17c0,.442.624,1.222,1.092,1.768H87.594a3.465,3.465,0,0,0-1.534.208,1.073,1.073,0,0,0-.546,1.04,1.159,1.159,0,0,0,.364.91,1.92,1.92,0,0,0,1.274.364H97.24a6.813,6.813,0,0,1,.728,2.574A2.131,2.131,0,0,1,95.654-.39a8.371,8.371,0,0,1-2.392-.39,4.018,4.018,0,0,0-1.04-.208A1.243,1.243,0,0,0,90.87.312c0,1.638,3.146,1.9,4.654,1.9,2.886,0,4.94-1.482,4.94-4.576a8.382,8.382,0,0,0-.546-2.756Zm21.814-8.06a19.891,19.891,0,0,1-3.978,2.912c-.858.468-1.118.78-1.118,1.378a1.169,1.169,0,0,0,1.092,1.248,5.48,5.48,0,0,0,2.34-1.2c.364-.26.624-.442,1.014-.7h3.38c.156,0,.338.026.338.234,0,.364-.65.962-.962,1.222a1.465,1.465,0,0,0-1.274-.754,1.091,1.091,0,0,0-.962,1.144,2.418,2.418,0,0,0,.468,1.2c.156.26.286.52.416.78-1.43.078-2.886.13-4.29.182-.806.026-.936.026-1.274.338a1.3,1.3,0,0,0-.364.884c0,.806.65,1.2,1.664,1.2,1.716,0,3.406-.1,5.1-.208a6.463,6.463,0,0,1,.234,1.534c0,1.04-.754,1.326-1.664,1.326-.182,0-.65-.026-1.144-.078-.234-.026-.52-.052-.7-.052A1.18,1.18,0,0,0,126.542.7a1.162,1.162,0,0,0,.754,1.092,7.765,7.765,0,0,0,2.366.338c2.288,0,3.848-1.014,3.848-3.432a10.7,10.7,0,0,0-.234-2.236,28.751,28.751,0,0,0,2.99-.442,1.166,1.166,0,0,0,1.014-1.2,1.1,1.1,0,0,0-1.118-1.144,4.576,4.576,0,0,0-.6.078c-.884.13-1.716.234-2.964.338a1.268,1.268,0,0,1-.078-.182c1.95-1.456,3.042-2.964,3.042-4.108a1.35,1.35,0,0,0-1.534-1.456h-2.782c.52-.494,1.014-1.014,1.508-1.534h2.7c1.014,0,1.508-.494,1.508-1.248,0-.7-.416-1.222-1.56-1.222h-.572c.676-.832,2.418-3.068,2.418-4.082a1.233,1.233,0,0,0-1.2-1.222c-.546,0-.78.182-1.118.728-.208.338-.338.572-.572.962a2,2,0,0,0-1.326-.338h-1.56v-.728c0-.962-.364-1.638-1.222-1.638-.962,0-1.2.858-1.2,1.664v.7H127.27c-.858,0-2.08.052-2.08,1.222,0,.962.91,1.2,1.742,1.2h2.132v1.534h-3.172c-.91,0-1.612.338-1.612,1.222,0,.858.546,1.248,1.612,1.248Zm14.04,9.152a23.268,23.268,0,0,0,2.86-11.622c.832,0,1.664-.338,1.664-1.274,0-1.222-1.144-1.3-2.08-1.3h-5.044a17.008,17.008,0,0,0,.208-2.288,1.256,1.256,0,0,0-1.2-1.326,1.358,1.358,0,0,0-1.222,1.352,23.855,23.855,0,0,1-2.262,8.684,2.773,2.773,0,0,0-.52,1.352,1.243,1.243,0,0,0,1.248,1.222,1.181,1.181,0,0,0,1.014-.6,22.208,22.208,0,0,0,2.262,5.8A14.211,14.211,0,0,1,136.344-.6c-.806.494-1.066.78-1.066,1.4a1.2,1.2,0,0,0,1.248,1.222c1.4,0,4.264-2.548,5.278-3.848.806.988,3.276,3.952,4.576,3.952A1.438,1.438,0,0,0,147.758.754c0-.364-.052-.676-.65-1.118A14.441,14.441,0,0,1,143.338-4.03Zm-11.6-11.622h-.26v-1.534h1.508C132.6-16.666,132.184-16.146,131.742-15.652ZM141.8-6.526a27.741,27.741,0,0,1-2.158-7.2c.208-.65.39-1.274.546-1.924h3.614A22.109,22.109,0,0,1,141.8-6.526Zm20.982-13.468h-8.112c-.884,0-2.028,0-2.028,1.2,0,1.066.858,1.17,1.742,1.17h3.978a32.649,32.649,0,0,1-2.132,2.86c-.754-.026-1.534-.1-2.288-.1a1.375,1.375,0,0,0-1.534,1.274c0,.78.6,1.17,1.4,1.222.754.052,1.794.052,2.678.052,2.73,0,5.486-.1,8.216-.208,2.574-.1,5.2-.208,7.748-.468.26.26.624.624.962,1.014a1.464,1.464,0,0,0,1.014.572,1.235,1.235,0,0,0,1.3-1.274,1.84,1.84,0,0,0-.546-1.17,48.12,48.12,0,0,0-4.134-3.77H174.1c.858,0,1.612-.182,1.612-1.17,0-1.014-.728-1.2-1.612-1.2h-8.632v-.6a1.285,1.285,0,0,0-1.326-1.43,1.3,1.3,0,0,0-1.352,1.482Zm5.642,2.366a1.043,1.043,0,0,0-.078.39,1.133,1.133,0,0,0,.312.754c.39.416,1.014.936,1.4,1.274-.884.1-1.794.156-2.678.208-2.626.156-5.252.182-7.878.234.754-.91,1.456-1.872,2.132-2.86Zm2.418,15.34V-1.3c0,.962-1.092.962-1.794.962a11.339,11.339,0,0,1-1.326-.078c-.52-.052-1.066-.13-1.612-.13A1.13,1.13,0,0,0,165,.7a1.092,1.092,0,0,0,.806,1.066,11.934,11.934,0,0,0,3.2.312h.546a8.231,8.231,0,0,0,2.756-.442c1.2-.494,1.2-1.794,1.2-2.886V-9.542a1.88,1.88,0,0,0-1.716-2.106H156.52a2.019,2.019,0,0,0-1.482.546,1.925,1.925,0,0,0-.442,1.248V.208c0,1.014.26,1.664,1.326,1.664s1.326-.78,1.326-1.664v-2.5Zm0-5.824h-13.6v-.7c0-.442.13-.6.546-.6h12.35c.52,0,.7.1.7.65Zm0,3.536h-13.6V-5.9h13.6ZM187.538-17.94a1.075,1.075,0,0,0,.13-.494,5.46,5.46,0,0,0-.988-2.158,2.209,2.209,0,0,0-1.664-1.248,1.173,1.173,0,0,0-1.04,1.222,12.246,12.246,0,0,0,1.4,2.678h-2.366a2.02,2.02,0,0,0-2.106,1.872v3.146a3.051,3.051,0,0,0,.208,1.2,1.14,1.14,0,0,0,1.04.6,1.134,1.134,0,0,0,.858-.338,2.274,2.274,0,0,0,.364-1.43v-1.768c0-.572.1-.832.728-.832h16.12c.676,0,.754.26.754.884v1.872a2.519,2.519,0,0,0,.182,1.014,1.181,1.181,0,0,0,1.066.6,1.12,1.12,0,0,0,1.04-.546,2.65,2.65,0,0,0,.208-1.04v-3.64a1.63,1.63,0,0,0-1.742-1.586h-2.6a6.463,6.463,0,0,0,1.3-2.678,1.331,1.331,0,0,0-1.352-1.17c-.494,0-.728.13-1.248,1.144-.468.91-1.04,1.82-1.612,2.7h-3.328a1.236,1.236,0,0,0,.182-.6,6.649,6.649,0,0,0-.962-2.366c-.312-.546-.676-1.014-1.274-1.014a1.232,1.232,0,0,0-1.2,1.092,14.869,14.869,0,0,0,1.274,2.886ZM202.462-5.122a1.978,1.978,0,0,0,1.118-.26,1.092,1.092,0,0,0,.494-1.014,1.215,1.215,0,0,0-.338-.884,2.1,2.1,0,0,0-1.274-.364h-6.5c1.326-.962,3.406-2.808,3.406-4.576a1.594,1.594,0,0,0-1.794-1.664H186.42c-1.092,0-1.612.416-1.612,1.222,0,1.222,1.144,1.222,2.08,1.222h8.606c.312,0,.52.026.52.26,0,.546-2.366,2.262-2.86,2.6-.7-1.014-1.664-2-2.392-2a1.172,1.172,0,0,0-1.118,1.17c0,.442.624,1.222,1.092,1.768h-8.164a3.465,3.465,0,0,0-1.534.208,1.073,1.073,0,0,0-.546,1.04,1.159,1.159,0,0,0,.364.91,1.92,1.92,0,0,0,1.274.364h10.088a6.813,6.813,0,0,1,.728,2.574A2.131,2.131,0,0,1,190.632-.39a8.371,8.371,0,0,1-2.392-.39,4.018,4.018,0,0,0-1.04-.208,1.243,1.243,0,0,0-1.352,1.3c0,1.638,3.146,1.9,4.654,1.9,2.886,0,4.94-1.482,4.94-4.576a8.381,8.381,0,0,0-.546-2.756ZM213.85-19.63h-3.614c-.858,0-1.508.416-1.508,1.274,0,.884.65,1.222,1.456,1.248.364,1.664.806,3.354,1.248,4.94h-1.326c-1.066,0-1.716.338-1.716,1.274a1.3,1.3,0,0,0,1.456,1.274h10.608c.91,0,1.508-.494,1.508-1.274,0-.754-.572-1.274-1.508-1.274h-1.43a45.724,45.724,0,0,0,.884-4.94c.806,0,1.508-.312,1.508-1.248,0-.78-.442-1.274-1.612-1.274h-3.432v-.65c0-.858-.468-1.456-1.248-1.456-.728,0-1.274.468-1.274,1.482ZM228.7-11.544c1.586-2.08,3.094-4.68,3.094-7.384a2.3,2.3,0,0,0-.78-1.872,2.871,2.871,0,0,0-1.9-.494h-4.55c-1.508,0-2.184.91-2.184,2.34V.442c0,1.014.494,1.508,1.3,1.508s1.274-.6,1.274-1.612V-17.914c0-.624.234-.78.832-.78h2.652c.312,0,.65.026.65.39a4.812,4.812,0,0,1-.208,1.222,9.414,9.414,0,0,1-2.418,4.29,1.856,1.856,0,0,0-.728,1.326,1.98,1.98,0,0,0,.962,1.43,8.9,8.9,0,0,1,1.04.936A6.836,6.836,0,0,1,229.5-4.5c0,1.144-.364,2.08-1.638,2.08-.364,0-.7-.052-1.04-.052A1.264,1.264,0,0,0,225.472-1.2c0,1.2,1.3,1.456,2.262,1.456,3.068,0,4.394-1.638,4.394-4.6A9.557,9.557,0,0,0,228.7-11.544ZM212.6-17.108h4.862c-.26,1.664-.52,3.3-.858,4.94H213.72C213.356-13.832,212.992-15.47,212.6-17.108Zm-.39,8.71c-2.08,0-2.886.858-2.886,2.938v4c0,2.054.806,2.938,2.886,2.938h5.772c2.08,0,2.912-.884,2.912-2.938v-4c0-2.08-.832-2.938-2.912-2.938ZM211.8-4.966c0-.806.338-.91,1.066-.91h4.472c.754,0,1.066.078,1.066.91V-1.95c0,.832-.312.91-1.066.91h-4.472c-.754,0-1.066-.078-1.066-.91Z" transform="translate(-72 17)" fill="#042b7b"/>
    <g id="グループ_3" data-name="グループ 3" transform="translate(179 1)">
      <line id="線_1" data-name="線 1" x2="12" y2="12" fill="none" stroke="#042b7b" stroke-linecap="round" stroke-width="2"/>
      <line id="線_2" data-name="線 2" x1="12" y2="12" fill="none" stroke="#042b7b" stroke-linecap="round" stroke-width="2"/>
    </g>
    <path id="パス_822" data-name="パス 822" d="M22.49-22.568a2.608,2.608,0,0,0-2.6,2.6,2.608,2.608,0,0,0,2.6,2.6,2.642,2.642,0,0,0,2.6-2.6A2.642,2.642,0,0,0,22.49-22.568Zm0,1.274a1.332,1.332,0,0,1,1.326,1.326,1.332,1.332,0,0,1-1.326,1.326,1.332,1.332,0,0,1-1.326-1.326A1.332,1.332,0,0,1,22.49-21.294Zm-6.4,1.378a1.466,1.466,0,0,0-1.482,1.4,2.239,2.239,0,0,0,.338,1.066,47.144,47.144,0,0,1,2.808,5.616,72.761,72.761,0,0,1,2.756,8.008c.65,2.5.806,3.094,1.066,3.458a1.294,1.294,0,0,0,1.066.52,1.4,1.4,0,0,0,1.508-1.378,23.181,23.181,0,0,0-.858-3.9,69.391,69.391,0,0,0-3.068-8.424,38.5,38.5,0,0,0-2.782-5.46A1.718,1.718,0,0,0,16.094-19.916Zm-7.41.312c-1.378,0-1.534.78-1.586,2.99A23.17,23.17,0,0,1,5.876-10.14a32.742,32.742,0,0,1-3.8,7.566,2.773,2.773,0,0,0-.6,1.456A1.382,1.382,0,0,0,2.834.26,1.63,1.63,0,0,0,4-.208,17.306,17.306,0,0,0,6.812-4.68a32.126,32.126,0,0,0,3.276-13.338A1.444,1.444,0,0,0,8.684-19.6Zm22.152-.078a1.486,1.486,0,0,0-1.378,1.508c0,.546.364.988,1.092,1.56a26.944,26.944,0,0,1,2.7,2.47,24.033,24.033,0,0,0,1.82,1.82,1.157,1.157,0,0,0,.754.26,1.4,1.4,0,0,0,1.352-1.4c0-1.2-2.08-3.12-2.938-3.9C33.384-18.174,31.72-19.682,30.836-19.682Zm18.512,4.654a1.377,1.377,0,0,0-1.508-1.456c-.962,0-1.222.546-1.586,1.716a18.2,18.2,0,0,1-2.262,4.628,14.541,14.541,0,0,1-2.938,3.25,13.006,13.006,0,0,1-4.342,2.418A26.933,26.933,0,0,1,31.2-3.354c-1.092.078-2.028.234-2.028,1.56A1.456,1.456,0,0,0,30.628-.208,18.575,18.575,0,0,0,34.71-.884,22.541,22.541,0,0,0,42.12-4.03a18.293,18.293,0,0,0,5.642-6.552A12.86,12.86,0,0,0,49.348-15.028Zm13.208-4.134c0-1.352-.546-1.768-1.482-1.768-1.456,0-1.56.91-1.56,2.106V-.676c0,1.326.624,1.742,1.456,1.742,1.482,0,1.586-.91,1.586-2.106v-9.75a31.926,31.926,0,0,1,8.32,3.432,2.054,2.054,0,0,0,1.066.39,1.464,1.464,0,0,0,1.352-1.508c0-.988-1.638-1.872-2.678-2.366a43.516,43.516,0,0,0-8.06-2.964Zm40.326-.338c0-.832-1.924-2.886-2.782-2.886a.614.614,0,0,0-.6.52c0,.208.182.494.754,1.144a15.623,15.623,0,0,1,1.066,1.3c.39.572.52.728.858.728A.741.741,0,0,0,102.882-19.5Zm-5.148-1.248A2.454,2.454,0,0,0,98.41-19.5a11.045,11.045,0,0,1,.806,1.118c.312.52.572.936.988.936a.7.7,0,0,0,.7-.728,4.045,4.045,0,0,0-1.04-1.82c-.364-.442-1.17-1.3-1.534-1.3A.578.578,0,0,0,97.734-20.748Zm-12.22,1.794c0-1.3-.65-1.612-1.4-1.612-.806,0-1.4.39-1.4,1.612V-4.628a4.044,4.044,0,0,0,1.248,3.146C85.826,0,89.7.026,92.014.026a36.742,36.742,0,0,0,7.462-.65,1.329,1.329,0,0,0,.962-1.4,1.381,1.381,0,0,0-1.3-1.482,3.836,3.836,0,0,0-.676.078,43.11,43.11,0,0,1-7.1.6c-1.456,0-3.718-.052-5.018-.728-.754-.364-.832-.936-.832-1.9v-4.576a36.632,36.632,0,0,0,11.57-2.184,9.638,9.638,0,0,0,2.5-1.2A1.248,1.248,0,0,0,100-14.43a1.436,1.436,0,0,0-1.326-1.482,3.555,3.555,0,0,0-1.482.494,34.6,34.6,0,0,1-11.674,2.47Zm35.152,9.412c1.3-1.69,3.3-5.018,3.3-7.176a2.2,2.2,0,0,0-.754-1.716,3.063,3.063,0,0,0-1.872-.52h-11.6c-1.144,0-1.638.442-1.638,1.43,0,1.4,1.04,1.456,2.132,1.456h10.166c.156,0,.39.026.39.338,0,.988-1.4,3.016-2,3.8a26.785,26.785,0,0,1-4.862,4.992,27.023,27.023,0,0,1-5.98,3.484c-.806.312-1.4.624-1.4,1.612A1.521,1.521,0,0,0,108.03-.26a6.967,6.967,0,0,0,2.73-1.118,39.61,39.61,0,0,0,8.034-6.032c.858.806,1.69,1.586,2.47,2.418a36.729,36.729,0,0,1,3.094,3.874c.494.7.858,1.014,1.352,1.014a1.633,1.633,0,0,0,1.638-1.56,3.479,3.479,0,0,0-.988-2.054A36.334,36.334,0,0,0,123.838-6.5C122.824-7.54,121.732-8.554,120.666-9.542Zm31.616-6.552c0-1.9-.988-2.444-2.808-2.444H135.3c-1.092,0-2.132.156-2.132,1.508,0,1.4,1.04,1.456,2.132,1.456H148.59c.65,0,.858.338.858.962v9.23c0,1.014-.156,1.2-1.2,1.2H135.278c-1.092,0-2.106.1-2.106,1.482s.988,1.482,2.106,1.482h13.806a3.856,3.856,0,0,0,2.158-.442c1.04-.65,1.04-1.9,1.04-3.016Z" transform="translate(209 17)" fill="#042b7b"/>
  </g>
</svg>
