<svg xmlns="http://www.w3.org/2000/svg" width="70.021" height="9.11" viewBox="0 0 70.021 9.11">
  <g id="グループ_53" data-name="グループ 53" transform="translate(-323.269 -625.86)">
    <path id="パス_20" data-name="パス 20" d="M.48-1.86v.68H5.52v-.68ZM5.52-3.2v-.68H.48v.68Zm6.87-1.97V0h.85V-2.3a3.535,3.535,0,0,1,.1-.885,1.7,1.7,0,0,1,.32-.655,1.372,1.372,0,0,1,.58-.41,2.4,2.4,0,0,1,.87-.14v-.9a1.91,1.91,0,0,0-1.14.28,2.3,2.3,0,0,0-.76.93h-.02V-5.17Zm8.27,2.09H17.69a1.771,1.771,0,0,1,.13-.565,1.507,1.507,0,0,1,.3-.465,1.374,1.374,0,0,1,.455-.315,1.48,1.48,0,0,1,.595-.115,1.454,1.454,0,0,1,.585.115,1.472,1.472,0,0,1,.46.31,1.457,1.457,0,0,1,.31.465A1.739,1.739,0,0,1,20.66-3.08Zm.82,1.44h-.84a1.209,1.209,0,0,1-.455.76,1.471,1.471,0,0,1-.885.25,1.761,1.761,0,0,1-.73-.14,1.431,1.431,0,0,1-.51-.375,1.461,1.461,0,0,1-.29-.54,2.052,2.052,0,0,1-.08-.645h3.87a4.116,4.116,0,0,0-.085-.99,2.866,2.866,0,0,0-.38-.96,2.264,2.264,0,0,0-.73-.725A2.121,2.121,0,0,0,19.22-5.29a2.351,2.351,0,0,0-.975.2,2.291,2.291,0,0,0-.77.56,2.581,2.581,0,0,0-.5.85,3.111,3.111,0,0,0-.18,1.08,4.144,4.144,0,0,0,.175,1.09,2.379,2.379,0,0,0,.465.86,2.119,2.119,0,0,0,.765.56,2.656,2.656,0,0,0,1.075.2,2.347,2.347,0,0,0,1.46-.44A2.066,2.066,0,0,0,21.48-1.64Zm3.08-.9a3.4,3.4,0,0,1,.08-.74,1.958,1.958,0,0,1,.26-.64,1.354,1.354,0,0,1,.48-.45,1.46,1.46,0,0,1,.73-.17,1.578,1.578,0,0,1,.75.165,1.456,1.456,0,0,1,.505.435,1.819,1.819,0,0,1,.285.625,2.979,2.979,0,0,1,.09.735,3,3,0,0,1-.085.71,1.861,1.861,0,0,1-.275.625,1.463,1.463,0,0,1-.49.445,1.46,1.46,0,0,1-.73.17,1.518,1.518,0,0,1-.715-.16,1.421,1.421,0,0,1-.5-.43,1.9,1.9,0,0,1-.29-.615A2.644,2.644,0,0,1,24.56-2.54Zm4,4.51V-5.17h-.85v.69h-.02a1.369,1.369,0,0,0-.345-.385,1.96,1.96,0,0,0-.435-.25,2.183,2.183,0,0,0-.46-.135,2.518,2.518,0,0,0-.43-.04,2.353,2.353,0,0,0-1.035.215,2.125,2.125,0,0,0-.74.58,2.449,2.449,0,0,0-.44.855A3.647,3.647,0,0,0,23.66-2.6a3.534,3.534,0,0,0,.15,1.04,2.571,2.571,0,0,0,.445.86,2.151,2.151,0,0,0,.74.59A2.332,2.332,0,0,0,26.04.11a2.52,2.52,0,0,0,.99-.19,1.251,1.251,0,0,0,.66-.62h.02V1.97ZM35.65,0V-5.17H34.8v2.92a2.094,2.094,0,0,1-.1.645,1.465,1.465,0,0,1-.285.515,1.266,1.266,0,0,1-.475.34,1.732,1.732,0,0,1-.675.12,1.041,1.041,0,0,1-.77-.28,1.027,1.027,0,0,1-.28-.76v-3.5h-.85v3.4A3.2,3.2,0,0,0,31.455-1a1.449,1.449,0,0,0,.3.595,1.355,1.355,0,0,0,.55.385,2.318,2.318,0,0,0,.85.135,2.067,2.067,0,0,0,.99-.225,1.737,1.737,0,0,0,.69-.705h.02V0Zm3.68-6.1V-7.14h-.85V-6.1Zm-.85.93V0h.85V-5.17Zm3.64,0V0h.85V-2.3a3.535,3.535,0,0,1,.1-.885,1.7,1.7,0,0,1,.32-.655,1.372,1.372,0,0,1,.58-.41,2.4,2.4,0,0,1,.87-.14v-.9a1.91,1.91,0,0,0-1.14.28,2.3,2.3,0,0,0-.76.93h-.02V-5.17Zm8.27,2.09H47.42a1.77,1.77,0,0,1,.13-.565,1.507,1.507,0,0,1,.3-.465,1.374,1.374,0,0,1,.455-.315,1.48,1.48,0,0,1,.6-.115,1.454,1.454,0,0,1,.585.115,1.472,1.472,0,0,1,.46.31,1.457,1.457,0,0,1,.31.465A1.739,1.739,0,0,1,50.39-3.08Zm.82,1.44h-.84a1.209,1.209,0,0,1-.455.76,1.471,1.471,0,0,1-.885.25,1.761,1.761,0,0,1-.73-.14,1.431,1.431,0,0,1-.51-.375,1.461,1.461,0,0,1-.29-.54,2.052,2.052,0,0,1-.08-.645h3.87a4.116,4.116,0,0,0-.085-.99,2.866,2.866,0,0,0-.38-.96,2.264,2.264,0,0,0-.73-.725A2.121,2.121,0,0,0,48.95-5.29a2.351,2.351,0,0,0-.975.2,2.291,2.291,0,0,0-.77.56,2.581,2.581,0,0,0-.505.85,3.111,3.111,0,0,0-.18,1.08,4.144,4.144,0,0,0,.175,1.09,2.379,2.379,0,0,0,.465.86,2.119,2.119,0,0,0,.765.56A2.656,2.656,0,0,0,49,.11a2.347,2.347,0,0,0,1.46-.44A2.066,2.066,0,0,0,51.21-1.64Zm3.08-.9a3.4,3.4,0,0,1,.08-.74,1.958,1.958,0,0,1,.26-.64,1.354,1.354,0,0,1,.48-.45,1.46,1.46,0,0,1,.73-.17,1.578,1.578,0,0,1,.75.165,1.456,1.456,0,0,1,.5.435,1.819,1.819,0,0,1,.285.625,2.979,2.979,0,0,1,.09.735,3,3,0,0,1-.085.71,1.861,1.861,0,0,1-.275.625,1.463,1.463,0,0,1-.49.445,1.46,1.46,0,0,1-.73.17,1.518,1.518,0,0,1-.715-.16,1.421,1.421,0,0,1-.5-.43,1.9,1.9,0,0,1-.29-.615A2.643,2.643,0,0,1,54.29-2.54Zm4,2.54V-7.14h-.85v2.66h-.02a1.369,1.369,0,0,0-.345-.385,1.96,1.96,0,0,0-.435-.25,2.183,2.183,0,0,0-.46-.135,2.518,2.518,0,0,0-.43-.04,2.353,2.353,0,0,0-1.035.215,2.125,2.125,0,0,0-.74.58,2.449,2.449,0,0,0-.44.855A3.647,3.647,0,0,0,53.39-2.6a3.534,3.534,0,0,0,.15,1.04,2.571,2.571,0,0,0,.445.86,2.151,2.151,0,0,0,.74.59A2.332,2.332,0,0,0,55.77.11a2.52,2.52,0,0,0,.99-.19,1.251,1.251,0,0,0,.66-.62h.02V0Z" transform="translate(335 633)"/>
    <g id="コンポーネント_32_8" data-name="コンポーネント 32 – 8" transform="translate(323.269 627.062)">
      <path id="パス_21" data-name="パス 21" d="M7.222-3.252,4.072-3.34l2.29,2.158L6.04-.859,3.882-3.149,3.97,0H3.521l.088-3.149L1.45-.859l-.322-.322L3.418-3.34.269-3.252V-3.7l3.149.1L1.128-5.762l.322-.317,2.158,2.29L3.521-6.938H3.97L3.882-3.789,6.04-6.079l.322.317L4.072-3.6l3.149-.088Z" transform="translate(-0.269 6.938)" fill="#f50000"/>
    </g>
  </g>
</svg>
