<svg xmlns="http://www.w3.org/2000/svg" xmlns:xlink="http://www.w3.org/1999/xlink" width="570" height="94" viewBox="0 0 570 94">
  <defs>
    <clipPath id="clip-path">
      <rect id="長方形_117" data-name="長方形 117" width="570" height="94" fill="none"/>
    </clipPath>
  </defs>
  <g id="グループ_128" data-name="グループ 128" transform="translate(111.484 0)">
    <g id="マスクグループ_127" data-name="マスクグループ 127" transform="translate(-111.484 0)" clip-path="url(#clip-path)">
      <path id="パス_766" data-name="パス 766" d="M253.176,74.21c2.47,0,3.894-.971,4.118-4.105-3.67.223-7.939.373-12.884.373v-8.06c4.945,0,9.214-.149,12.884-.374V59.208a13.77,13.77,0,0,0,5.318-3.658H254.3V54.132a45.916,45.916,0,0,1-6.515,4.105l-3.372-7.09a37.02,37.02,0,0,0,9.214-7.315H244.41V35.7h3.9v-5.15h-3.9v-8.06h3.9V18.829h8.088v3.658h2.173v8.06h-2.173V35.7h2.248a57.646,57.646,0,0,0,3.07-12.39l7.791,1.419A51.711,51.711,0,0,1,267.481,35.7h2.7v8.136h-6.366a36.542,36.542,0,0,1-3.221,4.329h11.084V55.55A14.479,14.479,0,0,1,268.53,61c3.07-.373,4.643-.745,4.643-.745v8.06a75.5,75.5,0,0,1-7.789,1.194c-.075,9.032-4.12,10.524-12.208,10.524Zm29.511-55.381c0,2.986-.076,5.672-.151,8.06H294.6v8.062h-1.5c0,14.18-2.248,24.107-4.945,30.973a34.33,34.33,0,0,0,6.442,8.06L289.2,80.031a56.374,56.374,0,0,1-5.242-6.12c-3.146,4.627-5.918,6.12-5.918,6.12l-5.467-5.971s3.221-1.94,6.442-8.061A55.674,55.674,0,0,1,274,52.565l7.266-3.583a61.006,61.006,0,0,0,1.648,5.9,84.6,84.6,0,0,0,2.1-19.927h-3.07a34.528,34.528,0,0,1-3.372,11.867L271,43.982c2.622-5.971,3.595-11.941,3.595-25.153Z" transform="translate(160.613 -0.067)" fill="#0d3993"/>
      <path id="パス_767" data-name="パス 767" d="M347.03,30.622H312.35l-5.618,5.524c12.209-.3,21.572-.972,27.414-1.494l-1.273-2.538h8.313l5.844,11.42h-8.314l-.976-1.866c-5.991.672-19.324,1.866-40.9,1.866V36.22l5.694-5.6h-5.694V23.307h21.048V18.829h8.09v4.478H347.03Zm-2.248,37.1c0,9.254-4.045,12.314-12.284,12.314V72.717c1.872,0,3.145-.523,3.745-2.09H307.18v9.4h-8.088v-35h45.69Zm-8.09-15.375H307.181v2.985h29.511Zm0,9.1H307.181v2.985h29.511Z" transform="translate(160.613 -0.067)" fill="#0d3993"/>
      <line id="線_20" data-name="線 20" x2="442.287" transform="translate(63.326 86.798)" fill="none" stroke="#de3f5e" stroke-miterlimit="10" stroke-width="2"/>
      <line id="線_21" data-name="線 21" x2="442" transform="translate(63.613 93)" fill="none" stroke="#de3f5e" stroke-miterlimit="10" stroke-width="2"/>
      <path id="パス_808" data-name="パス 808" d="M11.4,45.5H.5V11.3H11.4ZM10.2,70.7C27,61.5,27.3,47.3,27.3,11.3H38.1c0,40.9-2.2,57.7-23.3,69.2Z" transform="translate(62.826 0.093)" fill="#0d3993"/>
      <path id="パス_809" data-name="パス 809" d="M11.4,45.5H.5V11.3H11.4ZM10.2,70.7C27,61.5,27.3,47.3,27.3,11.3H38.1c0,40.9-2.2,57.7-23.3,69.2Z" transform="translate(62.826 0.093)" fill="none" stroke="#0d3993" stroke-miterlimit="10" stroke-width="1"/>
      <path id="パス_810" data-name="パス 810" d="M85.1,11.3a144.512,144.512,0,0,1-2.5,27.9l10.6,4.5L89,53.7l-9.3-4C74.3,65.3,64.9,75.2,52,80.5l-4.6-9.8C59,65.3,66,57.1,70,45.6L54.4,38.9,58.6,29l14,5.9a139.039,139.039,0,0,0,1.7-23.6Z" transform="translate(62.826 0.093)" fill="#0d3993"/>
      <path id="パス_811" data-name="パス 811" d="M85.1,11.3a144.512,144.512,0,0,1-2.5,27.9l10.6,4.5L89,53.7l-9.3-4C74.3,65.3,64.9,75.2,52,80.5l-4.6-9.8C59,65.3,66,57.1,70,45.6L54.4,38.9,58.6,29l14,5.9a139.039,139.039,0,0,0,1.7-23.6Z" transform="translate(62.826 0.093)" fill="none" stroke="#0d3993" stroke-miterlimit="10" stroke-width="1"/>
      <path id="パス_812" data-name="パス 812" d="M104.7,45.9V35.1h45.4V45.9H135.2c-1,20.1-8.3,28.2-20.3,34.6l-4.5-9.8c10-5.3,13.4-11.3,14.1-24.8Zm40.4-32.6v8.8H109.8V11.3h31.8V.5h6.3V13.3Zm11.9,0h-6.2V.5H157Z" transform="translate(62.826 0.093)" fill="#0d3993"/>
      <path id="パス_813" data-name="パス 813" d="M104.7,45.9V35.1h45.4V45.9H135.2c-1,20.1-8.3,28.2-20.3,34.6l-4.5-9.8c10-5.3,13.4-11.3,14.1-24.8Zm40.4-32.6v8.8H109.8V11.3h31.8V.5h6.3V13.3Zm11.9,0h-6.2V.5H157Z" transform="translate(62.826 0.093)" fill="none" stroke="#0d3993" stroke-miterlimit="10" stroke-width="1"/>
      <path id="パス_814" data-name="パス 814" d="M177.1,48.6A79.174,79.174,0,0,1,163,54l-3.1-10.3c14.5-4.3,24.2-11,31.3-27.3l9.6,5c-3.8,8.7-8.1,14.9-12.9,19.5V80.5H177.1Z" transform="translate(62.826 0.093)" fill="#0d3993"/>
      <path id="パス_815" data-name="パス 815" d="M177.1,48.6A79.174,79.174,0,0,1,163,54l-3.1-10.3c14.5-4.3,24.2-11,31.3-27.3l9.6,5c-3.8,8.7-8.1,14.9-12.9,19.5V80.5H177.1Z" transform="translate(62.826 0.093)" fill="none" stroke="#0d3993" stroke-miterlimit="10" stroke-width="1"/>
      <path id="パス_816" data-name="パス 816" d="M211.1,22.1V11.3h51.4c0,16.2-.5,22.7-15,33.3l-6.4-8.7c6.9-5.4,9.3-8.4,10.2-13.8Zm8.4,50.4c10.1-7.3,9.4-13.3,9.4-21.5V30.2h10.8V51c0,13.6-1.6,20.9-12.8,29.5Z" transform="translate(62.826 0.093)" fill="#0d3993"/>
      <path id="パス_817" data-name="パス 817" d="M211.1,22.1V11.3h51.4c0,16.2-.5,22.7-15,33.3l-6.4-8.7c6.9-5.4,9.3-8.4,10.2-13.8Zm8.4,50.4c10.1-7.3,9.4-13.3,9.4-21.5V30.2h10.8V51c0,13.6-1.6,20.9-12.8,29.5Z" transform="translate(62.826 0.093)" fill="none" stroke="#0d3993" stroke-miterlimit="10" stroke-width="1"/>
      <path id="パス_818" data-name="パス 818" d="M283.4,28.1c0,25.1-2,36-13,52.4l-9-5.9c11.2-16.3,11.2-26,11.2-46.5Zm19.7,38.2c3.6-2.1,6.6-5.2,10.4-10.9l8.7,6.4c-6.9,9.8-15,17.6-29.9,18.7V11.3h10.8Z" transform="translate(62.826 0.093)" fill="#0d3993"/>
      <path id="パス_819" data-name="パス 819" d="M283.4,28.1c0,25.1-2,36-13,52.4l-9-5.9c11.2-16.3,11.2-26,11.2-46.5Zm19.7,38.2c3.6-2.1,6.6-5.2,10.4-10.9l8.7,6.4c-6.9,9.8-15,17.6-29.9,18.7V11.3h10.8Z" transform="translate(62.826 0.093)" fill="none" stroke="#0d3993" stroke-miterlimit="10" stroke-width="1"/>
    </g>
  </g>
</svg>
